<svg width="20" height="20" viewBox="0 0 20 20" fill="none" xmlns="http://www.w3.org/2000/svg">
<path d="M2.66667 20H17.3333C17.9001 20 18.3333 19.5667 18.3333 19V2C18.3333 1.43327 17.9001 1 17.3333 1H13.3333C13.3333 0.433268 12.9001 0 12.3333 0H7.66667C7.09994 0 6.66667 0.433268 6.66667 1H2.66667C2.09994 1 1.66667 1.43327 1.66667 2V19C1.66667 19.5667 2.09994 20 2.66667 20ZM7.33334 1C7.33334 0.799967 7.46664 0.666667 7.66667 0.666667H12.3333C12.5334 0.666667 12.6667 0.799967 12.6667 1V2.66667C12.6667 2.8667 12.5334 3 12.3333 3H7.66667C7.46664 3 7.33334 2.8667 7.33334 2.66667V1ZM2.33334 2C2.33334 1.79997 2.46664 1.66667 2.66667 1.66667H6.66667V2.66667C6.66667 3.2334 7.09994 3.66667 7.66667 3.66667H12.3333C12.7666 3.66667 13.1333 3.40007 13.2666 3H16.3333V15.6667H14V18H3.66667V3H6.00001V2.33333H3.00001V18.6667H14.4666L17 16.1333V2.33333H13.3333V1.66667H17.3333C17.5334 1.66667 17.6667 1.79997 17.6667 2V19C17.6667 19.2 17.5334 19.3333 17.3333 19.3333H2.66667C2.46664 19.3333 2.33334 19.2 2.33334 19V2ZM15.8667 16.3333L14.6667 17.5334V16.3333H15.8667Z" fill="white"/>
<path d="M8.66667 1.66667H11.3333V2.33334H8.66667V1.66667Z" fill="white"/>
<path d="M4.66667 11H15.3333V5.66667H4.66667V11ZM5.33334 6.33334H14.6667V10.3333H5.33334V6.33334Z" fill="white"/>
<path d="M7.66667 4.33333H12.3333V4.99999H7.66667V4.33333Z" fill="white"/>
<path d="M4.66667 11.6667H7V12.3333H4.66667V11.6667Z" fill="white"/>
<path d="M7.66667 11.6667H15.3333V12.3333H7.66667V11.6667Z" fill="white"/>
<path d="M4.66667 13H9V13.6667H4.66667V13Z" fill="white"/>
<path d="M9.66667 13H15.3333V13.6667H9.66667V13Z" fill="white"/>
<path d="M4.66667 14.3333H11V15H4.66667V14.3333Z" fill="white"/>
<path d="M11.6667 14.3333H15.3333V15H11.6667V14.3333Z" fill="white"/>
<path d="M4.66667 15.6667H13V16.3333H4.66667V15.6667Z" fill="white"/>
</svg>
