<svg width="31" height="40" viewBox="0 0 31 40" fill="none" xmlns="http://www.w3.org/2000/svg">
<path d="M29.0692 37.6563V27.0765H20.5832V16.4966H10.2807V21.9149H1.79473V37.6563H0V40H31V37.6563H29.0692ZM3.61114 37.6563V24.2587H10.2807V37.6563H3.61114ZM12.0971 37.6563V18.8404H18.7667V37.6563H12.0971ZM20.5832 37.6563V29.4202H27.2528V37.6563H20.5832Z" fill="white"/>
<path d="M14.5917 8.42195V11.6723H12.9267V14.0161H18.0732V11.6723H16.4082V8.42195C17.6966 7.94938 18.6693 6.49891 18.8095 4.73391H20.9825V2.39016H18.827V0H12.1729V2.39016H10.0447V4.73391H12.1903C12.3306 6.49891 13.3033 7.94938 14.5917 8.42195ZM13.9893 2.34375H17.0105V4.29297C17.0105 5.36773 16.3329 6.24219 15.4999 6.24219C14.6669 6.24219 13.9892 5.36781 13.9892 4.29297V2.34375H13.9893Z" fill="white"/>
<path d="M13.8673 23.3765H15.0239V28.4658H16.8403V21.0327H13.8673V23.3765Z" fill="white"/>
</svg>
