<svg width="30" height="27" viewBox="0 0 30 27" fill="none" xmlns="http://www.w3.org/2000/svg">
<path d="M29.5881 19.1619C30.1373 19.711 30.1373 20.6014 29.5881 21.1506L24.9006 25.8371C24.0212 26.7166 22.5 26.1002 22.5 24.8427V22.5H19.0556C18.9591 22.5 18.8638 22.4802 18.7753 22.4417C18.6869 22.4033 18.6073 22.3471 18.5415 22.2766L14.4074 17.8472L17.5324 14.499L20.625 17.8125H22.5V15.4699C22.5 14.2137 24.0201 13.595 24.9006 14.4755L29.5881 19.1619ZM0.703125 8.4375H5.625L8.71764 11.751L11.8426 8.40281L7.70848 3.97336C7.64269 3.90287 7.56311 3.84666 7.47467 3.80824C7.38624 3.76981 7.29085 3.74999 7.19443 3.75H0.703125C0.314824 3.75 0 4.06482 0 4.45312V7.73437C0 8.12267 0.314824 8.4375 0.703125 8.4375ZM22.5 8.4375V10.7803C22.5 12.0377 24.0212 12.6541 24.9006 11.7747L29.5881 7.08814C30.1373 6.53894 30.1373 5.64855 29.5881 5.09941L24.9006 0.413024C24.0201 -0.467523 22.5 0.151286 22.5 1.40736V3.75H19.0556C18.9591 3.75001 18.8638 3.76984 18.7753 3.80826C18.6869 3.84669 18.6073 3.90288 18.5415 3.97336L5.625 17.8125H0.703125C0.314824 17.8125 0 18.1273 0 18.5156V21.7969C0 22.1852 0.314824 22.5 0.703125 22.5H7.19443C7.38932 22.5 7.57547 22.4191 7.70848 22.2766L20.625 8.4375H22.5Z" fill="white"/>
</svg>
