<svg width="30" height="30" viewBox="0 0 30 30" fill="none" xmlns="http://www.w3.org/2000/svg">
<path d="M14.5579 2.36255e-05C18.4409 0.00699628 21.9663 1.53711 24.5692 4.02454L26.6619 1.93186C27.5478 1.04598 29.0625 1.6734 29.0625 2.92625V10.7813C29.0625 11.5579 28.4329 12.1875 27.6562 12.1875H19.8012C18.5484 12.1875 17.921 10.6728 18.8068 9.78688L21.2531 7.34059C19.4447 5.64729 17.1046 4.70932 14.6186 4.68788C9.20461 4.64112 4.64103 9.02247 4.68785 14.6161C4.73227 19.9224 9.03422 24.375 14.5312 24.375C16.941 24.375 19.2186 23.515 21.0134 21.9401C21.2913 21.6963 21.711 21.7111 21.9725 21.9725L24.2964 24.2965C24.5819 24.5819 24.5678 25.0473 24.2682 25.3179C21.6915 27.6453 18.2769 29.0625 14.5312 29.0625C6.5059 29.0625 5.85941e-05 22.5567 3.93607e-10 14.5314C-5.85934e-05 6.51524 6.54176 -0.0143318 14.5579 2.36255e-05Z" fill="white"/>
</svg>
