<svg width="48" height="48" viewBox="0 0 48 48" fill="none" xmlns="http://www.w3.org/2000/svg">
<g clip-path="url(#clip0)" filter="url(#filter0_d)">
<path d="M28.6667 23.3333H27.9333C27.6575 23.3338 27.4107 23.1617 27.316 22.9026C27.2347 22.6893 27.1473 22.4806 27.0533 22.274C26.9365 22.0226 26.9898 21.7251 27.1867 21.53L27.7093 21.0066C28.4853 20.2239 28.4838 18.9616 27.706 18.1806L25.822 16.2966C25.0401 15.5193 23.7773 15.5193 22.9953 16.2966L22.4727 16.8186C22.2772 17.0147 21.9801 17.068 21.7287 16.952C21.522 16.858 21.3133 16.7706 21.0993 16.6853C20.8389 16.5912 20.6657 16.3436 20.6667 16.0666V15.3333C20.6667 14.2287 19.7713 13.3333 18.6667 13.3333H16C14.8954 13.3333 14 14.2287 14 15.3333V16.0666C14.0005 16.3425 13.8284 16.5892 13.5693 16.684C13.356 16.7653 13.1473 16.8526 12.9407 16.9466C12.6892 17.0629 12.3921 17.0096 12.1967 16.8133L11.6733 16.2906C10.8915 15.5138 9.62917 15.5138 8.84733 16.2906L6.96333 18.1806C6.186 18.9626 6.186 20.2254 6.96333 21.0073L7.48533 21.53C7.68217 21.7251 7.7355 22.0226 7.61867 22.274C7.52467 22.4806 7.43733 22.6893 7.35533 22.9033C7.25992 23.1639 7.01083 23.3361 6.73333 23.3333H6C4.89542 23.3333 4 24.2287 4 25.3333V28C4 29.1046 4.89542 30 6 30H6.73333C7.00917 29.9995 7.25592 30.1716 7.35067 30.4306C7.432 30.644 7.51933 30.8526 7.61333 31.0593C7.73017 31.3106 7.67683 31.6082 7.48 31.8033L6.95733 32.3266C6.1805 33.1085 6.1805 34.3708 6.95733 35.1526L8.84133 37.0366C9.62325 37.814 10.8861 37.814 11.668 37.0366L12.1907 36.5146C12.3862 36.3186 12.6833 36.2653 12.9347 36.3813C13.1413 36.4753 13.35 36.5626 13.564 36.648C13.8258 36.741 14.0005 36.9889 14 37.2666V38C14 39.1046 14.8954 40 16 40H18.6667C19.7713 40 20.6667 39.1046 20.6667 38V37.2666C20.6662 36.9908 20.8383 36.7441 21.0973 36.6493C21.3107 36.568 21.5193 36.4806 21.726 36.3866C21.9774 36.2704 22.2746 36.3236 22.47 36.52L22.9933 37.0426C23.7763 37.8182 25.0382 37.8167 25.8193 37.0393L27.7033 35.1553C28.4807 34.3734 28.4807 33.1106 27.7033 32.3286L27.1813 31.806C26.9845 31.6109 26.9312 31.3133 27.048 31.062C27.142 30.8553 27.2293 30.6466 27.3147 30.4326C27.4088 30.1722 27.6564 29.999 27.9333 30H28.6667C29.7713 30 30.6667 29.1046 30.6667 28V25.3333C30.6667 24.2287 29.7713 23.3333 28.6667 23.3333ZM29.3333 28C29.3333 28.3681 29.0348 28.6666 28.6667 28.6666H27.9333C27.1046 28.6697 26.3629 29.182 26.0667 29.956C25.996 30.1426 25.9196 30.3264 25.8373 30.5073C25.4946 31.264 25.6536 32.1536 26.2373 32.7446L26.7587 33.2666C27.0192 33.5268 27.0194 33.949 26.7592 34.2095C26.759 34.2096 26.7588 34.2098 26.7587 34.21L24.8747 36.094C24.6143 36.3542 24.1923 36.3542 23.932 36.094L23.4093 35.572C22.8186 34.9877 21.9286 34.8286 21.172 35.172C20.9913 35.254 20.8073 35.3306 20.622 35.4013C19.8486 35.6975 19.3367 36.4385 19.3333 37.2666V38C19.3333 38.3681 19.0348 38.6666 18.6667 38.6666H16C15.6318 38.6666 15.3333 38.3681 15.3333 38V37.2666C15.3303 36.4379 14.818 35.6962 14.044 35.4C13.8573 35.3293 13.6736 35.2529 13.4927 35.1706C12.736 34.8281 11.8464 34.9871 11.2553 35.5706L10.7333 36.092C10.4732 36.3525 10.051 36.3527 9.7905 36.0925C9.79033 36.0923 9.79017 36.0921 9.79 36.092L7.906 34.21C7.64575 33.9496 7.64575 33.5276 7.906 33.2673L8.428 32.7446C9.01175 32.1536 9.17075 31.264 8.828 30.5073C8.746 30.3266 8.66933 30.1426 8.59867 29.9573C8.30317 29.1831 7.562 28.6703 6.73333 28.6666H6C5.63183 28.6666 5.33333 28.3681 5.33333 28V25.3333C5.33333 24.9651 5.63183 24.6666 6 24.6666H6.73333C7.56208 24.6636 8.30375 24.1513 8.6 23.3773C8.67067 23.1906 8.74708 23.0069 8.82933 22.826C9.17208 22.0693 9.013 21.1796 8.42933 20.5886L7.90533 20.0666C7.64483 19.8065 7.64458 19.3843 7.90483 19.1238C7.905 19.1236 7.90517 19.1235 7.90533 19.1233L9.78933 17.2393C10.0497 16.9791 10.4717 16.9791 10.732 17.2393L11.2547 17.7613C11.8454 18.3456 12.7354 18.5046 13.492 18.1613C13.6727 18.0793 13.8567 18.0026 14.042 17.932C14.8165 17.6367 15.3296 16.8955 15.3333 16.0666V15.3333C15.3333 14.9651 15.6318 14.6666 16 14.6666H18.6667C19.0348 14.6666 19.3333 14.9651 19.3333 15.3333V16.0666C19.3364 16.8954 19.8487 17.6371 20.6227 17.9333C20.8093 18.004 20.9931 18.0804 21.174 18.1626C21.9306 18.506 22.8206 18.3469 23.4113 17.7626L23.9333 17.2413C24.1947 16.9828 24.6153 16.9828 24.8767 17.2413L26.7607 19.1253C27.0209 19.3856 27.0209 19.8076 26.7607 20.068L26.2387 20.5906C25.655 21.1816 25.4959 22.0713 25.8387 22.828C25.9207 23.0086 25.9973 23.1926 26.068 23.378C26.3642 24.1514 27.1052 24.6633 27.9333 24.6666H28.6667C29.0348 24.6666 29.3333 24.9651 29.3333 25.3333V28Z" fill="white"/>
<path d="M23.32 26.4C23.3134 26.24 23.302 26.0806 23.2827 25.922C23.2614 25.7513 23.236 25.582 23.2007 25.416C23.1774 25.3073 23.1467 25.2 23.1174 25.092C23.08 24.9546 23.038 24.8193 22.9914 24.686C22.9587 24.5933 22.9247 24.5013 22.89 24.41C22.8042 24.1965 22.706 23.988 22.596 23.786C22.5874 23.7706 22.582 23.754 22.5734 23.7386C22.3999 23.43 22.1991 23.1374 21.9734 22.8646C21.954 22.8406 21.932 22.818 21.912 22.7946C21.82 22.686 21.7254 22.5806 21.626 22.48C21.574 22.426 21.5194 22.3753 21.4647 22.3233C21.398 22.2613 21.3314 22.2 21.2647 22.1413C21.1838 22.071 21.1014 22.003 21.0174 21.9373L20.908 21.856C19.8764 21.0833 18.6222 20.666 17.3334 20.6666C17.2667 20.6666 17.2 20.6766 17.1334 20.6793C16.9914 20.6833 16.8487 20.6913 16.7054 20.706C16.63 20.714 16.554 20.7226 16.4787 20.7333C16.2614 20.7619 16.0457 20.8022 15.8327 20.854C12.6226 21.6835 10.6928 24.9583 11.5223 28.1684C12.0689 30.2837 13.7216 31.9351 15.8374 32.48C15.848 32.48 15.8594 32.4833 15.8707 32.486C16.1009 32.5434 16.3342 32.588 16.5694 32.6193C16.7247 32.6386 16.88 32.6426 17.036 32.65C17.14 32.6553 17.236 32.6706 17.3447 32.6706C17.5347 32.6706 17.732 32.658 17.9334 32.638C17.9547 32.638 17.976 32.632 18 32.6293C18.162 32.6113 18.326 32.5873 18.4934 32.554C18.56 32.5413 18.622 32.5246 18.686 32.51C18.8034 32.4826 18.92 32.454 19.04 32.4186C19.1334 32.3906 19.224 32.358 19.3154 32.326C19.4067 32.294 19.5014 32.2593 19.596 32.2233C19.6907 32.1873 19.77 32.146 19.856 32.106C19.968 32.0546 20.0794 32.004 20.1894 31.944H20.1934C20.8155 31.6109 21.3902 31.1959 21.902 30.71C22.0403 30.581 22.1605 30.4338 22.2594 30.2726C22.7797 29.4385 23.1215 28.5056 23.2634 27.5326C23.282 27.404 23.2987 27.2753 23.3087 27.144C23.318 27.0233 23.3247 26.9033 23.3274 26.7833C23.3274 26.7453 23.3327 26.7093 23.3327 26.6713C23.3334 26.5773 23.324 26.4906 23.32 26.4ZM21.9914 26.8366C21.9914 26.892 21.9867 26.9473 21.9834 27.002C21.9714 27.1633 21.9507 27.3246 21.9234 27.4866C21.6742 28.8727 20.8136 30.0727 19.5807 30.7533C19.498 30.7966 19.4167 30.8373 19.3354 30.8746L19.28 30.9013C18.8927 31.0771 18.4839 31.2009 18.064 31.2693C18.0347 31.274 18.0047 31.2793 17.9747 31.2833C17.8914 31.2953 17.8094 31.3053 17.728 31.3126C17.6207 31.322 17.5127 31.3273 17.4027 31.3293C17.356 31.3293 17.31 31.3293 17.2634 31.3293C17.1056 31.3275 16.9481 31.3177 16.7914 31.3L16.7114 31.2906C16.528 31.2666 16.3462 31.2324 16.1667 31.188C13.6699 30.5489 12.1639 28.0067 12.8029 25.5099C13.2251 23.86 14.5126 22.5712 16.162 22.1473V22.1466C16.545 22.05 16.9384 22.0007 17.3334 22C17.5239 22.001 17.7144 22.014 17.9034 22.0386C17.954 22.0446 18.004 22.054 18.054 22.0613C18.198 22.084 18.3407 22.1126 18.4814 22.1486C18.5274 22.1606 18.5734 22.1713 18.6187 22.184C18.9732 22.2863 19.3144 22.43 19.6354 22.612C19.6867 22.642 19.7367 22.6733 19.7874 22.7046C19.8927 22.7713 19.9947 22.838 20.0954 22.914C20.1494 22.9533 20.204 22.992 20.256 23.034C20.3869 23.1385 20.5121 23.2497 20.6314 23.3673C20.6787 23.4153 20.722 23.468 20.768 23.518C20.8447 23.6013 20.9194 23.6866 20.9907 23.7766C21.04 23.8386 21.0874 23.9026 21.134 23.9673C21.2007 24.0633 21.2674 24.1633 21.3274 24.2646C21.3607 24.32 21.394 24.374 21.428 24.4306C21.514 24.5889 21.5906 24.752 21.6574 24.9193C21.684 24.986 21.7067 25.0526 21.7307 25.1193C21.774 25.242 21.8114 25.366 21.844 25.4913C21.8607 25.558 21.8794 25.6173 21.8934 25.682C21.9323 25.8621 21.9605 26.0445 21.978 26.228C21.982 26.2766 21.982 26.326 21.9854 26.3746C21.9947 26.528 21.9974 26.682 21.9914 26.8366Z" fill="white"/>
<path d="M42 14H39.9033C39.6238 14.0028 39.3737 13.8268 39.282 13.5627C39.0753 12.9434 38.8251 12.3394 38.5333 11.7553C38.4095 11.5031 38.4611 11.1998 38.6614 11.0027L40.148 9.514C40.9283 8.73308 40.9283 7.46758 40.148 6.68667L37.3134 3.85667C36.5324 3.07633 35.2669 3.07633 34.486 3.85667L33 5.342C32.8031 5.54217 32.5003 5.594 32.248 5.47067C31.6639 5.17742 31.0597 4.92592 30.44 4.718C30.1749 4.62725 29.9975 4.37692 30 4.09667V2C30 0.895417 29.1046 0 28 0H24C22.8954 0 22 0.895417 22 2V4.09667C22.0029 4.37625 21.8269 4.62633 21.5627 4.718C20.9434 4.92583 20.3394 5.17717 19.7554 5.47C19.5031 5.59425 19.1997 5.54267 19.0027 5.342L17.514 3.85533C16.7322 3.07725 15.4685 3.07725 14.6867 3.85533L11.8574 6.68467C11.0766 7.46567 11.0766 8.73167 11.8574 9.51267L14.0434 11.7027C14.3078 11.9588 14.7299 11.9522 14.986 11.6877C15.2359 11.4297 15.2365 11.02 14.9874 10.7613L12.8 8.572C12.5398 8.31167 12.5398 7.88967 12.8 7.62933L15.6294 4.8C15.8897 4.53975 16.3117 4.53975 16.572 4.8L18.0614 6.28667C18.6639 6.89283 19.5873 7.04433 20.352 6.66267C20.8801 6.39825 21.4261 6.17125 21.986 5.98333C22.7942 5.70975 23.3369 4.94992 23.3334 4.09667V2C23.3334 1.63183 23.6319 1.33333 24 1.33333H28C28.3682 1.33333 28.6667 1.63183 28.6667 2V4.09667C28.6633 4.94975 29.2059 5.70933 30.014 5.98267C30.5742 6.17067 31.1204 6.39783 31.6487 6.66267C32.4136 7.04233 33.3357 6.89067 33.9387 6.286L35.428 4.8C35.6883 4.53975 36.1103 4.53975 36.3707 4.8L39.2 7.63C39.4598 7.89025 39.4598 8.31175 39.2 8.572L37.7134 10.0613C37.1078 10.6643 36.9564 11.5872 37.3374 12.352C37.6018 12.8801 37.8288 13.4261 38.0167 13.986C38.2901 14.7943 39.05 15.337 39.9033 15.3333H42C42.3682 15.3333 42.6667 15.6318 42.6667 16V20C42.6667 20.3682 42.3682 20.6667 42 20.6667H39.9033C39.0503 20.6632 38.2907 21.2059 38.0173 22.014C37.8294 22.5742 37.6022 23.1204 37.3374 23.6487C36.957 24.4135 37.1088 25.3359 37.714 25.9387L39.2007 27.428C39.4609 27.6883 39.4609 28.1103 39.2007 28.3707L36.37 31.2C36.1098 31.4598 35.6883 31.4598 35.428 31.2L33.2373 29.014C32.9812 28.7495 32.5591 28.7428 32.2947 28.999C32.0302 29.2552 32.0235 29.6772 32.2797 29.9417C32.285 29.9472 32.2905 29.9527 32.296 29.958L34.486 32.144C35.2669 32.9243 36.5324 32.9243 37.3134 32.144L40.1427 29.3153C40.9234 28.5343 40.9234 27.2683 40.1427 26.4873L38.658 25C38.458 24.803 38.4063 24.5003 38.5293 24.248C38.8226 23.6638 39.0741 23.0597 39.282 22.44C39.3728 22.1748 39.6231 21.9975 39.9033 22H42C43.1046 22 44 21.1046 44 20V16C44 14.8954 43.1046 14 42 14Z" fill="white"/>
<path d="M32.1281 11.872C28.7415 8.49261 23.2585 8.49261 19.872 11.872C19.6163 12.1369 19.6236 12.5589 19.8884 12.8147C20.1468 13.0642 20.5564 13.0642 20.8147 12.8147C23.6593 9.93169 28.3024 9.90061 31.1854 12.7452C34.0684 15.5898 34.0995 20.2329 31.2549 23.1159C31.2319 23.1392 31.2087 23.1624 31.1854 23.1854C30.9205 23.4412 30.9132 23.8632 31.1691 24.128C31.4249 24.3929 31.8469 24.4002 32.1117 24.1444C32.1172 24.139 32.1227 24.1335 32.1281 24.128C35.5075 20.7415 35.5075 15.2585 32.1281 11.872Z" fill="white"/>
</g>
<defs>
<filter id="filter0_d" x="0" y="0" width="48" height="48" filterUnits="userSpaceOnUse" color-interpolation-filters="sRGB">
<feFlood flood-opacity="0" result="BackgroundImageFix"/>
<feColorMatrix in="SourceAlpha" type="matrix" values="0 0 0 0 0 0 0 0 0 0 0 0 0 0 0 0 0 0 127 0" result="hardAlpha"/>
<feOffset dy="4"/>
<feGaussianBlur stdDeviation="2"/>
<feComposite in2="hardAlpha" operator="out"/>
<feColorMatrix type="matrix" values="0 0 0 0 0 0 0 0 0 0 0 0 0 0 0 0 0 0 0.25 0"/>
<feBlend mode="normal" in2="BackgroundImageFix" result="effect1_dropShadow"/>
<feBlend mode="normal" in="SourceGraphic" in2="effect1_dropShadow" result="shape"/>
</filter>
<clipPath id="clip0">
<rect width="40" height="40" fill="white" transform="translate(4)"/>
</clipPath>
</defs>
</svg>
