<svg width="25" height="25" viewBox="0 0 25 25" fill="none" xmlns="http://www.w3.org/2000/svg">
<circle cx="12.5" cy="12.5" r="12.5" fill="#DFE3E7"/>
<path d="M11.1377 15.3965C11.1494 14.6992 11.2285 14.1484 11.375 13.7441C11.5215 13.3398 11.8203 12.8916 12.2715 12.3994L13.4229 11.2129C13.915 10.6562 14.1611 10.0586 14.1611 9.41992C14.1611 8.80469 14 8.32422 13.6777 7.97852C13.3555 7.62695 12.8867 7.45117 12.2715 7.45117C11.6738 7.45117 11.1934 7.60938 10.8301 7.92578C10.4668 8.24219 10.2852 8.66699 10.2852 9.2002H8.65918C8.6709 8.25098 9.00781 7.48633 9.66992 6.90625C10.3379 6.32031 11.2051 6.02734 12.2715 6.02734C13.3789 6.02734 14.2402 6.32617 14.8555 6.92383C15.4766 7.51562 15.7871 8.33008 15.7871 9.36719C15.7871 10.3926 15.3125 11.4033 14.3633 12.3994L13.4053 13.3486C12.9775 13.8232 12.7637 14.5059 12.7637 15.3965H11.1377ZM11.0674 18.1826C11.0674 17.9189 11.1465 17.6992 11.3047 17.5234C11.4688 17.3418 11.709 17.251 12.0254 17.251C12.3418 17.251 12.582 17.3418 12.7461 17.5234C12.9102 17.6992 12.9922 17.9189 12.9922 18.1826C12.9922 18.4463 12.9102 18.666 12.7461 18.8418C12.582 19.0117 12.3418 19.0967 12.0254 19.0967C11.709 19.0967 11.4688 19.0117 11.3047 18.8418C11.1465 18.666 11.0674 18.4463 11.0674 18.1826Z" fill="white"/>
</svg>
