<svg width="17" height="16" viewBox="0 0 17 16" fill="none" xmlns="http://www.w3.org/2000/svg">
<rect width="1.72498" height="5.11184" transform="matrix(-0.997787 -0.0664968 0.071925 0.99741 16.6323 0.664917)" fill="#CED4DA"/>
<rect width="1.50016" height="5.74322" transform="matrix(-0.071925 -0.99741 -0.997787 -0.0664968 16.5747 1.87817)" fill="#CED4DA"/>
<rect width="3.63169" height="6.79646" transform="matrix(-0.720903 -0.693036 -0.720903 0.693036 16.5181 2.80334)" fill="#CED4DA"/>
<rect width="1.65892" height="5.31539" transform="matrix(0.071925 -0.99741 -0.997787 0.0664968 16.1245 15.5339)" fill="#CED4DA"/>
<rect width="1.55989" height="5.52329" transform="matrix(0.997787 -0.0664968 0.071925 -0.99741 14.8623 15.4784)" fill="#CED4DA"/>
<rect width="3.63169" height="6.79646" transform="matrix(0.720903 -0.693036 -0.720903 -0.693036 13.8999 15.4242)" fill="#CED4DA"/>
<rect width="1.65892" height="5.31539" transform="matrix(-0.071925 0.99741 0.997787 -0.0664968 0.691895 0.353516)" fill="#CED4DA"/>
<rect width="1.55989" height="5.52329" transform="matrix(-0.997787 0.0664968 -0.071925 0.99741 1.9541 0.409058)" fill="#CED4DA"/>
<rect width="3.63169" height="6.79646" transform="matrix(-0.720903 0.693036 0.720903 0.693036 2.9165 0.463257)" fill="#CED4DA"/>
<rect width="1.72498" height="5.11184" transform="matrix(0.997787 0.0664968 -0.071925 -0.99741 0.367676 15.2225)" fill="#CED4DA"/>
<rect width="1.50016" height="5.74322" transform="matrix(0.071925 0.99741 0.997787 0.0664968 0.425293 14.0093)" fill="#CED4DA"/>
<rect width="3.63169" height="6.79646" transform="matrix(0.720903 0.693036 0.720903 -0.693036 0.481934 13.0841)" fill="#CED4DA"/>
</svg>
