<svg width="25" height="25" viewBox="0 0 25 25" fill="none" xmlns="http://www.w3.org/2000/svg">
<path d="M25 12.5C25 19.4051 19.4031 25 12.5 25C5.59693 25 0 19.4051 0 12.5C0 5.59894 5.59693 0 12.5 0C19.4031 0 25 5.59894 25 12.5ZM12.5 15.0202C11.2195 15.0202 10.1815 16.0582 10.1815 17.3387C10.1815 18.6192 11.2195 19.6573 12.5 19.6573C13.7805 19.6573 14.8185 18.6192 14.8185 17.3387C14.8185 16.0582 13.7805 15.0202 12.5 15.0202ZM10.2987 6.68619L10.6726 13.541C10.6901 13.8618 10.9553 14.1129 11.2766 14.1129H13.7234C14.0447 14.1129 14.3099 13.8618 14.3274 13.541L14.7013 6.68619C14.7202 6.33972 14.4443 6.04839 14.0973 6.04839H10.9026C10.5556 6.04839 10.2798 6.33972 10.2987 6.68619Z" fill="#D8C795"/>
</svg>
