<svg width="57" height="47" viewBox="0 0 57 47" fill="none" xmlns="http://www.w3.org/2000/svg">
<rect x="0.350067" y="0.800049" width="55.8" height="45.24" rx="4" fill="#EAD5A3"/>
<line x1="0.349991" y1="15.8999" x2="14.3" y2="15.8999" stroke="#91876F"/>
<line x1="20.5001" y1="11.22" x2="34.4501" y2="11.22" stroke="#91876F"/>
<line x1="29.3" y1="11.72" x2="29.3" y2="0.799971" stroke="#91876F"/>
<line x1="29.3" y1="46.04" x2="29.3" y2="35.12" stroke="#91876F"/>
<line x1="42.2" y1="15.8999" x2="56.15" y2="15.8999" stroke="#91876F"/>
<line x1="0.349991" y1="23.7001" x2="14.3" y2="23.7001" stroke="#91876F"/>
<line x1="14.8" y1="11.72" x2="14.8" y2="33.56" stroke="#91876F"/>
<path d="M41.425 13.28L41.425 33.56" stroke="#91876F"/>
<line x1="42.2" y1="23.7002" x2="56.15" y2="23.7002" stroke="#91876F"/>
<line x1="0.349991" y1="31.5001" x2="14.3" y2="31.5001" stroke="#91876F"/>
<line x1="20.5001" y1="34.6199" x2="34.4501" y2="34.6199" stroke="#91876F"/>
<line x1="42.2" y1="31.5" x2="56.15" y2="31.5" stroke="#91876F"/>
<path d="M15.075 12.4999V11.7199L17.4 10.9399H20.5" stroke="#91876F"/>
<path d="M41.425 14.0601L41.4075 12.4307L38.4731 10.9734L33.675 10.9401" stroke="#91876F"/>
<path d="M15.075 32.0001L15.075 33.5601L18.95 34.3401L22.825 34.3401" stroke="#91876F"/>
<path d="M41.4251 32.0001L41.4251 33.5601L36.7751 34.3401L32.9001 34.3401" stroke="#91876F"/>
</svg>
