<svg width="25" height="25" viewBox="0 0 25 25" fill="none" xmlns="http://www.w3.org/2000/svg">
<path d="M0 22.3214C0 23.8002 0.93316 25 2.08333 25H22.9167C24.0668 25 25 23.8002 25 22.3214V12.5H0V22.3214ZM8.33333 18.5268C8.33333 18.1585 8.56771 17.8571 8.85417 17.8571H14.7569C15.0434 17.8571 15.2778 18.1585 15.2778 18.5268V20.7589C15.2778 21.1272 15.0434 21.4286 14.7569 21.4286H8.85417C8.56771 21.4286 8.33333 21.1272 8.33333 20.7589V18.5268ZM2.77778 18.5268C2.77778 18.1585 3.01215 17.8571 3.29861 17.8571H6.42361C6.71007 17.8571 6.94444 18.1585 6.94444 18.5268V20.7589C6.94444 21.1272 6.71007 21.4286 6.42361 21.4286H3.29861C3.01215 21.4286 2.77778 21.1272 2.77778 20.7589V18.5268ZM25 2.67857V5.35714H0V2.67857C0 1.19978 0.93316 0 2.08333 0H22.9167C24.0668 0 25 1.19978 25 2.67857Z" fill="#D8C795"/>
</svg>
