<svg width="29" height="39" viewBox="0 0 29 39" fill="none" xmlns="http://www.w3.org/2000/svg">
<path d="M0 0H17V11.8026H29V39H0V0Z" fill="#2D9F2A"/>
<path d="M19 0L24.4545 5.64474L29 10.2632H19V0Z" fill="#2D9F2A"/>
<path d="M22.0697 25.1263C16.9067 25.4575 13.9632 19.6767 12.6294 14.9295C12.0412 12.8359 13.3457 10.3245 15.0362 11.6923C15.1764 11.8057 15.3186 11.9354 15.4624 12.083C16.84 13.4972 12.9669 21.2495 9.89646 26.6531C8.89961 28.4074 7.51676 29.999 5.63499 30.7273C4.18562 31.2882 3.25563 31.1397 4.78917 28.7784C6.2949 26.4599 9.94327 24.5521 13.3921 23.2269C17.0049 21.8386 21.3507 21.3647 24.4994 23.6153C25.4753 24.3128 25.2029 24.9253 22.0697 25.1263Z" stroke="white"/>
</svg>
