<svg width="143" height="165" viewBox="0 0 143 165" fill="none" xmlns="http://www.w3.org/2000/svg">
<path d="M2 137.208V5L16 16.5L28 5L38.5 16.5L50 5L59.5 16.5L71 5L82.5 16.5L92 5L101.5 16.5L114.5 5V80.5H140.5V128.621C140.5 141.689 133.01 153.601 121.232 159.263L114.5 162.5H21.9765C18.1275 162.5 14.4131 161.083 11.5419 158.52C5.47099 153.099 2 145.347 2 137.208Z" fill="#ECF7FF"/>
<path d="M114.5 5L101.5 16.5L92 5L82.5 16.5L71 5L59.5 16.5L50 5L38.5 16.5L28 5L16 16.5L2 5V137.208C2 145.347 5.47099 153.099 11.5419 158.52V158.52C14.4131 161.083 18.1275 162.5 21.9765 162.5H114.5M114.5 5V80.5M114.5 5V162.5M114.5 162.5L121.232 159.263C133.01 153.601 140.5 141.689 140.5 128.621V80.5H114.5M114.5 162.5V80.5" stroke="#9EB0C6" stroke-width="4"/>
<path d="M46 84H97M46 104.5H97M46 124.5H97" stroke="#9EB0C6" stroke-width="4"/>
<path d="M22 84H33" stroke="#9EB0C6" stroke-width="4"/>
<path d="M22 48H33" stroke="#9EB0C6" stroke-width="4"/>
<path d="M82 48H93" stroke="#9EB0C6" stroke-width="4"/>
<path d="M22 125H33" stroke="#9EB0C6" stroke-width="4"/>
<path d="M22 104H33" stroke="#9EB0C6" stroke-width="4"/>
<path d="M46 57L50.1842 62.4395C53.0918 66.2194 58.8142 66.1489 61.6279 62.2986V62.2986C63.8182 59.3014 63.3514 55.1268 60.5533 52.6875L50.8559 44.2333C48.0785 41.812 47.5296 37.7056 49.5734 34.6399V34.6399C52.559 30.1615 59.1916 30.3193 61.9608 34.9346L63.5 37.5" stroke="#9EB0C6" stroke-width="4"/>
<path d="M56 25V71.5" stroke="#9EB0C6" stroke-width="4"/>
<path d="M116.5 82.5H138.5V125.5V130.5L138 135L136.5 140L135.5 142.5L134 145L132.5 147.5L129.5 151L127 153.5L123.5 156L116.5 159.346V82.5Z" fill="#91B3D0"/>
</svg>
