<svg width="20" height="20" viewBox="0 0 20 20" fill="none" xmlns="http://www.w3.org/2000/svg">
<g clip-path="url(#clip0)">
<path d="M18.9223 8.90086C19.1761 8.39602 19.3092 7.83656 19.3092 7.26707C19.3092 5.26055 17.6768 3.62809 15.6702 3.62809C15.0281 3.62809 14.4304 3.7734 13.9091 4.05277C13.5803 2.19594 11.9547 0.78125 10.005 0.78125C8.63824 0.78125 7.38906 1.47355 6.66359 2.61051C6.20836 2.43332 5.72801 2.34375 5.23098 2.34375C3.04477 2.34375 1.26613 4.12238 1.26613 6.30859C1.26613 7.03965 1.46031 7.73707 1.83152 8.35121C0.71918 8.95574 0 10.1367 0 11.4258C0 13.3536 1.56832 14.9219 3.49609 14.9219C3.56949 14.9219 3.64324 14.9195 3.71699 14.9148C4.05746 15.7717 4.69879 16.4996 5.51367 16.9426C5.7032 17.0457 5.94039 16.9756 6.04344 16.786C6.14648 16.5964 6.07637 16.3593 5.88684 16.2563C5.1548 15.8583 4.59719 15.1744 4.35691 14.3799C4.30047 14.1932 4.11504 14.0767 3.92215 14.1071C3.78109 14.1293 3.63773 14.1406 3.49609 14.1406C1.99914 14.1406 0.78125 12.9227 0.78125 11.4258C0.78125 10.2953 1.49328 9.27199 2.55312 8.87934C2.67016 8.83602 2.75941 8.73934 2.79332 8.61926C2.82727 8.49918 2.80176 8.37012 2.72477 8.27191C2.28164 7.70715 2.04742 7.02824 2.04742 6.30855C2.04742 4.55312 3.47555 3.12496 5.23102 3.12496C5.73035 3.12496 6.2084 3.23738 6.65199 3.4591C6.84328 3.55477 7.07578 3.47879 7.17379 3.28883C7.72309 2.22402 8.80797 1.5625 10.005 1.5625C11.7604 1.5625 13.1886 2.99066 13.1886 4.74609C13.1886 4.89805 13.2767 5.03621 13.4145 5.10027C13.5522 5.16434 13.7146 5.14266 13.8309 5.0448C14.3243 4.62902 14.9603 4.4093 15.6702 4.4093C17.246 4.4093 18.528 5.69125 18.528 7.26703C18.528 7.78699 18.3868 8.29605 18.1198 8.73922C18.0336 8.88238 18.048 9.06449 18.1555 9.19238C18.8412 10.007 19.2188 11.0427 19.2188 12.1086C19.2188 14.6076 17.1857 16.6406 14.6867 16.6406C14.3534 16.6406 14.0196 16.6038 13.6946 16.531C13.564 16.5018 13.4277 16.5414 13.3331 16.636L12.084 17.8851V16.8637C12.084 16.7382 12.0238 16.6204 11.9221 16.547C11.8204 16.4735 11.6896 16.4535 11.5706 16.4928C10.8231 16.7405 9.99668 16.6714 9.30336 16.3034C9.11273 16.2023 8.87629 16.2748 8.7752 16.4654C8.67406 16.6559 8.74656 16.8924 8.93711 16.9935C9.66152 17.378 10.5 17.5056 11.3028 17.3639V18.8281C11.3028 18.9861 11.398 19.1286 11.5439 19.189C11.5922 19.209 11.643 19.2188 11.6933 19.2188C11.795 19.2188 11.8949 19.1791 11.9696 19.1043L13.7374 17.3366C14.0503 17.3932 14.3687 17.4219 14.6867 17.4219C17.6165 17.4219 20 15.0383 20 12.1086C20 10.9495 19.619 9.82063 18.9223 8.90086Z" fill="white"/>
<path d="M7.49032 4.6875C7.27457 4.6875 7.09969 4.86242 7.09969 5.07812V6.3473H5.50215V5.07812C5.50215 4.86242 5.32727 4.6875 5.11153 4.6875C4.89578 4.6875 4.7209 4.86242 4.7209 5.07812V8.51562C4.7209 8.73137 4.89578 8.90625 5.11153 8.90625C5.32727 8.90625 5.50215 8.73137 5.50215 8.51562V7.12855H7.09969V8.51562C7.09969 8.73137 7.27457 8.90625 7.49032 8.90625C7.70606 8.90625 7.88094 8.73137 7.88094 8.51562V5.07812C7.88094 4.86242 7.70606 4.6875 7.49032 4.6875Z" fill="white"/>
<path d="M14.3467 14.721C15.3565 14.7034 16.0894 13.8168 16.0894 12.6128C16.0894 11.3518 15.3749 10.5045 14.3114 10.5045H13.3385C13.1227 10.5045 12.9478 10.6794 12.9478 10.8951V14.3304C12.9478 14.5451 13.1211 14.7196 13.3359 14.721C13.3554 14.7212 14.2512 14.7227 14.3467 14.721ZM13.7291 11.2858H14.3114C15.0463 11.2858 15.3081 11.9713 15.3081 12.6128C15.3081 13.2438 15.003 13.9282 14.333 13.94C14.1962 13.9423 13.9447 13.9424 13.7291 13.9417V11.2858Z" fill="white"/>
<path d="M10.3638 8.0401H9.36531C9.14957 8.0401 8.97469 8.21498 8.97469 8.43072V11.8682C8.97469 11.9721 9.01609 12.0717 9.08973 12.145C9.16293 12.2179 9.26203 12.2588 9.36531 12.2588H9.36707C9.37625 12.2588 10.2886 12.2547 10.5382 12.2547C11.2638 12.2547 11.8541 11.6645 11.8541 10.9389C11.8541 10.5128 11.6504 10.1336 11.3354 9.89298C11.4677 9.7022 11.5454 9.47092 11.5454 9.2217C11.5454 8.57014 11.0154 8.0401 10.3638 8.0401ZM9.75594 8.82135H10.3638C10.5846 8.82135 10.7642 9.00096 10.7642 9.22166C10.7642 9.4424 10.5846 9.62201 10.3638 9.62201H9.75594V8.82135ZM10.5382 11.4735C10.3955 11.4735 10.0391 11.4748 9.75598 11.476V10.4037C10.0285 10.404 10.3719 10.4043 10.5382 10.4043C10.833 10.4043 11.0728 10.6441 11.0728 10.9389C11.0728 11.2336 10.833 11.4735 10.5382 11.4735Z" fill="white"/>
<path d="M7.40469 16.6406C7.30157 16.6406 7.20118 16.6824 7.12852 16.7551C7.05548 16.8277 7.01407 16.9285 7.01407 17.0312C7.01407 17.134 7.05548 17.2348 7.12852 17.3074C7.20118 17.38 7.30157 17.4219 7.40469 17.4219C7.50743 17.4219 7.60782 17.3801 7.68087 17.3074C7.75352 17.2348 7.79532 17.134 7.79532 17.0312C7.79532 16.9285 7.75352 16.8277 7.68087 16.7551C7.60782 16.6824 7.50743 16.6406 7.40469 16.6406Z" fill="white"/>
</g>
<defs>
<clipPath id="clip0">
<rect width="20" height="20" fill="white"/>
</clipPath>
</defs>
</svg>
