<svg width="10" height="30" viewBox="0 0 10 30" fill="none" xmlns="http://www.w3.org/2000/svg">
<path d="M5 10.6452C7.76389 10.6452 10 12.5927 10 15C10 17.4073 7.76389 19.3548 5 19.3548C2.23611 19.3548 0 17.4073 0 15C0 12.5927 2.23611 10.6452 5 10.6452ZM0 4.35484C0 6.7621 2.23611 8.70968 5 8.70968C7.76389 8.70968 10 6.7621 10 4.35484C10 1.94758 7.76389 0 5 0C2.23611 0 0 1.94758 0 4.35484ZM0 25.6452C0 28.0524 2.23611 30 5 30C7.76389 30 10 28.0524 10 25.6452C10 23.2379 7.76389 21.2903 5 21.2903C2.23611 21.2903 0 23.2379 0 25.6452Z" fill="white"/>
</svg>
