<svg width="30" height="30" viewBox="0 0 30 30" fill="none" xmlns="http://www.w3.org/2000/svg">
<path d="M9.64286 30H3.21429C1.43973 30 0 28.5603 0 26.7857V3.21429C0 1.43973 1.43973 0 3.21429 0H9.64286C11.4174 0 12.8571 1.43973 12.8571 3.21429V26.7857C12.8571 28.5603 11.4174 30 9.64286 30ZM30 26.7857V3.21429C30 1.43973 28.5603 0 26.7857 0H20.3571C18.5826 0 17.1429 1.43973 17.1429 3.21429V26.7857C17.1429 28.5603 18.5826 30 20.3571 30H26.7857C28.5603 30 30 28.5603 30 26.7857Z" fill="white"/>
</svg>
