<svg width="31" height="40" viewBox="0 0 31 40" fill="none" xmlns="http://www.w3.org/2000/svg">
<path d="M21.7 23.75C19.7141 23.75 18.7592 25 15.5 25C12.2408 25 11.2929 23.75 9.3 23.75C4.16562 23.75 0 28.4531 0 34.25V36.25C0 38.3203 1.48772 40 3.32143 40H27.6786C29.5123 40 31 38.3203 31 36.25V34.25C31 28.4531 26.8344 23.75 21.7 23.75ZM27.6786 36.25H3.32143V34.25C3.32143 30.5312 6.00625 27.5 9.3 27.5C10.3103 27.5 11.9502 28.75 15.5 28.75C19.0775 28.75 20.6828 27.5 21.7 27.5C24.9937 27.5 27.6786 30.5312 27.6786 34.25V36.25ZM15.5 22.5C21.0011 22.5 25.4643 17.4609 25.4643 11.25C25.4643 5.03906 21.0011 0 15.5 0C9.99888 0 5.53571 5.03906 5.53571 11.25C5.53571 17.4609 9.99888 22.5 15.5 22.5ZM15.5 3.75C19.1605 3.75 22.1429 7.11719 22.1429 11.25C22.1429 15.3828 19.1605 18.75 15.5 18.75C11.8395 18.75 8.85714 15.3828 8.85714 11.25C8.85714 7.11719 11.8395 3.75 15.5 3.75Z" fill="white"/>
</svg>
