<svg width="30" height="30" viewBox="0 0 30 30" fill="none" xmlns="http://www.w3.org/2000/svg">
<path d="M16.7992 0.550081L9.84844 7.50005H1.875C0.839063 7.50005 0 8.33911 0 9.37505V20.625C0 21.6602 0.839063 22.5 1.875 22.5H9.84844L16.7992 29.4492C17.9734 30.6234 20 29.7984 20 28.1234V1.87664C20 0.199301 17.9719 -0.621789 16.7992 0.550081V0.550081ZM26.4242 8.9938C25.5195 8.49927 24.3781 8.82505 23.8766 9.73208C23.3773 10.6391 23.7078 11.7789 24.6148 12.2797C25.6234 12.8344 26.25 13.8766 26.25 15C26.25 16.1235 25.6234 17.1656 24.6156 17.7195C23.7086 18.2203 23.3781 19.3602 23.8773 20.2672C24.3797 21.1781 25.5219 21.5016 26.425 21.0055C28.6305 19.7906 30.0008 17.4899 30.0008 14.9992C30.0008 12.5086 28.6305 10.2086 26.4242 8.9938Z" fill="white"/>
</svg>
