<svg width="25" height="25" viewBox="0 0 25 25" fill="none" xmlns="http://www.w3.org/2000/svg">
<path d="M0 22.6562C0 23.9502 1.19978 25 2.67857 25H22.3214C23.8002 25 25 23.9502 25 22.6562V9.375H0V22.6562ZM3.57143 13.2812C3.57143 12.8516 3.97321 12.5 4.46429 12.5H20.5357C21.0268 12.5 21.4286 12.8516 21.4286 13.2812V16.4062C21.4286 16.8359 21.0268 17.1875 20.5357 17.1875H4.46429C3.97321 17.1875 3.57143 16.8359 3.57143 16.4062V13.2812ZM22.3214 3.125H19.6429V0.78125C19.6429 0.351562 19.2411 0 18.75 0H16.9643C16.4732 0 16.0714 0.351562 16.0714 0.78125V3.125H8.92857V0.78125C8.92857 0.351562 8.52679 0 8.03571 0H6.25C5.75893 0 5.35714 0.351562 5.35714 0.78125V3.125H2.67857C1.19978 3.125 0 4.1748 0 5.46875V7.8125H25V5.46875C25 4.1748 23.8002 3.125 22.3214 3.125Z" fill="#D8C795"/>
</svg>
