<svg width="442" height="276" viewBox="0 0 442 276" fill="none" xmlns="http://www.w3.org/2000/svg">
<g filter="url(#filter0_d)">
<mask id="mask0" style="mask-type:alpha" maskUnits="userSpaceOnUse" x="6" y="0" width="434" height="268">
<rect x="6" width="434" height="267.958" rx="10" fill="url(#paint0_linear)"/>
</mask>
<g mask="url(#mask0)">
<g filter="url(#filter1_d)">
<rect x="6" width="434" height="267.958" rx="10" fill="url(#paint1_linear)"/>
<g filter="url(#filter2_d)">
<path d="M287.739 102.59L424.412 10.5027C431.054 6.02735 440 10.7867 440 18.7959V257.958C440 263.481 435.523 267.958 430 267.958H241.6L287.739 102.59Z" fill="#FF4A4A"/>
</g>
<g filter="url(#filter3_d)">
<path d="M249.35 0H430C435.523 0 440 4.47715 440 10V257.958C440 263.481 435.523 267.958 430 267.958H347L249.35 0Z" fill="#FF6161"/>
</g>
</g>
<rect x="32.3501" y="84.2157" width="55.8" height="44.4045" rx="4" fill="#EAD5A3"/>
<line x1="32.35" y1="99.0273" x2="46.3" y2="99.0273" stroke="#91876F"/>
<line x1="52.5001" y1="94.4338" x2="66.4501" y2="94.4338" stroke="#91876F"/>
<line x1="61.3" y1="94.9338" x2="61.3" y2="84.2155" stroke="#91876F"/>
<line x1="61.3" y1="128.62" x2="61.3" y2="117.902" stroke="#91876F"/>
<line x1="74.2" y1="99.0273" x2="88.15" y2="99.0273" stroke="#91876F"/>
<line x1="32.35" y1="106.683" x2="46.3" y2="106.683" stroke="#91876F"/>
<line x1="46.8" y1="94.9338" x2="46.8" y2="116.371" stroke="#91876F"/>
<path d="M73.425 96.4651L73.425 116.371" stroke="#91876F"/>
<line x1="74.2" y1="106.684" x2="88.15" y2="106.684" stroke="#91876F"/>
<line x1="32.35" y1="114.339" x2="46.3" y2="114.339" stroke="#91876F"/>
<line x1="52.5001" y1="117.402" x2="66.4501" y2="117.402" stroke="#91876F"/>
<line x1="74.2" y1="114.339" x2="88.15" y2="114.339" stroke="#91876F"/>
<path d="M47.075 95.6994V94.9338L49.4 94.1682H52.5" stroke="#91876F"/>
<path d="M73.425 97.2308L73.4076 95.6314L70.4731 94.2011L65.6751 94.1684" stroke="#91876F"/>
<path d="M47.075 114.839L47.075 116.371L50.95 117.136L54.825 117.136" stroke="#91876F"/>
<path d="M73.4251 114.839L73.4251 116.371L68.7751 117.136L64.9001 117.136" stroke="#91876F"/>
<path d="M34.5473 46.2173H33.4223V37.6861H34.5473V46.2173ZM43.1664 46.2173H42.0356L37.7406 39.6431V46.2173H36.6098V37.6861H37.7406L42.0473 44.2896V37.6861H43.1664V46.2173ZM47.9887 44.7232L50.4262 37.6861H51.6566L48.4926 46.2173H47.4965L44.3383 37.6861H45.5629L47.9887 44.7232ZM57.6273 42.274H53.9301V45.2974H58.225V46.2173H52.8051V37.6861H58.1664V38.6119H53.9301V41.3541H57.6273V42.274ZM62.1391 42.4146C61.1742 42.1373 60.4711 41.7974 60.0297 41.3951C59.5922 40.9888 59.3734 40.4888 59.3734 39.8951C59.3734 39.2232 59.641 38.6685 60.1762 38.231C60.7152 37.7896 61.4145 37.5689 62.2738 37.5689C62.8598 37.5689 63.3813 37.6822 63.8383 37.9088C64.2992 38.1353 64.6547 38.4478 64.9047 38.8463C65.1586 39.2447 65.2856 39.6802 65.2856 40.1529H64.1547C64.1547 39.6373 63.9906 39.233 63.6625 38.94C63.3344 38.6431 62.8715 38.4947 62.2738 38.4947C61.7191 38.4947 61.2856 38.6177 60.9731 38.8638C60.6645 39.106 60.5102 39.4439 60.5102 39.8775C60.5102 40.2252 60.6566 40.5201 60.9496 40.7623C61.2465 41.0005 61.7484 41.2193 62.4555 41.4185C63.1664 41.6177 63.7211 41.8384 64.1195 42.0806C64.5219 42.3189 64.8188 42.5982 65.0102 42.9185C65.2055 43.2388 65.3031 43.6158 65.3031 44.0494C65.3031 44.7408 65.0336 45.2955 64.4945 45.7134C63.9555 46.1275 63.2348 46.3345 62.3324 46.3345C61.7465 46.3345 61.1996 46.2232 60.6918 46.0005C60.184 45.774 59.7914 45.4654 59.5141 45.0748C59.2406 44.6841 59.1039 44.2408 59.1039 43.7447H60.2348C60.2348 44.2603 60.4242 44.6685 60.8031 44.9693C61.1859 45.2662 61.6957 45.4146 62.3324 45.4146C62.9262 45.4146 63.3813 45.2935 63.6977 45.0513C64.0141 44.8091 64.1723 44.4791 64.1723 44.0611C64.1723 43.6431 64.0258 43.3209 63.7328 43.0943C63.4398 42.8638 62.9086 42.6373 62.1391 42.4146ZM72.6449 38.6119H69.9027V46.2173H68.7836V38.6119H66.0473V37.6861H72.6449V38.6119ZM80.309 42.2271C80.309 43.063 80.1684 43.7935 79.8871 44.4185C79.6059 45.0396 79.2074 45.5142 78.6918 45.8423C78.1762 46.1705 77.5746 46.3345 76.8871 46.3345C76.2152 46.3345 75.6195 46.1705 75.1 45.8423C74.5805 45.5103 74.1762 45.0396 73.8871 44.4302C73.602 43.817 73.4555 43.108 73.4477 42.3033V41.688C73.4477 40.8677 73.5902 40.1431 73.8754 39.5142C74.1606 38.8853 74.5629 38.4048 75.0824 38.0728C75.6059 37.7369 76.2035 37.5689 76.8754 37.5689C77.559 37.5689 78.1606 37.7349 78.6801 38.067C79.2035 38.3951 79.6059 38.8736 79.8871 39.5025C80.1684 40.1275 80.309 40.856 80.309 41.688V42.2271ZM79.1898 41.6763C79.1898 40.6646 78.9867 39.8892 78.5805 39.3502C78.1742 38.8072 77.6059 38.5357 76.8754 38.5357C76.1645 38.5357 75.6039 38.8072 75.1938 39.3502C74.7875 39.8892 74.5785 40.6392 74.5668 41.6002V42.2271C74.5668 43.2076 74.7719 43.9791 75.182 44.5416C75.5961 45.1002 76.1645 45.3795 76.8871 45.3795C77.6137 45.3795 78.1762 45.1158 78.5746 44.5884C78.9731 44.0572 79.1781 43.2974 79.1898 42.3091V41.6763ZM85.1254 42.7662H83.1215V46.2173H81.9906V37.6861H84.8148C85.7758 37.6861 86.5141 37.9048 87.0297 38.3423C87.5492 38.7798 87.809 39.4166 87.809 40.2525C87.809 40.7838 87.6645 41.2466 87.3754 41.6412C87.0902 42.0357 86.6918 42.3306 86.1801 42.5259L88.184 46.147V46.2173H86.977L85.1254 42.7662ZM83.1215 41.8463H84.85C85.4086 41.8463 85.852 41.7017 86.1801 41.4127C86.5121 41.1236 86.6781 40.7369 86.6781 40.2525C86.6781 39.7252 86.5199 39.3209 86.2035 39.0396C85.891 38.7584 85.4379 38.6158 84.8441 38.6119H83.1215V41.8463Z" fill="white"/>
<path d="M368.7 42.1077V53.5916V65.0755L378 73.4971V64.31V54.3572L389.625 64.31L400.475 53.5916V74.2627L410.55 63.5444V41.3421L403.575 35.2173L389.625 48.998L375.675 35.2173L368.7 42.1077Z" stroke="#FFFBFB"/>
<path d="M375.675 35.9838L382.65 42.8742L389.625 49.7645L403.575 35.9838L410.55 41.343V45.171L409.775 63.5453L401.25 72.7324L400.475 62.7797L401.25 52.0613L396.445 56.7921L389.625 63.5453L377.225 53.5925V60.4829V72.4351L374.9 70.4356L372.575 68.1388L368.7 65.0765L369.475 47.4678V42.1086L375.675 35.9838Z" fill="#FFFAFA"/>
<path d="M122.666 117.298C124.718 116.772 126.556 115.438 127.877 113.516C129.199 111.594 129.924 109.199 129.933 106.727C129.942 104.254 129.234 101.852 127.927 99.9176C126.62 97.9827 124.792 96.6305 122.743 96.0843L122.2 98.9049C123.703 99.3057 125.045 100.298 126.004 101.718C126.964 103.138 127.483 104.9 127.476 106.715C127.469 108.529 126.937 110.286 125.968 111.697C124.998 113.107 123.649 114.087 122.143 114.473L122.666 117.298Z" fill="#C4C4C4"/>
<path d="M129.157 121.701C131.218 120.937 133.065 119.002 134.392 116.216C135.72 113.43 136.449 109.959 136.459 106.376C136.469 102.793 135.76 99.3119 134.448 96.5084C133.137 93.7048 131.301 91.7461 129.245 90.9555L128.787 94.3758C130.386 94.9903 131.813 96.5129 132.832 98.6921C133.852 100.871 134.403 103.577 134.395 106.362C134.387 109.147 133.821 111.846 132.789 114.011C131.757 116.177 130.321 117.681 128.719 118.275L129.157 121.701Z" fill="#C4C4C4"/>
<path d="M134.649 126.602C136.83 125.6 138.785 123.061 140.19 119.405C141.596 115.749 142.368 111.195 142.38 106.494C142.391 101.794 141.642 97.2276 140.254 93.5499C138.867 89.8723 136.925 87.303 134.748 86.2664L134.274 90.6532C135.977 91.4642 137.496 93.4741 138.582 96.3512C139.667 99.2282 140.254 102.8 140.244 106.478C140.235 110.155 139.631 113.718 138.531 116.578C137.432 119.438 135.903 121.424 134.196 122.208L134.649 126.602Z" fill="#C4C4C4"/>
<path d="M117.388 112.519C118.768 112.238 120.005 111.527 120.893 110.502C121.782 109.477 122.269 108.2 122.275 106.882C122.281 105.563 121.805 104.282 120.925 103.25C120.045 102.218 118.815 101.496 117.437 101.205L117.072 102.709C118.083 102.923 118.986 103.452 119.631 104.21C120.277 104.967 120.627 105.907 120.622 106.875C120.618 107.842 120.26 108.78 119.608 109.532C118.956 110.284 118.049 110.806 117.036 111.011L117.388 112.519Z" fill="#C4C4C4"/>
<ellipse cx="387.3" cy="234.272" rx="13.95" ry="13.7807" fill="#EB001B"/>
<ellipse cx="404.35" cy="234.272" rx="13.95" ry="13.7807" fill="#FF9A1D"/>
<path d="M37.502 213.313C37.502 213.393 37.4857 213.456 37.453 213.502C37.425 213.549 37.383 213.586 37.327 213.614C37.271 213.638 37.2057 213.654 37.131 213.663C37.0563 213.673 36.9747 213.677 36.886 213.677C36.7693 213.677 36.662 213.668 36.564 213.649C36.466 213.631 36.389 213.579 36.333 213.495H34.66V214.888H35.486C35.542 214.809 35.619 214.76 35.717 214.741C35.8197 214.723 35.9247 214.713 36.032 214.713H36.228C36.3213 214.718 36.396 214.737 36.452 214.769C36.508 214.797 36.55 214.839 36.578 214.895C36.6107 214.951 36.6317 215.019 36.641 215.098C36.6503 215.173 36.655 215.259 36.655 215.357C36.655 215.511 36.641 215.633 36.613 215.721C36.585 215.805 36.5407 215.868 36.48 215.91C36.424 215.948 36.3517 215.971 36.263 215.98C36.1743 215.99 36.0693 215.994 35.948 215.994H35.822C35.752 215.99 35.689 215.976 35.633 215.952C35.577 215.924 35.5303 215.885 35.493 215.833H34.66V217.499H36.326C36.3913 217.397 36.5033 217.343 36.662 217.338C36.7553 217.334 36.823 217.331 36.865 217.331C36.907 217.331 36.9747 217.331 37.068 217.331C37.166 217.341 37.243 217.364 37.299 217.401C37.355 217.434 37.397 217.478 37.425 217.534C37.453 217.59 37.4693 217.656 37.474 217.73C37.4833 217.805 37.488 217.884 37.488 217.968V218.094C37.488 218.183 37.4647 218.251 37.418 218.297C37.376 218.344 37.3177 218.377 37.243 218.395C37.173 218.419 37.089 218.433 36.991 218.437C36.8977 218.442 36.802 218.444 36.704 218.444H33.778C33.6753 218.444 33.596 218.426 33.54 218.388C33.484 218.356 33.442 218.309 33.414 218.248C33.386 218.188 33.3697 218.115 33.365 218.031C33.3603 217.947 33.358 217.859 33.358 217.765C33.3673 217.644 33.4187 217.553 33.512 217.492V213.523C33.442 213.472 33.3977 213.409 33.379 213.334C33.365 213.255 33.358 213.169 33.358 213.075C33.358 213.005 33.3627 212.94 33.372 212.879C33.3813 212.819 33.4 212.765 33.428 212.718C33.4607 212.672 33.505 212.634 33.561 212.606C33.617 212.578 33.6893 212.564 33.778 212.564H37.089C37.3643 212.564 37.502 212.683 37.502 212.921V213.313ZM43.574 218.094C43.574 218.202 43.539 218.286 43.469 218.346C43.399 218.407 43.2963 218.437 43.161 218.437H43.042C42.972 218.442 42.9066 218.444 42.846 218.444C42.7853 218.444 42.7223 218.444 42.657 218.444H42.475C42.3536 218.444 42.258 218.414 42.188 218.353C42.1226 218.297 42.0853 218.216 42.076 218.108V217.779C42.076 217.742 42.0853 217.7 42.104 217.653L41.376 216.505L40.676 217.639C40.69 217.667 40.6993 217.705 40.704 217.751C40.7086 217.798 40.711 217.84 40.711 217.877V217.94C40.711 218.066 40.6946 218.164 40.662 218.234C40.6293 218.304 40.5826 218.353 40.522 218.381C40.4613 218.414 40.3866 218.433 40.298 218.437C40.2093 218.447 40.109 218.451 39.997 218.451H39.962C39.808 218.451 39.682 218.444 39.584 218.43C39.486 218.421 39.4066 218.398 39.346 218.36C39.29 218.328 39.2503 218.276 39.227 218.206C39.2083 218.136 39.199 218.045 39.199 217.933C39.199 217.826 39.2106 217.728 39.234 217.639C39.2573 217.551 39.332 217.488 39.458 217.45L40.711 215.497L39.416 213.537C39.3226 213.5 39.262 213.444 39.234 213.369C39.206 213.29 39.192 213.187 39.192 213.061C39.192 213.001 39.1943 212.94 39.199 212.879C39.2083 212.819 39.227 212.767 39.255 212.725C39.283 212.679 39.3226 212.641 39.374 212.613C39.43 212.585 39.5023 212.571 39.591 212.571H39.612C39.696 212.571 39.7683 212.569 39.829 212.564C39.8896 212.56 39.9526 212.557 40.018 212.557C40.158 212.557 40.27 212.564 40.354 212.578C40.4426 212.592 40.5126 212.62 40.564 212.662C40.6153 212.7 40.6503 212.751 40.669 212.816C40.6876 212.882 40.697 212.963 40.697 213.061C40.697 213.099 40.6946 213.152 40.69 213.222C40.6853 213.292 40.6713 213.348 40.648 213.39L41.376 214.531L42.118 213.397C42.0946 213.36 42.0806 213.318 42.076 213.271C42.0713 213.22 42.069 213.171 42.069 213.124V213.061C42.069 212.991 42.0713 212.928 42.076 212.872C42.0853 212.812 42.104 212.76 42.132 212.718C42.16 212.672 42.1996 212.637 42.251 212.613C42.3023 212.585 42.3723 212.571 42.461 212.571H42.482C42.566 212.571 42.6383 212.569 42.699 212.564C42.7596 212.56 42.8226 212.557 42.888 212.557C43.1446 212.557 43.322 212.59 43.42 212.655C43.5226 212.721 43.574 212.851 43.574 213.047C43.574 213.145 43.5623 213.241 43.539 213.334C43.5203 213.428 43.4573 213.495 43.35 213.537L42.048 215.511L43.322 217.464C43.4293 217.502 43.4993 217.562 43.532 217.646C43.5646 217.73 43.581 217.828 43.581 217.94C43.581 217.964 43.5786 217.987 43.574 218.01C43.574 218.029 43.574 218.057 43.574 218.094ZM48.5453 214.209C48.5453 213.967 48.4659 213.789 48.3073 213.677C48.1486 213.565 47.9083 213.509 47.5863 213.509H46.8443V214.895H47.6493C47.9853 214.895 48.2186 214.837 48.3493 214.72C48.4799 214.604 48.5453 214.433 48.5453 214.209ZM49.7003 214.188C49.7003 214.515 49.6419 214.786 49.5253 215C49.4133 215.21 49.2639 215.378 49.0773 215.504C48.8906 215.626 48.6783 215.712 48.4403 215.763C48.2069 215.81 47.9689 215.833 47.7263 215.833H46.8443V217.464C46.9656 217.525 47.0263 217.625 47.0263 217.765V217.807C47.0309 217.859 47.0333 217.901 47.0333 217.933C47.0333 217.966 47.0379 218.015 47.0473 218.08C47.0379 218.16 47.0123 218.225 46.9703 218.276C46.9329 218.323 46.8839 218.358 46.8233 218.381C46.7626 218.409 46.6926 218.428 46.6133 218.437C46.5339 218.447 46.4523 218.451 46.3683 218.451C46.1536 218.451 45.9879 218.442 45.8713 218.423C45.7546 218.409 45.6683 218.377 45.6123 218.325C45.5609 218.279 45.5306 218.211 45.5213 218.122C45.5119 218.029 45.5073 217.91 45.5073 217.765C45.5119 217.635 45.5726 217.537 45.6893 217.471V213.544C45.6053 213.498 45.5539 213.435 45.5353 213.355C45.5166 213.271 45.5073 213.183 45.5073 213.089C45.5073 213.019 45.5119 212.954 45.5213 212.893C45.5306 212.828 45.5493 212.772 45.5773 212.725C45.6099 212.679 45.6519 212.641 45.7033 212.613C45.7593 212.585 45.8316 212.571 45.9203 212.571H47.3413C47.7426 212.571 48.0903 212.599 48.3843 212.655C48.6829 212.711 48.9279 212.802 49.1193 212.928C49.3153 213.054 49.4599 213.222 49.5533 213.432C49.6513 213.638 49.7003 213.89 49.7003 214.188ZM52.1614 217.268C52.25 217.268 52.32 217.285 52.3714 217.317C52.4274 217.35 52.4694 217.392 52.4974 217.443C52.5254 217.495 52.5417 217.555 52.5464 217.625C52.5557 217.691 52.5604 217.761 52.5604 217.835C52.5604 217.985 52.5487 218.101 52.5254 218.185C52.502 218.265 52.4624 218.323 52.4064 218.36C52.3504 218.398 52.2757 218.421 52.1824 218.43C52.0937 218.44 51.9817 218.444 51.8464 218.444H51.7624C51.585 218.444 51.4427 218.435 51.3354 218.416C51.228 218.402 51.1464 218.374 51.0904 218.332C51.0344 218.29 50.997 218.234 50.9784 218.164C50.9644 218.094 50.9574 218.003 50.9574 217.891C50.9574 217.737 50.969 217.618 50.9924 217.534C51.0204 217.45 51.0624 217.39 51.1184 217.352C51.1744 217.31 51.2467 217.285 51.3354 217.275C51.424 217.266 51.5314 217.261 51.6574 217.261H51.7624C51.823 217.261 51.8837 217.264 51.9444 217.268C52.0097 217.268 52.082 217.268 52.1614 217.268ZM62.3165 213.313C62.3165 213.393 62.3001 213.456 62.2675 213.502C62.2395 213.549 62.1975 213.586 62.1415 213.614C62.0855 213.638 62.0201 213.654 61.9455 213.663C61.8708 213.673 61.7891 213.677 61.7005 213.677C61.5838 213.677 61.4765 213.668 61.3785 213.649C61.2805 213.631 61.2035 213.579 61.1475 213.495H59.4745V214.888H60.3005C60.3565 214.809 60.4335 214.76 60.5315 214.741C60.6341 214.723 60.7391 214.713 60.8465 214.713H61.0425C61.1358 214.718 61.2105 214.737 61.2665 214.769C61.3225 214.797 61.3645 214.839 61.3925 214.895C61.4251 214.951 61.4461 215.019 61.4555 215.098C61.4648 215.173 61.4695 215.259 61.4695 215.357C61.4695 215.511 61.4555 215.633 61.4275 215.721C61.3995 215.805 61.3551 215.868 61.2945 215.91C61.2385 215.948 61.1661 215.971 61.0775 215.98C60.9888 215.99 60.8838 215.994 60.7625 215.994H60.6365C60.5665 215.99 60.5035 215.976 60.4475 215.952C60.3915 215.924 60.3448 215.885 60.3075 215.833H59.4745V217.499H61.1405C61.2058 217.397 61.3178 217.343 61.4765 217.338C61.5698 217.334 61.6375 217.331 61.6795 217.331C61.7215 217.331 61.7891 217.331 61.8825 217.331C61.9805 217.341 62.0575 217.364 62.1135 217.401C62.1695 217.434 62.2115 217.478 62.2395 217.534C62.2675 217.59 62.2838 217.656 62.2885 217.73C62.2978 217.805 62.3025 217.884 62.3025 217.968V218.094C62.3025 218.183 62.2791 218.251 62.2325 218.297C62.1905 218.344 62.1321 218.377 62.0575 218.395C61.9875 218.419 61.9035 218.433 61.8055 218.437C61.7121 218.442 61.6165 218.444 61.5185 218.444H58.5925C58.4898 218.444 58.4105 218.426 58.3545 218.388C58.2985 218.356 58.2565 218.309 58.2285 218.248C58.2005 218.188 58.1841 218.115 58.1795 218.031C58.1748 217.947 58.1725 217.859 58.1725 217.765C58.1818 217.644 58.2331 217.553 58.3265 217.492V213.523C58.2565 213.472 58.2121 213.409 58.1935 213.334C58.1795 213.255 58.1725 213.169 58.1725 213.075C58.1725 213.005 58.1771 212.94 58.1865 212.879C58.1958 212.819 58.2145 212.765 58.2425 212.718C58.2751 212.672 58.3195 212.634 58.3755 212.606C58.4315 212.578 58.5038 212.564 58.5925 212.564H61.9035C62.1788 212.564 62.3165 212.683 62.3165 212.921V213.313ZM67.5624 213.537C67.4784 213.495 67.4224 213.432 67.3944 213.348C67.3711 213.264 67.3594 213.171 67.3594 213.068C67.3594 212.933 67.3874 212.816 67.4434 212.718C67.4994 212.616 67.6161 212.564 67.7934 212.564H68.4444C68.5937 212.564 68.6987 212.609 68.7594 212.697C68.8247 212.781 68.8574 212.891 68.8574 213.026C68.8574 213.096 68.8457 213.183 68.8224 213.285C68.8037 213.383 68.7547 213.465 68.6754 213.53V217.499C68.7454 217.551 68.7897 217.611 68.8084 217.681C68.8271 217.747 68.8364 217.819 68.8364 217.898C68.8364 217.968 68.8317 218.038 68.8224 218.108C68.8131 218.174 68.7944 218.232 68.7664 218.283C68.7384 218.33 68.6964 218.367 68.6404 218.395C68.5844 218.428 68.5097 218.444 68.4164 218.444H67.8004C67.6931 218.444 67.6114 218.426 67.5554 218.388C67.5041 218.351 67.4597 218.3 67.4224 218.234L65.4764 214.776V217.471C65.5697 217.513 65.6257 217.574 65.6444 217.653C65.6677 217.733 65.6794 217.824 65.6794 217.926C65.6794 218.076 65.6537 218.199 65.6024 218.297C65.5511 218.391 65.4367 218.437 65.2594 218.437H65.1614C65.1007 218.442 65.0471 218.444 65.0004 218.444C64.9584 218.444 64.9117 218.444 64.8604 218.444C64.6551 218.444 64.4941 218.423 64.3774 218.381C64.2607 218.344 64.1977 218.248 64.1884 218.094V218.038C64.1837 218.01 64.1814 217.985 64.1814 217.961C64.1814 217.933 64.1814 217.908 64.1814 217.884C64.1814 217.8 64.1907 217.726 64.2094 217.66C64.2281 217.59 64.2771 217.532 64.3564 217.485V213.523C64.2724 213.477 64.2211 213.411 64.2024 213.327C64.1884 213.243 64.1814 213.157 64.1814 213.068C64.1814 212.919 64.2071 212.798 64.2584 212.704C64.3097 212.611 64.4217 212.564 64.5944 212.564H65.2034C65.3107 212.574 65.3877 212.602 65.4344 212.648C65.4857 212.695 65.5301 212.744 65.5674 212.795L67.5694 216.309L67.5624 213.537ZM74.1213 215.315C74.1213 214.671 73.9953 214.209 73.7433 213.929C73.4913 213.649 73.118 213.509 72.6233 213.509H72.2243V217.506H72.7213C72.9266 217.506 73.1133 217.469 73.2813 217.394C73.454 217.315 73.601 217.191 73.7223 217.023C73.8483 216.851 73.9463 216.624 74.0163 216.344C74.0863 216.064 74.1213 215.721 74.1213 215.315ZM75.2973 215.28C75.2973 215.523 75.2786 215.77 75.2413 216.022C75.2086 216.27 75.1526 216.512 75.0733 216.75C74.9986 216.984 74.8983 217.203 74.7723 217.408C74.651 217.614 74.4993 217.793 74.3173 217.947C74.14 218.101 73.9323 218.223 73.6943 218.311C73.4563 218.4 73.1856 218.444 72.8823 218.444H71.3213C71.158 218.44 71.046 218.388 70.9853 218.29C70.9293 218.188 70.9013 218.055 70.9013 217.891C70.9013 217.812 70.9083 217.735 70.9223 217.66C70.941 217.586 70.99 217.525 71.0693 217.478V213.537C70.9853 213.491 70.934 213.428 70.9153 213.348C70.8966 213.264 70.8873 213.176 70.8873 213.082C70.8873 213.054 70.8873 213.029 70.8873 213.005C70.8873 212.977 70.8896 212.945 70.8943 212.907C70.9036 212.805 70.941 212.723 71.0063 212.662C71.0763 212.602 71.1766 212.569 71.3073 212.564H72.7493C73.23 212.564 73.6336 212.648 73.9603 212.816C74.287 212.98 74.5483 213.192 74.7443 213.453C74.945 213.715 75.0873 214.006 75.1713 214.328C75.2553 214.65 75.2973 214.968 75.2973 215.28ZM78.2852 217.639C78.2898 217.705 78.2922 217.784 78.2922 217.877C78.2922 217.966 78.2922 218.043 78.2922 218.108C78.2875 218.192 78.2642 218.258 78.2222 218.304C78.1848 218.351 78.1335 218.384 78.0682 218.402C78.0028 218.426 77.9212 218.44 77.8232 218.444C77.7298 218.449 77.6248 218.451 77.5082 218.451C77.3308 218.451 77.1885 218.444 77.0812 218.43C76.9785 218.421 76.8992 218.395 76.8432 218.353C76.7918 218.316 76.7592 218.26 76.7452 218.185C76.7312 218.106 76.7242 218.001 76.7242 217.87C76.7242 217.726 76.7358 217.614 76.7592 217.534C76.7872 217.455 76.8315 217.399 76.8922 217.366C76.9575 217.329 77.0392 217.308 77.1372 217.303C77.2352 217.294 77.3588 217.289 77.5082 217.289H77.6832C77.7532 217.289 77.8232 217.294 77.8932 217.303C77.9678 217.308 78.0332 217.322 78.0892 217.345C78.1498 217.369 78.1965 217.404 78.2292 217.45C78.2665 217.497 78.2852 217.56 78.2852 217.639ZM78.2852 215.49C78.2898 215.556 78.2922 215.635 78.2922 215.728C78.2922 215.817 78.2922 215.894 78.2922 215.959C78.2875 216.043 78.2665 216.109 78.2292 216.155C78.1965 216.202 78.1475 216.237 78.0822 216.26C78.0215 216.279 77.9468 216.291 77.8582 216.295C77.7742 216.3 77.6762 216.302 77.5642 216.302H77.5082C77.3308 216.302 77.1908 216.298 77.0882 216.288C76.9855 216.279 76.9062 216.256 76.8502 216.218C76.7988 216.176 76.7638 216.118 76.7452 216.043C76.7312 215.964 76.7242 215.857 76.7242 215.721C76.7242 215.581 76.7358 215.474 76.7592 215.399C76.7825 215.32 76.8222 215.262 76.8782 215.224C76.9342 215.182 77.0088 215.159 77.1022 215.154C77.1955 215.145 77.3122 215.14 77.4522 215.14H77.6412C77.7112 215.14 77.7835 215.145 77.8582 215.154C77.9375 215.159 78.0075 215.173 78.0682 215.196C78.1335 215.22 78.1848 215.255 78.2222 215.301C78.2642 215.348 78.2852 215.411 78.2852 215.49Z" fill="white"/>
</g>
</g>
<defs>
<filter id="filter0_d" x="0" y="0" width="442" height="275.958" filterUnits="userSpaceOnUse" color-interpolation-filters="sRGB">
<feFlood flood-opacity="0" result="BackgroundImageFix"/>
<feColorMatrix in="SourceAlpha" type="matrix" values="0 0 0 0 0 0 0 0 0 0 0 0 0 0 0 0 0 0 127 0" result="hardAlpha"/>
<feOffset dx="-2" dy="4"/>
<feGaussianBlur stdDeviation="2"/>
<feComposite in2="hardAlpha" operator="out"/>
<feColorMatrix type="matrix" values="0 0 0 0 0 0 0 0 0 0 0 0 0 0 0 0 0 0 0.25 0"/>
<feBlend mode="normal" in2="BackgroundImageFix" result="effect1_dropShadow"/>
<feBlend mode="normal" in="SourceGraphic" in2="effect1_dropShadow" result="shape"/>
</filter>
<filter id="filter1_d" x="-33" y="-39" width="520" height="353.958" filterUnits="userSpaceOnUse" color-interpolation-filters="sRGB">
<feFlood flood-opacity="0" result="BackgroundImageFix"/>
<feColorMatrix in="SourceAlpha" type="matrix" values="0 0 0 0 0 0 0 0 0 0 0 0 0 0 0 0 0 0 127 0" result="hardAlpha"/>
<feOffset dx="4" dy="4"/>
<feGaussianBlur stdDeviation="21.5"/>
<feComposite in2="hardAlpha" operator="out"/>
<feColorMatrix type="matrix" values="0 0 0 0 0 0 0 0 0 0 0 0 0 0 0 0 0 0 0.25 0"/>
<feBlend mode="normal" in2="BackgroundImageFix" result="effect1_dropShadow"/>
<feBlend mode="normal" in="SourceGraphic" in2="effect1_dropShadow" result="shape"/>
</filter>
<filter id="filter2_d" x="235.6" y="4.77893" width="206.4" height="267.18" filterUnits="userSpaceOnUse" color-interpolation-filters="sRGB">
<feFlood flood-opacity="0" result="BackgroundImageFix"/>
<feColorMatrix in="SourceAlpha" type="matrix" values="0 0 0 0 0 0 0 0 0 0 0 0 0 0 0 0 0 0 127 0" result="hardAlpha"/>
<feOffset dx="-2"/>
<feGaussianBlur stdDeviation="2"/>
<feComposite in2="hardAlpha" operator="out"/>
<feColorMatrix type="matrix" values="0 0 0 0 0 0 0 0 0 0 0 0 0 0 0 0 0 0 0.25 0"/>
<feBlend mode="normal" in2="BackgroundImageFix" result="effect1_dropShadow"/>
<feBlend mode="normal" in="SourceGraphic" in2="effect1_dropShadow" result="shape"/>
</filter>
<filter id="filter3_d" x="243.35" y="-4" width="198.65" height="275.958" filterUnits="userSpaceOnUse" color-interpolation-filters="sRGB">
<feFlood flood-opacity="0" result="BackgroundImageFix"/>
<feColorMatrix in="SourceAlpha" type="matrix" values="0 0 0 0 0 0 0 0 0 0 0 0 0 0 0 0 0 0 127 0" result="hardAlpha"/>
<feOffset dx="-2"/>
<feGaussianBlur stdDeviation="2"/>
<feComposite in2="hardAlpha" operator="out"/>
<feColorMatrix type="matrix" values="0 0 0 0 0 0 0 0 0 0 0 0 0 0 0 0 0 0 0.25 0"/>
<feBlend mode="normal" in2="BackgroundImageFix" result="effect1_dropShadow"/>
<feBlend mode="normal" in="SourceGraphic" in2="effect1_dropShadow" result="shape"/>
</filter>
<linearGradient id="paint0_linear" x1="6" y1="124.792" x2="440" y2="125.577" gradientUnits="userSpaceOnUse">
<stop offset="0.088479" stop-color="#222528"/>
<stop offset="0.469716" stop-color="#343A3F"/>
<stop offset="1" stop-color="#374653"/>
</linearGradient>
<linearGradient id="paint1_linear" x1="6" y1="124.792" x2="440" y2="125.577" gradientUnits="userSpaceOnUse">
<stop offset="0.088479" stop-color="#222528"/>
<stop offset="0.469716" stop-color="#343A3F"/>
<stop offset="1" stop-color="#374653"/>
</linearGradient>
</defs>
</svg>
