<svg width="434" height="268" viewBox="0 0 434 268" fill="none" xmlns="http://www.w3.org/2000/svg">
<g filter="url(#filter0_d)">
<rect width="434" height="267.958" rx="10" fill="url(#paint0_linear)"/>
<g filter="url(#filter1_d)">
<path d="M281.739 102.59L418.412 10.5027C425.054 6.02735 434 10.7867 434 18.7959V257.958C434 263.481 429.523 267.958 424 267.958H235.6L281.739 102.59Z" fill="#FF4A4A"/>
</g>
<g filter="url(#filter2_d)">
<path d="M243.35 0H424C429.523 0 434 4.47715 434 10V257.958C434 263.481 429.523 267.958 424 267.958H341L243.35 0Z" fill="#FF6161"/>
</g>
</g>
<rect x="26.3501" y="84.2157" width="55.8" height="44.4045" rx="4" fill="#EAD5A3"/>
<line x1="26.35" y1="99.0273" x2="40.3" y2="99.0273" stroke="#91876F"/>
<line x1="46.5001" y1="94.4338" x2="60.4501" y2="94.4338" stroke="#91876F"/>
<line x1="55.3" y1="94.9338" x2="55.3" y2="84.2155" stroke="#91876F"/>
<line x1="55.3" y1="128.62" x2="55.3" y2="117.902" stroke="#91876F"/>
<line x1="68.2" y1="99.0273" x2="82.15" y2="99.0273" stroke="#91876F"/>
<line x1="26.35" y1="106.683" x2="40.3" y2="106.683" stroke="#91876F"/>
<line x1="40.8" y1="94.9338" x2="40.8" y2="116.371" stroke="#91876F"/>
<path d="M67.425 96.4651L67.425 116.371" stroke="#91876F"/>
<line x1="68.2" y1="106.684" x2="82.15" y2="106.684" stroke="#91876F"/>
<line x1="26.35" y1="114.339" x2="40.3" y2="114.339" stroke="#91876F"/>
<line x1="46.5001" y1="117.402" x2="60.4501" y2="117.402" stroke="#91876F"/>
<line x1="68.2" y1="114.339" x2="82.15" y2="114.339" stroke="#91876F"/>
<path d="M41.075 95.6994V94.9338L43.4 94.1682H46.5" stroke="#91876F"/>
<path d="M67.425 97.2308L67.4075 95.6314L64.4731 94.2011L59.6751 94.1684" stroke="#91876F"/>
<path d="M41.075 114.839L41.075 116.371L44.95 117.136L48.825 117.136" stroke="#91876F"/>
<path d="M67.4251 114.839L67.4251 116.371L62.7751 117.136L58.9001 117.136" stroke="#91876F"/>
<path d="M28.5473 46.2173H27.4223V37.6861H28.5473V46.2173ZM37.1664 46.2173H36.0355L31.7406 39.6431V46.2173H30.6098V37.6861H31.7406L36.0473 44.2896V37.6861H37.1664V46.2173ZM41.9887 44.7232L44.4262 37.6861H45.6566L42.4926 46.2173H41.4965L38.3383 37.6861H39.5629L41.9887 44.7232ZM51.6273 42.274H47.9301V45.2974H52.225V46.2173H46.8051V37.6861H52.1664V38.6119H47.9301V41.3541H51.6273V42.274ZM56.1391 42.4146C55.1742 42.1373 54.4711 41.7974 54.0297 41.3951C53.5922 40.9888 53.3734 40.4888 53.3734 39.8951C53.3734 39.2232 53.641 38.6685 54.1762 38.231C54.7152 37.7896 55.4144 37.5689 56.2738 37.5689C56.8598 37.5689 57.3812 37.6822 57.8383 37.9088C58.2992 38.1353 58.6547 38.4478 58.9047 38.8463C59.1586 39.2447 59.2855 39.6802 59.2855 40.1529H58.1547C58.1547 39.6373 57.9906 39.233 57.6625 38.94C57.3344 38.6431 56.8715 38.4947 56.2738 38.4947C55.7191 38.4947 55.2855 38.6177 54.973 38.8638C54.6644 39.106 54.5101 39.4439 54.5101 39.8775C54.5101 40.2252 54.6566 40.5201 54.9496 40.7623C55.2465 41.0005 55.7484 41.2193 56.4555 41.4185C57.1664 41.6177 57.7211 41.8384 58.1195 42.0806C58.5219 42.3189 58.8187 42.5982 59.0101 42.9185C59.2055 43.2388 59.3031 43.6158 59.3031 44.0494C59.3031 44.7408 59.0336 45.2955 58.4945 45.7134C57.9555 46.1275 57.2348 46.3345 56.3324 46.3345C55.7465 46.3345 55.1996 46.2232 54.6918 46.0005C54.184 45.774 53.7914 45.4654 53.5141 45.0748C53.2406 44.6841 53.1039 44.2408 53.1039 43.7447H54.2348C54.2348 44.2603 54.4242 44.6685 54.8031 44.9693C55.1859 45.2662 55.6957 45.4146 56.3324 45.4146C56.9262 45.4146 57.3812 45.2935 57.6976 45.0513C58.0141 44.8091 58.1723 44.4791 58.1723 44.0611C58.1723 43.6431 58.0258 43.3209 57.7328 43.0943C57.4398 42.8638 56.9086 42.6373 56.1391 42.4146ZM66.6449 38.6119H63.9027V46.2173H62.7836V38.6119H60.0473V37.6861H66.6449V38.6119ZM74.309 42.2271C74.309 43.063 74.1684 43.7935 73.8871 44.4185C73.6059 45.0396 73.2074 45.5142 72.6918 45.8423C72.1762 46.1705 71.5746 46.3345 70.8871 46.3345C70.2152 46.3345 69.6195 46.1705 69.1 45.8423C68.5805 45.5103 68.1762 45.0396 67.8871 44.4302C67.6019 43.817 67.4555 43.108 67.4476 42.3033V41.688C67.4476 40.8677 67.5902 40.1431 67.8754 39.5142C68.1605 38.8853 68.5629 38.4048 69.0824 38.0728C69.6059 37.7369 70.2035 37.5689 70.8754 37.5689C71.559 37.5689 72.1605 37.7349 72.6801 38.067C73.2035 38.3951 73.6059 38.8736 73.8871 39.5025C74.1684 40.1275 74.309 40.856 74.309 41.688V42.2271ZM73.1898 41.6763C73.1898 40.6646 72.9867 39.8892 72.5805 39.3502C72.1742 38.8072 71.6059 38.5357 70.8754 38.5357C70.1644 38.5357 69.6039 38.8072 69.1937 39.3502C68.7875 39.8892 68.5785 40.6392 68.5668 41.6002V42.2271C68.5668 43.2076 68.7719 43.9791 69.182 44.5416C69.5961 45.1002 70.1644 45.3795 70.8871 45.3795C71.6137 45.3795 72.1762 45.1158 72.5746 44.5884C72.973 44.0572 73.1781 43.2974 73.1898 42.3091V41.6763ZM79.1254 42.7662H77.1215V46.2173H75.9906V37.6861H78.8148C79.7758 37.6861 80.5141 37.9048 81.0297 38.3423C81.5492 38.7798 81.809 39.4166 81.809 40.2525C81.809 40.7838 81.6644 41.2466 81.3754 41.6412C81.0902 42.0357 80.6918 42.3306 80.1801 42.5259L82.184 46.147V46.2173H80.9769L79.1254 42.7662ZM77.1215 41.8463H78.85C79.4086 41.8463 79.8519 41.7017 80.1801 41.4127C80.5121 41.1236 80.6781 40.7369 80.6781 40.2525C80.6781 39.7252 80.5199 39.3209 80.2035 39.0396C79.891 38.7584 79.4379 38.6158 78.8441 38.6119H77.1215V41.8463Z" fill="white"/>
<path d="M362.7 42.1077V53.5916V65.0755L372 73.4971V64.31V54.3572L383.625 64.31L394.475 53.5916V74.2627L404.55 63.5444V41.3421L397.575 35.2173L383.625 48.998L369.675 35.2173L362.7 42.1077Z" stroke="#FFFBFB"/>
<path d="M369.675 35.9838L376.65 42.8742L383.625 49.7645L397.575 35.9838L404.55 41.343V45.171L403.775 63.5453L395.25 72.7324L394.475 62.7797L395.25 52.0613L390.445 56.7921L383.625 63.5453L371.225 53.5925V60.4829V72.4351L368.9 70.4356L366.575 68.1388L362.7 65.0765L363.475 47.4678V42.1086L369.675 35.9838Z" fill="#FFFAFA"/>
<path d="M116.666 117.298C118.718 116.772 120.556 115.438 121.877 113.516C123.199 111.594 123.924 109.199 123.933 106.727C123.942 104.254 123.234 101.852 121.927 99.9176C120.62 97.9827 118.792 96.6305 116.743 96.0843L116.2 98.9049C117.703 99.3057 119.045 100.298 120.004 101.718C120.963 103.138 121.483 104.9 121.476 106.715C121.469 108.529 120.937 110.286 119.968 111.697C118.998 113.107 117.649 114.087 116.143 114.473L116.666 117.298Z" fill="#C4C4C4"/>
<path d="M123.157 121.701C125.218 120.937 127.065 119.002 128.392 116.216C129.72 113.43 130.449 109.959 130.459 106.376C130.469 102.793 129.76 99.3119 128.448 96.5084C127.137 93.7048 125.301 91.7461 123.245 90.9555L122.787 94.3758C124.386 94.9903 125.813 96.5129 126.832 98.6921C127.852 100.871 128.403 103.577 128.395 106.362C128.387 109.147 127.821 111.846 126.789 114.011C125.757 116.177 124.321 117.681 122.719 118.275L123.157 121.701Z" fill="#C4C4C4"/>
<path d="M128.649 126.602C130.83 125.6 132.785 123.061 134.19 119.405C135.596 115.749 136.368 111.195 136.38 106.494C136.391 101.794 135.642 97.2276 134.254 93.5499C132.867 89.8723 130.925 87.303 128.748 86.2664L128.274 90.6532C129.977 91.4642 131.496 93.4741 132.582 96.3512C133.667 99.2282 134.254 102.8 134.244 106.478C134.235 110.155 133.631 113.718 132.531 116.578C131.432 119.438 129.903 121.424 128.196 122.208L128.649 126.602Z" fill="#C4C4C4"/>
<path d="M111.388 112.519C112.768 112.238 114.005 111.527 114.893 110.502C115.782 109.477 116.269 108.2 116.275 106.882C116.281 105.563 115.805 104.282 114.925 103.25C114.045 102.218 112.815 101.496 111.437 101.205L111.072 102.709C112.083 102.923 112.986 103.452 113.631 104.21C114.277 104.967 114.627 105.907 114.622 106.875C114.618 107.842 114.26 108.78 113.608 109.532C112.956 110.284 112.049 110.806 111.036 111.011L111.388 112.519Z" fill="#C4C4C4"/>
<ellipse cx="381.3" cy="234.272" rx="13.95" ry="13.7807" fill="#EB001B"/>
<ellipse cx="398.35" cy="234.272" rx="13.95" ry="13.7807" fill="#FF9A1D"/>
<path d="M129.429 215.587C129.429 215.707 129.414 215.809 129.384 215.893C129.354 215.977 129.3 216.046 129.222 216.1C129.144 216.148 129.039 216.184 128.907 216.208C128.781 216.226 128.619 216.235 128.421 216.235H127.404C127.212 216.235 127.053 216.226 126.927 216.208C126.801 216.184 126.699 216.148 126.621 216.1C126.549 216.046 126.498 215.98 126.468 215.902C126.438 215.818 126.423 215.716 126.423 215.596C126.423 215.344 126.492 215.17 126.63 215.074C126.768 214.972 127.011 214.921 127.359 214.921H128.493C128.841 214.921 129.084 214.975 129.222 215.083C129.36 215.185 129.429 215.353 129.429 215.587ZM135.885 211.546C135.879 211.57 135.864 211.606 135.84 211.654L132.042 218.17H132.051C131.985 218.296 131.895 218.38 131.781 218.422C131.673 218.47 131.55 218.494 131.412 218.494C131.334 218.494 131.256 218.479 131.178 218.449C131.1 218.425 131.031 218.389 130.971 218.341C130.911 218.293 130.86 218.233 130.818 218.161C130.782 218.089 130.764 218.011 130.764 217.927C130.764 217.897 130.767 217.861 130.773 217.819C130.779 217.771 130.8 217.717 130.836 217.657V217.666L134.634 211.177C134.706 211.057 134.796 210.97 134.904 210.916C135.018 210.862 135.132 210.835 135.246 210.835C135.39 210.835 135.525 210.886 135.651 210.988C135.777 211.09 135.861 211.219 135.903 211.375L135.912 211.366V211.384C135.918 211.414 135.921 211.441 135.921 211.465C135.927 211.489 135.93 211.516 135.93 211.546H135.885ZM140.257 215.587C140.257 215.707 140.242 215.809 140.212 215.893C140.182 215.977 140.128 216.046 140.05 216.1C139.972 216.148 139.867 216.184 139.735 216.208C139.609 216.226 139.447 216.235 139.249 216.235H138.232C138.04 216.235 137.881 216.226 137.755 216.208C137.629 216.184 137.527 216.148 137.449 216.1C137.377 216.046 137.326 215.98 137.296 215.902C137.266 215.818 137.251 215.716 137.251 215.596C137.251 215.344 137.32 215.17 137.458 215.074C137.596 214.972 137.839 214.921 138.187 214.921H139.321C139.669 214.921 139.912 214.975 140.05 215.083C140.188 215.185 140.257 215.353 140.257 215.587Z" fill="white"/>
<path d="M31.502 213.313C31.502 213.393 31.4857 213.456 31.453 213.502C31.425 213.549 31.383 213.586 31.327 213.614C31.271 213.638 31.2057 213.654 31.131 213.663C31.0563 213.673 30.9747 213.677 30.886 213.677C30.7693 213.677 30.662 213.668 30.564 213.649C30.466 213.631 30.389 213.579 30.333 213.495H28.66V214.888H29.486C29.542 214.809 29.619 214.76 29.717 214.741C29.8197 214.723 29.9247 214.713 30.032 214.713H30.228C30.3213 214.718 30.396 214.737 30.452 214.769C30.508 214.797 30.55 214.839 30.578 214.895C30.6107 214.951 30.6317 215.019 30.641 215.098C30.6503 215.173 30.655 215.259 30.655 215.357C30.655 215.511 30.641 215.633 30.613 215.721C30.585 215.805 30.5407 215.868 30.48 215.91C30.424 215.948 30.3517 215.971 30.263 215.98C30.1743 215.99 30.0693 215.994 29.948 215.994H29.822C29.752 215.99 29.689 215.976 29.633 215.952C29.577 215.924 29.5303 215.885 29.493 215.833H28.66V217.499H30.326C30.3913 217.397 30.5033 217.343 30.662 217.338C30.7553 217.334 30.823 217.331 30.865 217.331C30.907 217.331 30.9747 217.331 31.068 217.331C31.166 217.341 31.243 217.364 31.299 217.401C31.355 217.434 31.397 217.478 31.425 217.534C31.453 217.59 31.4693 217.656 31.474 217.73C31.4833 217.805 31.488 217.884 31.488 217.968V218.094C31.488 218.183 31.4647 218.251 31.418 218.297C31.376 218.344 31.3177 218.377 31.243 218.395C31.173 218.419 31.089 218.433 30.991 218.437C30.8977 218.442 30.802 218.444 30.704 218.444H27.778C27.6753 218.444 27.596 218.426 27.54 218.388C27.484 218.356 27.442 218.309 27.414 218.248C27.386 218.188 27.3697 218.115 27.365 218.031C27.3603 217.947 27.358 217.859 27.358 217.765C27.3673 217.644 27.4187 217.553 27.512 217.492V213.523C27.442 213.472 27.3977 213.409 27.379 213.334C27.365 213.255 27.358 213.169 27.358 213.075C27.358 213.005 27.3627 212.94 27.372 212.879C27.3813 212.819 27.4 212.765 27.428 212.718C27.4607 212.672 27.505 212.634 27.561 212.606C27.617 212.578 27.6893 212.564 27.778 212.564H31.089C31.3643 212.564 31.502 212.683 31.502 212.921V213.313ZM37.5739 218.094C37.5739 218.202 37.5389 218.286 37.4689 218.346C37.3989 218.407 37.2963 218.437 37.1609 218.437H37.0419C36.9719 218.442 36.9066 218.444 36.8459 218.444C36.7853 218.444 36.7223 218.444 36.6569 218.444H36.4749C36.3536 218.444 36.2579 218.414 36.1879 218.353C36.1226 218.297 36.0853 218.216 36.0759 218.108V217.779C36.0759 217.742 36.0853 217.7 36.1039 217.653L35.3759 216.505L34.6759 217.639C34.6899 217.667 34.6993 217.705 34.7039 217.751C34.7086 217.798 34.7109 217.84 34.7109 217.877V217.94C34.7109 218.066 34.6946 218.164 34.6619 218.234C34.6293 218.304 34.5826 218.353 34.5219 218.381C34.4613 218.414 34.3866 218.433 34.2979 218.437C34.2093 218.447 34.1089 218.451 33.9969 218.451H33.9619C33.8079 218.451 33.6819 218.444 33.5839 218.43C33.4859 218.421 33.4066 218.398 33.3459 218.36C33.2899 218.328 33.2503 218.276 33.2269 218.206C33.2083 218.136 33.1989 218.045 33.1989 217.933C33.1989 217.826 33.2106 217.728 33.2339 217.639C33.2573 217.551 33.3319 217.488 33.4579 217.45L34.7109 215.497L33.4159 213.537C33.3226 213.5 33.2619 213.444 33.2339 213.369C33.2059 213.29 33.1919 213.187 33.1919 213.061C33.1919 213.001 33.1943 212.94 33.1989 212.879C33.2083 212.819 33.2269 212.767 33.2549 212.725C33.2829 212.679 33.3226 212.641 33.3739 212.613C33.4299 212.585 33.5023 212.571 33.5909 212.571H33.6119C33.6959 212.571 33.7683 212.569 33.8289 212.564C33.8896 212.56 33.9526 212.557 34.0179 212.557C34.1579 212.557 34.2699 212.564 34.3539 212.578C34.4426 212.592 34.5126 212.62 34.5639 212.662C34.6153 212.7 34.6503 212.751 34.6689 212.816C34.6876 212.882 34.6969 212.963 34.6969 213.061C34.6969 213.099 34.6946 213.152 34.6899 213.222C34.6853 213.292 34.6713 213.348 34.6479 213.39L35.3759 214.531L36.1179 213.397C36.0946 213.36 36.0806 213.318 36.0759 213.271C36.0713 213.22 36.0689 213.171 36.0689 213.124V213.061C36.0689 212.991 36.0713 212.928 36.0759 212.872C36.0853 212.812 36.1039 212.76 36.1319 212.718C36.1599 212.672 36.1996 212.637 36.2509 212.613C36.3023 212.585 36.3723 212.571 36.4609 212.571H36.4819C36.5659 212.571 36.6383 212.569 36.6989 212.564C36.7596 212.56 36.8226 212.557 36.8879 212.557C37.1446 212.557 37.3219 212.59 37.4199 212.655C37.5226 212.721 37.5739 212.851 37.5739 213.047C37.5739 213.145 37.5623 213.241 37.5389 213.334C37.5203 213.428 37.4573 213.495 37.3499 213.537L36.0479 215.511L37.3219 217.464C37.4293 217.502 37.4993 217.562 37.5319 217.646C37.5646 217.73 37.5809 217.828 37.5809 217.94C37.5809 217.964 37.5786 217.987 37.5739 218.01C37.5739 218.029 37.5739 218.057 37.5739 218.094ZM42.5453 214.209C42.5453 213.967 42.4659 213.789 42.3073 213.677C42.1486 213.565 41.9083 213.509 41.5863 213.509H40.8443V214.895H41.6493C41.9853 214.895 42.2186 214.837 42.3493 214.72C42.4799 214.604 42.5453 214.433 42.5453 214.209ZM43.7003 214.188C43.7003 214.515 43.6419 214.786 43.5253 215C43.4133 215.21 43.2639 215.378 43.0773 215.504C42.8906 215.626 42.6783 215.712 42.4403 215.763C42.2069 215.81 41.9689 215.833 41.7263 215.833H40.8443V217.464C40.9656 217.525 41.0263 217.625 41.0263 217.765V217.807C41.0309 217.859 41.0333 217.901 41.0333 217.933C41.0333 217.966 41.0379 218.015 41.0473 218.08C41.0379 218.16 41.0123 218.225 40.9703 218.276C40.9329 218.323 40.8839 218.358 40.8233 218.381C40.7626 218.409 40.6926 218.428 40.6133 218.437C40.5339 218.447 40.4523 218.451 40.3683 218.451C40.1536 218.451 39.9879 218.442 39.8713 218.423C39.7546 218.409 39.6683 218.377 39.6123 218.325C39.5609 218.279 39.5306 218.211 39.5213 218.122C39.5119 218.029 39.5073 217.91 39.5073 217.765C39.5119 217.635 39.5726 217.537 39.6893 217.471V213.544C39.6053 213.498 39.5539 213.435 39.5353 213.355C39.5166 213.271 39.5073 213.183 39.5073 213.089C39.5073 213.019 39.5119 212.954 39.5213 212.893C39.5306 212.828 39.5493 212.772 39.5773 212.725C39.6099 212.679 39.6519 212.641 39.7033 212.613C39.7593 212.585 39.8316 212.571 39.9203 212.571H41.3413C41.7426 212.571 42.0903 212.599 42.3843 212.655C42.6829 212.711 42.9279 212.802 43.1193 212.928C43.3153 213.054 43.4599 213.222 43.5533 213.432C43.6513 213.638 43.7003 213.89 43.7003 214.188ZM46.1614 217.268C46.25 217.268 46.32 217.285 46.3714 217.317C46.4274 217.35 46.4694 217.392 46.4974 217.443C46.5254 217.495 46.5417 217.555 46.5464 217.625C46.5557 217.691 46.5604 217.761 46.5604 217.835C46.5604 217.985 46.5487 218.101 46.5254 218.185C46.502 218.265 46.4624 218.323 46.4064 218.36C46.3504 218.398 46.2757 218.421 46.1824 218.43C46.0937 218.44 45.9817 218.444 45.8464 218.444H45.7624C45.585 218.444 45.4427 218.435 45.3354 218.416C45.228 218.402 45.1464 218.374 45.0904 218.332C45.0344 218.29 44.997 218.234 44.9784 218.164C44.9644 218.094 44.9574 218.003 44.9574 217.891C44.9574 217.737 44.969 217.618 44.9924 217.534C45.0204 217.45 45.0624 217.39 45.1184 217.352C45.1744 217.31 45.2467 217.285 45.3354 217.275C45.424 217.266 45.5314 217.261 45.6574 217.261H45.7624C45.823 217.261 45.8837 217.264 45.9444 217.268C46.0097 217.268 46.082 217.268 46.1614 217.268ZM56.3164 213.313C56.3164 213.393 56.3001 213.456 56.2674 213.502C56.2394 213.549 56.1974 213.586 56.1414 213.614C56.0854 213.638 56.0201 213.654 55.9454 213.663C55.8708 213.673 55.7891 213.677 55.7004 213.677C55.5838 213.677 55.4764 213.668 55.3784 213.649C55.2804 213.631 55.2034 213.579 55.1474 213.495H53.4744V214.888H54.3004C54.3564 214.809 54.4334 214.76 54.5314 214.741C54.6341 214.723 54.7391 214.713 54.8464 214.713H55.0424C55.1358 214.718 55.2104 214.737 55.2664 214.769C55.3224 214.797 55.3644 214.839 55.3924 214.895C55.4251 214.951 55.4461 215.019 55.4554 215.098C55.4648 215.173 55.4694 215.259 55.4694 215.357C55.4694 215.511 55.4554 215.633 55.4274 215.721C55.3994 215.805 55.3551 215.868 55.2944 215.91C55.2384 215.948 55.1661 215.971 55.0774 215.98C54.9888 215.99 54.8838 215.994 54.7624 215.994H54.6364C54.5664 215.99 54.5034 215.976 54.4474 215.952C54.3914 215.924 54.3448 215.885 54.3074 215.833H53.4744V217.499H55.1404C55.2058 217.397 55.3178 217.343 55.4764 217.338C55.5698 217.334 55.6374 217.331 55.6794 217.331C55.7214 217.331 55.7891 217.331 55.8824 217.331C55.9804 217.341 56.0574 217.364 56.1134 217.401C56.1694 217.434 56.2114 217.478 56.2394 217.534C56.2674 217.59 56.2838 217.656 56.2884 217.73C56.2978 217.805 56.3024 217.884 56.3024 217.968V218.094C56.3024 218.183 56.2791 218.251 56.2324 218.297C56.1904 218.344 56.1321 218.377 56.0574 218.395C55.9874 218.419 55.9034 218.433 55.8054 218.437C55.7121 218.442 55.6164 218.444 55.5184 218.444H52.5924C52.4898 218.444 52.4104 218.426 52.3544 218.388C52.2984 218.356 52.2564 218.309 52.2284 218.248C52.2004 218.188 52.1841 218.115 52.1794 218.031C52.1748 217.947 52.1724 217.859 52.1724 217.765C52.1818 217.644 52.2331 217.553 52.3264 217.492V213.523C52.2564 213.472 52.2121 213.409 52.1934 213.334C52.1794 213.255 52.1724 213.169 52.1724 213.075C52.1724 213.005 52.1771 212.94 52.1864 212.879C52.1958 212.819 52.2144 212.765 52.2424 212.718C52.2751 212.672 52.3194 212.634 52.3754 212.606C52.4314 212.578 52.5038 212.564 52.5924 212.564H55.9034C56.1788 212.564 56.3164 212.683 56.3164 212.921V213.313ZM61.5624 213.537C61.4784 213.495 61.4224 213.432 61.3944 213.348C61.3711 213.264 61.3594 213.171 61.3594 213.068C61.3594 212.933 61.3874 212.816 61.4434 212.718C61.4994 212.616 61.6161 212.564 61.7934 212.564H62.4444C62.5937 212.564 62.6987 212.609 62.7594 212.697C62.8247 212.781 62.8574 212.891 62.8574 213.026C62.8574 213.096 62.8457 213.183 62.8224 213.285C62.8037 213.383 62.7547 213.465 62.6754 213.53V217.499C62.7454 217.551 62.7897 217.611 62.8084 217.681C62.8271 217.747 62.8364 217.819 62.8364 217.898C62.8364 217.968 62.8317 218.038 62.8224 218.108C62.8131 218.174 62.7944 218.232 62.7664 218.283C62.7384 218.33 62.6964 218.367 62.6404 218.395C62.5844 218.428 62.5097 218.444 62.4164 218.444H61.8004C61.6931 218.444 61.6114 218.426 61.5554 218.388C61.5041 218.351 61.4597 218.3 61.4224 218.234L59.4764 214.776V217.471C59.5697 217.513 59.6257 217.574 59.6444 217.653C59.6677 217.733 59.6794 217.824 59.6794 217.926C59.6794 218.076 59.6537 218.199 59.6024 218.297C59.5511 218.391 59.4367 218.437 59.2594 218.437H59.1614C59.1007 218.442 59.0471 218.444 59.0004 218.444C58.9584 218.444 58.9117 218.444 58.8604 218.444C58.6551 218.444 58.4941 218.423 58.3774 218.381C58.2607 218.344 58.1977 218.248 58.1884 218.094V218.038C58.1837 218.01 58.1814 217.985 58.1814 217.961C58.1814 217.933 58.1814 217.908 58.1814 217.884C58.1814 217.8 58.1907 217.726 58.2094 217.66C58.2281 217.59 58.2771 217.532 58.3564 217.485V213.523C58.2724 213.477 58.2211 213.411 58.2024 213.327C58.1884 213.243 58.1814 213.157 58.1814 213.068C58.1814 212.919 58.2071 212.798 58.2584 212.704C58.3097 212.611 58.4217 212.564 58.5944 212.564H59.2034C59.3107 212.574 59.3877 212.602 59.4344 212.648C59.4857 212.695 59.5301 212.744 59.5674 212.795L61.5694 216.309L61.5624 213.537ZM68.1213 215.315C68.1213 214.671 67.9953 214.209 67.7433 213.929C67.4913 213.649 67.118 213.509 66.6233 213.509H66.2243V217.506H66.7213C66.9266 217.506 67.1133 217.469 67.2813 217.394C67.454 217.315 67.601 217.191 67.7223 217.023C67.8483 216.851 67.9463 216.624 68.0163 216.344C68.0863 216.064 68.1213 215.721 68.1213 215.315ZM69.2973 215.28C69.2973 215.523 69.2786 215.77 69.2413 216.022C69.2086 216.27 69.1526 216.512 69.0733 216.75C68.9986 216.984 68.8983 217.203 68.7723 217.408C68.651 217.614 68.4993 217.793 68.3173 217.947C68.14 218.101 67.9323 218.223 67.6943 218.311C67.4563 218.4 67.1856 218.444 66.8823 218.444H65.3213C65.158 218.44 65.046 218.388 64.9853 218.29C64.9293 218.188 64.9013 218.055 64.9013 217.891C64.9013 217.812 64.9083 217.735 64.9223 217.66C64.941 217.586 64.99 217.525 65.0693 217.478V213.537C64.9853 213.491 64.934 213.428 64.9153 213.348C64.8966 213.264 64.8873 213.176 64.8873 213.082C64.8873 213.054 64.8873 213.029 64.8873 213.005C64.8873 212.977 64.8896 212.945 64.8943 212.907C64.9036 212.805 64.941 212.723 65.0063 212.662C65.0763 212.602 65.1766 212.569 65.3073 212.564H66.7493C67.23 212.564 67.6336 212.648 67.9603 212.816C68.287 212.98 68.5483 213.192 68.7443 213.453C68.945 213.715 69.0873 214.006 69.1713 214.328C69.2553 214.65 69.2973 214.968 69.2973 215.28ZM72.2851 217.639C72.2898 217.705 72.2921 217.784 72.2921 217.877C72.2921 217.966 72.2921 218.043 72.2921 218.108C72.2875 218.192 72.2641 218.258 72.2221 218.304C72.1848 218.351 72.1335 218.384 72.0681 218.402C72.0028 218.426 71.9211 218.44 71.8231 218.444C71.7298 218.449 71.6248 218.451 71.5081 218.451C71.3308 218.451 71.1885 218.444 71.0811 218.43C70.9785 218.421 70.8991 218.395 70.8431 218.353C70.7918 218.316 70.7591 218.26 70.7451 218.185C70.7311 218.106 70.7241 218.001 70.7241 217.87C70.7241 217.726 70.7358 217.614 70.7591 217.534C70.7871 217.455 70.8315 217.399 70.8921 217.366C70.9575 217.329 71.0391 217.308 71.1371 217.303C71.2351 217.294 71.3588 217.289 71.5081 217.289H71.6831C71.7531 217.289 71.8231 217.294 71.8931 217.303C71.9678 217.308 72.0331 217.322 72.0891 217.345C72.1498 217.369 72.1965 217.404 72.2291 217.45C72.2665 217.497 72.2851 217.56 72.2851 217.639ZM72.2851 215.49C72.2898 215.556 72.2921 215.635 72.2921 215.728C72.2921 215.817 72.2921 215.894 72.2921 215.959C72.2875 216.043 72.2665 216.109 72.2291 216.155C72.1965 216.202 72.1475 216.237 72.0821 216.26C72.0215 216.279 71.9468 216.291 71.8581 216.295C71.7741 216.3 71.6761 216.302 71.5641 216.302H71.5081C71.3308 216.302 71.1908 216.298 71.0881 216.288C70.9855 216.279 70.9061 216.256 70.8501 216.218C70.7988 216.176 70.7638 216.118 70.7451 216.043C70.7311 215.964 70.7241 215.857 70.7241 215.721C70.7241 215.581 70.7358 215.474 70.7591 215.399C70.7825 215.32 70.8221 215.262 70.8781 215.224C70.9341 215.182 71.0088 215.159 71.1021 215.154C71.1955 215.145 71.3121 215.14 71.4521 215.14H71.6411C71.7111 215.14 71.7835 215.145 71.8581 215.154C71.9375 215.159 72.0075 215.173 72.0681 215.196C72.1335 215.22 72.1848 215.255 72.2221 215.301C72.2641 215.348 72.2851 215.411 72.2851 215.49Z" fill="white"/>
<path d="M30.229 243.148C30.229 243.268 30.214 243.37 30.184 243.454C30.154 243.538 30.1 243.607 30.022 243.661C29.944 243.709 29.839 243.745 29.707 243.769C29.581 243.787 29.419 243.796 29.221 243.796H28.204C28.012 243.796 27.853 243.787 27.727 243.769C27.601 243.745 27.499 243.709 27.421 243.661C27.349 243.607 27.298 243.541 27.268 243.463C27.238 243.379 27.223 243.277 27.223 243.157C27.223 242.905 27.292 242.731 27.43 242.635C27.568 242.533 27.811 242.482 28.159 242.482H29.293C29.641 242.482 29.884 242.536 30.022 242.644C30.16 242.746 30.229 242.914 30.229 243.148Z" fill="#FFFEFE"/>
<defs>
<filter id="filter0_d" x="-39" y="-39" width="520" height="353.958" filterUnits="userSpaceOnUse" color-interpolation-filters="sRGB">
<feFlood flood-opacity="0" result="BackgroundImageFix"/>
<feColorMatrix in="SourceAlpha" type="matrix" values="0 0 0 0 0 0 0 0 0 0 0 0 0 0 0 0 0 0 127 0" result="hardAlpha"/>
<feOffset dx="4" dy="4"/>
<feGaussianBlur stdDeviation="21.5"/>
<feComposite in2="hardAlpha" operator="out"/>
<feColorMatrix type="matrix" values="0 0 0 0 0 0 0 0 0 0 0 0 0 0 0 0 0 0 0.25 0"/>
<feBlend mode="normal" in2="BackgroundImageFix" result="effect1_dropShadow"/>
<feBlend mode="normal" in="SourceGraphic" in2="effect1_dropShadow" result="shape"/>
</filter>
<filter id="filter1_d" x="229.6" y="4.77893" width="206.4" height="267.18" filterUnits="userSpaceOnUse" color-interpolation-filters="sRGB">
<feFlood flood-opacity="0" result="BackgroundImageFix"/>
<feColorMatrix in="SourceAlpha" type="matrix" values="0 0 0 0 0 0 0 0 0 0 0 0 0 0 0 0 0 0 127 0" result="hardAlpha"/>
<feOffset dx="-2"/>
<feGaussianBlur stdDeviation="2"/>
<feComposite in2="hardAlpha" operator="out"/>
<feColorMatrix type="matrix" values="0 0 0 0 0 0 0 0 0 0 0 0 0 0 0 0 0 0 0.25 0"/>
<feBlend mode="normal" in2="BackgroundImageFix" result="effect1_dropShadow"/>
<feBlend mode="normal" in="SourceGraphic" in2="effect1_dropShadow" result="shape"/>
</filter>
<filter id="filter2_d" x="237.35" y="-4" width="198.65" height="275.958" filterUnits="userSpaceOnUse" color-interpolation-filters="sRGB">
<feFlood flood-opacity="0" result="BackgroundImageFix"/>
<feColorMatrix in="SourceAlpha" type="matrix" values="0 0 0 0 0 0 0 0 0 0 0 0 0 0 0 0 0 0 127 0" result="hardAlpha"/>
<feOffset dx="-2"/>
<feGaussianBlur stdDeviation="2"/>
<feComposite in2="hardAlpha" operator="out"/>
<feColorMatrix type="matrix" values="0 0 0 0 0 0 0 0 0 0 0 0 0 0 0 0 0 0 0.25 0"/>
<feBlend mode="normal" in2="BackgroundImageFix" result="effect1_dropShadow"/>
<feBlend mode="normal" in="SourceGraphic" in2="effect1_dropShadow" result="shape"/>
</filter>
<linearGradient id="paint0_linear" x1="-3.69259e-07" y1="124.792" x2="434" y2="125.577" gradientUnits="userSpaceOnUse">
<stop offset="0.088479" stop-color="#222528"/>
<stop offset="0.469716" stop-color="#343A3F"/>
<stop offset="1" stop-color="#374653"/>
</linearGradient>
</defs>
</svg>
