<svg width="34" height="36" viewBox="0 0 34 36" fill="none" xmlns="http://www.w3.org/2000/svg">
<g filter="url(#filter0_d)">
<rect x="4" y="10" width="26" height="18" rx="2" fill="#4F4F4F"/>
<rect x="9" y="14" width="3" height="3" fill="#F2F2F2"/>
<rect x="9" y="20" width="3" height="3" fill="#F2F2F2"/>
<rect x="16" y="14" width="3" height="3" fill="#F2F2F2"/>
<rect x="16" y="20" width="3" height="3" fill="#F2F2F2"/>
<rect x="22" y="14" width="3" height="3" fill="#F2F2F2"/>
<rect x="22" y="20" width="3" height="3" fill="#F2F2F2"/>
<path d="M4 8C4 5.23858 6.23858 3 9 3H25C27.7614 3 30 5.23858 30 8H4Z" fill="#4F4F4F"/>
<rect x="11" width="3" height="3" fill="#4F4F4F"/>
<rect x="21" width="3" height="3" fill="#4F4F4F"/>
<rect x="4" y="8" width="26" height="1" fill="#C2C2C2"/>
</g>
<defs>
<filter id="filter0_d" x="0" y="0" width="34" height="36" filterUnits="userSpaceOnUse" color-interpolation-filters="sRGB">
<feFlood flood-opacity="0" result="BackgroundImageFix"/>
<feColorMatrix in="SourceAlpha" type="matrix" values="0 0 0 0 0 0 0 0 0 0 0 0 0 0 0 0 0 0 127 0" result="hardAlpha"/>
<feOffset dy="4"/>
<feGaussianBlur stdDeviation="2"/>
<feComposite in2="hardAlpha" operator="out"/>
<feColorMatrix type="matrix" values="0 0 0 0 0 0 0 0 0 0 0 0 0 0 0 0 0 0 0.25 0"/>
<feBlend mode="normal" in2="BackgroundImageFix" result="effect1_dropShadow"/>
<feBlend mode="normal" in="SourceGraphic" in2="effect1_dropShadow" result="shape"/>
</filter>
</defs>
</svg>
