<svg width="20" height="18" viewBox="0 0 20 18" fill="none" xmlns="http://www.w3.org/2000/svg">
<path d="M18.2037 17.1429H1.68664C0.927102 17.1429 0.444835 16.3294 0.809273 15.663L8.55165 1.50556C8.91929 0.833307 9.87535 0.807291 10.279 1.45856L19.0537 15.616C19.4666 16.2822 18.9875 17.1429 18.2037 17.1429Z" fill="#FFCB61" stroke="#E28226"/>
<path d="M10.5137 11.2988H8.91406L8.66211 5.46875H10.7656L10.5137 11.2988ZM8.60352 13.1152C8.60352 12.8262 8.70703 12.5898 8.91406 12.4062C9.125 12.2188 9.38672 12.125 9.69922 12.125C10.0117 12.125 10.2715 12.2188 10.4785 12.4062C10.6895 12.5898 10.7949 12.8262 10.7949 13.1152C10.7949 13.4043 10.6895 13.6426 10.4785 13.8301C10.2715 14.0137 10.0117 14.1055 9.69922 14.1055C9.38672 14.1055 9.125 14.0137 8.91406 13.8301C8.70703 13.6426 8.60352 13.4043 8.60352 13.1152Z" fill="black"/>
</svg>
