<svg width="49" height="34" viewBox="0 0 49 34" fill="none" xmlns="http://www.w3.org/2000/svg">
<rect width="49" height="34" rx="3" fill="#4F4F4F"/>
<path d="M12.8516 19.4365C12.8516 19.0173 12.7035 18.6641 12.4072 18.377C12.1156 18.0898 11.6211 17.8301 10.9238 17.5977C9.95312 17.3014 9.24447 16.9163 8.79785 16.4424C8.35579 15.9639 8.13477 15.3577 8.13477 14.624C8.13477 13.8766 8.35124 13.2637 8.78418 12.7852C9.22168 12.3066 9.82096 12.0218 10.582 11.9307V10.4336H11.6006V11.9375C12.3662 12.0423 12.9609 12.3636 13.3848 12.9014C13.8132 13.4391 14.0273 14.1751 14.0273 15.1094H12.7695C12.7695 14.4668 12.6169 13.9564 12.3115 13.5781C12.0062 13.1999 11.5938 13.0107 11.0742 13.0107C10.5319 13.0107 10.1172 13.152 9.83008 13.4346C9.54297 13.7126 9.39941 14.1022 9.39941 14.6035C9.39941 15.0684 9.5498 15.4398 9.85059 15.7178C10.1559 15.9912 10.6549 16.2419 11.3477 16.4697C12.0449 16.693 12.5872 16.9414 12.9746 17.2148C13.3665 17.4837 13.6536 17.7982 13.8359 18.1582C14.0228 18.5182 14.1162 18.9398 14.1162 19.4229C14.1162 20.193 13.8838 20.8128 13.4189 21.2822C12.9587 21.7516 12.3115 22.0296 11.4775 22.1162V23.4219H10.4658V22.1162C9.61816 22.0387 8.9528 21.738 8.46973 21.2139C7.99121 20.6852 7.75195 19.9697 7.75195 19.0674H9.0166C9.0166 19.7008 9.18294 20.1885 9.51562 20.5303C9.84831 20.8721 10.32 21.043 10.9307 21.043C11.5277 21.043 11.9971 20.8994 12.3389 20.6123C12.6807 20.3252 12.8516 19.9333 12.8516 19.4365Z" fill="#DEDEDE"/>
<rect x="23" y="13" width="18" height="3" fill="#ECECEC"/>
<rect x="23" y="13" width="18" height="3" fill="#ECECEC"/>
<rect x="23" y="13" width="18" height="3" fill="#ECECEC"/>
<rect x="23" y="13" width="18" height="3" fill="#ECECEC"/>
<rect x="23" y="13" width="18" height="3" fill="#ECECEC"/>
<rect x="23" y="19" width="8" height="2" fill="#C4C4C4"/>
<rect x="33" y="19" width="8" height="2" fill="#ECECEC"/>
<rect x="23" y="19" width="8" height="2" fill="#ECECEC"/>
</svg>
