<svg width="61" height="83" viewBox="0 0 61 83" fill="none" xmlns="http://www.w3.org/2000/svg">
<path d="M57.8359 49.8126L55.2591 53.6779C54.6697 54.562 54.3552 55.6007 54.3552 56.6633C54.3552 58.8361 53.5543 60.949 52.1235 62.5841C51.3218 63.5003 50.1567 64.0338 48.9392 64.0338L20.7692 64.0337C20.504 64.0337 20.2496 63.9284 20.0621 63.7408L18.9775 62.6562C18.8964 62.5752 18.829 62.4787 18.7797 62.3752C12.6868 49.5628 6.65261 42.9965 3.34423 40.4943C2.44183 39.8117 1.66221 38.903 1.42676 37.7963C-1.01033 26.3408 7.52923 27.3824 13.3872 29.8579C14.072 30.1473 14.8552 29.6591 14.8552 28.9157V4.90951C14.8552 4.66728 14.9454 4.42855 15.1096 4.2505C20.4516 -1.54106 26.4516 1.6603 29.0796 4.25141C29.2605 4.42978 29.3552 4.67516 29.3552 4.92922V20.5338C29.3552 21.3578 30.3183 21.8475 31.0697 21.5093C34.5987 19.921 37.6988 21.6387 39.2389 23.2694C39.6136 23.6662 40.2241 23.7896 40.7064 23.5342C45.1112 21.2023 47.8015 23.7849 48.946 26.0565C49.2049 26.5703 49.8064 26.8463 50.3612 26.694C55.6639 25.2378 59.1004 29.6588 60.2786 32.3534C60.3309 32.4731 60.3552 32.6009 60.3552 32.7316V41.4921C60.3552 44.4535 59.4786 47.3486 57.8359 49.8126Z" stroke="#BBBBBB"/>
<path d="M17.855 76.3866V71.1906C17.855 70.1297 18.2764 69.1123 19.0266 68.3622L19.1834 68.2053C19.9336 67.4552 20.951 67.0338 22.0118 67.0338H50.5731C51.4068 67.0338 52.2197 67.2942 52.8981 67.7788L53.6799 68.3373C54.7311 69.0881 55.355 70.3004 55.355 71.5922V76.3866C55.355 77.1362 55.1443 77.8708 54.747 78.5066L54.03 79.6537C53.299 80.8233 52.0171 81.5338 50.638 81.5338H22.572C21.1928 81.5338 19.9109 80.8233 19.18 79.6537L18.463 78.5066C18.0657 77.8708 17.855 77.1362 17.855 76.3866Z" stroke="#BBBBBB"/>
<path d="M31.6348 41.3787C32.1078 41.578 32.5797 41.7781 33.0621 41.954C33.3331 42.0528 33.765 42.121 33.98 42.3361C34.2661 42.6222 34.158 43.5234 34.1644 43.8908C34.1694 44.1744 34.1086 44.6217 34.4455 44.734C34.67 44.8088 34.7817 44.8081 34.8759 44.6198" stroke="#BBBBBB" stroke-width="17" stroke-linecap="round"/>
<path d="M44.4414 36.1613L44.9157 36.0032" stroke="#BBBBBB" stroke-width="17" stroke-linecap="round"/>
<path d="M45.7852 45.3313C45.5469 45.989 45.268 46.6958 45.1528 47.3866" stroke="#BBBBBB" stroke-width="17" stroke-linecap="round"/>
<path d="M44.4411 52.6831C44.1922 53.3837 43.7803 54.2064 43.1763 54.6594" stroke="#BBBBBB" stroke-width="17" stroke-linecap="round"/>
<path d="M37.3268 54.5012C36.4858 54.5012 35.645 54.4378 34.8059 54.3826C34.1766 54.3412 33.5099 54.4165 32.8999 54.264" stroke="#BBBBBB" stroke-width="17" stroke-linecap="round"/>
<path d="M27.8406 51.6554C27.4406 50.4555 26.6548 49.0701 26.6548 47.7819" stroke="#BBBBBB" stroke-width="17" stroke-linecap="round"/>
<path d="M22.6232 44.7779C22.1927 44.1448 21.7906 43.6142 21.5165 42.8982C21.4522 42.7304 21.4446 42.489 21.2793 42.4064" stroke="#BBBBBB" stroke-width="17" stroke-linecap="round"/>
<path d="M35.9829 31.8134C35.1256 32.0091 34.2686 32.2149 33.4005 32.3579C32.9071 32.4392 32.3534 32.4112 31.8853 32.6083C31.5412 32.7532 31.5177 32.9279 31.2793 33.1133C31.0301 33.3071 30.5452 33.3064 30.2296 33.3944C29.9393 33.4753 29.7489 33.5534 29.4874 33.6711C29.3111 33.7504 28.8258 33.7636 28.7101 33.9082C28.4496 34.2338 27.71 34.092 27.3662 34.264" stroke="#BBBBBB" stroke-width="17" stroke-linecap="round"/>
<path d="M23.7298 24.2245C23.893 22.5104 24.0734 20.7977 24.1602 19.0773C24.2555 17.1879 24.1954 15.302 24.2041 13.4119C24.2073 12.7042 24.2108 12.0139 24.4061 11.3302C24.4469 11.1875 24.4812 10.7567 24.5203 10.8998C24.6473 11.3654 24.6465 11.9798 24.6784 12.4457C24.7978 14.1921 24.7765 15.9472 24.5115 17.6807C24.2968 19.0855 23.9014 20.4537 23.4048 21.7826C23.3609 21.9 22.9764 22.8064 22.9964 22.7488C23.5383 21.1832 23.8471 19.557 24.0328 17.9135C24.1042 17.2821 24.084 16.5619 24.2831 15.9504C24.302 15.8925 24.353 15.7335 24.3929 15.8977C24.4349 16.0702 24.4384 16.5583 24.4412 16.6575C24.5073 18.9371 24.6937 21.2439 24.4456 23.5174C24.4179 23.772 24.3367 24.5359 24.3666 24.2816C24.4215 23.8151 24.4665 23.3472 24.5203 22.8806" stroke="#BBBBBB" stroke-width="4" stroke-linecap="round"/>
<path d="M21.121 30.7067C21.0452 29.9867 21.0857 29.4166 21.1825 28.7129C21.2539 28.1934 21.4372 27.6827 21.4372 27.1538C21.4372 26.5623 21.5069 25.9792 21.5162 25.3927C21.5465 23.4869 21.5953 21.5926 21.5953 19.679C21.5953 18.0306 21.5953 16.3822 21.5953 14.7339C21.5953 13.0363 21.4764 11.348 21.4372 9.66138C21.4198 8.91242 21.236 7.82766 21.6129 7.14929C21.6922 7.0064 21.8319 6.54844 21.9949 6.52127C22.4779 6.44078 22.6661 6.6938 22.7811 7.15368C23.4004 9.63113 23.5226 12.0303 23.2598 14.5714C23.1643 15.4945 22.9727 16.3918 22.8426 17.3031C22.6695 18.5147 22.7023 19.7962 22.4649 20.9834" stroke="#BBBBBB" stroke-width="8" stroke-linecap="round"/>
<path d="M19.6192 35.2917C19.6192 32.6457 18.8215 30.0977 19.6192 27.5051C19.8656 26.7043 20.0145 25.7548 20.0145 24.9183C20.0145 23.9556 19.9384 22.9477 20.1726 22.011" stroke="#BBBBBB" stroke-width="8" stroke-linecap="round"/>
<path d="M18.6702 27.7027C18.4785 25.8704 18.354 24.0895 18.354 22.2481C18.354 21.6756 18.4664 21.0454 18.5165 20.4695C18.574 19.8077 18.569 19.0614 18.7097 18.4141C18.8379 17.8245 18.8283 17.0598 18.8283 16.4598C18.8283 15.78 18.9074 15.1125 18.9074 14.4396C18.9074 13.9608 19.0565 13.5424 19.0655 13.0781C19.0758 12.5427 19.0543 11.8468 19.2236 11.339" stroke="#BBBBBB" stroke-width="8" stroke-linecap="round"/>
<path d="M18.6706 12.0504C18.4318 10.3792 18.6706 8.64686 18.6706 6.99109" stroke="#BBBBBB" stroke-width="8" stroke-linecap="round"/>
<path d="M25.7061 29.8371C25.7909 28.8405 25.7851 27.8496 25.7851 26.8507C25.7851 26.4201 25.7628 25.8089 25.8817 25.3926C26.0715 24.7285 26.0223 24.0397 26.0223 23.3549" stroke="#BBBBBB" stroke-width="8" stroke-linecap="round"/>
<path d="M24.5202 20.1138C24.5202 18.5986 24.5202 17.0834 24.5202 15.5683C24.5202 15.2654 24.5143 14.962 24.5202 14.6592C24.5246 14.4302 24.5239 13.9568 24.6387 13.7501C24.7769 13.5013 24.6785 13.027 24.7178 12.7444C24.7884 12.2359 24.7573 11.7112 24.7573 11.1985C24.7573 10.7235 24.7853 9.86021 24.9945 9.44177" stroke="#BBBBBB" stroke-width="8" stroke-linecap="round"/>
<path d="M22.8604 18.928C22.8717 18.0528 23.0185 17.1396 23.0185 16.2798C23.0185 15.9472 23.2556 15.6232 23.2556 15.2916" stroke="#BBBBBB" stroke-width="8" stroke-linecap="round"/>
<path d="M23.6509 18.0584C23.8903 17.5498 23.9671 16.8858 23.9671 16.3193C23.9671 16.0868 23.9476 15.8839 24.0461 15.6869" stroke="#BBBBBB" stroke-width="8" stroke-linecap="round"/>
<path d="M24.0459 16.3192C24.0459 17.8551 24.125 19.3727 24.125 20.9042" stroke="#BBBBBB" stroke-width="8" stroke-linecap="round"/>
<path d="M24.3623 20.7461C24.4866 20.3806 24.6635 19.9693 24.6785 19.5779C24.6861 19.3817 24.6747 19.2517 24.7576 19.0861" stroke="#BBBBBB" stroke-width="8" stroke-linecap="round"/>
<path d="M18.1961 39.4814C18.0582 38.142 16.8136 38.6344 15.8597 38.5152C15.4524 38.4643 14.8434 38.3108 14.4807 38.1199C14.1895 37.9667 13.8574 37.72 13.5496 37.549C13.2639 37.3903 12.7514 37.2693 12.601 36.9517C12.4228 36.5755 12.5161 36.1934 12.6625 35.8274C12.7799 35.5339 12.938 35.2636 13.0577 34.971C13.1273 34.8008 13.2696 34.1259 13.453 34.0444C13.5318 34.0093 13.8273 34.9989 13.8658 35.1335C13.999 35.5996 14.3913 35.5288 14.7969 35.5288" stroke="#BBBBBB" stroke-width="8" stroke-linecap="round"/>
<path d="M11.1605 41.7739C10.4692 41.2485 9.81728 40.9054 9.34229 40.1929" stroke="#BBBBBB" stroke-width="8" stroke-linecap="round"/>
<path d="M7.04988 37.8213C6.70766 36.8326 6.25682 35.7362 5.62695 34.8964" stroke="#BBBBBB" stroke-width="8" stroke-linecap="round"/>
<path d="M9.18426 33.6315C8.96883 33.2007 8.74968 32.7778 8.4728 32.3843C8.32279 32.1711 8.06871 32.0373 7.91943 31.8134" stroke="#BBBBBB" stroke-width="8" stroke-linecap="round"/>
<path d="M47.9194 34.6593C48.4683 35.1237 49.5863 34.9879 49.8957 35.7045C50.0396 36.0377 50.0582 36.4843 50.2515 36.7849C50.5578 37.2614 51.7528 36.3876 51.9115 36.0383C52.1401 35.5354 51.974 34.9665 52.0345 34.4221C52.0734 34.0724 52.1356 33.7342 52.1092 33.3769C52.0825 33.0173 51.6692 32.7928 51.5558 32.481C51.5003 32.3283 51.3158 32.0834 51.5207 32.0462C51.8204 31.9917 52.0762 31.9628 52.3903 31.9715C52.835 31.9839 53.2502 32.5592 53.5321 32.8411C54.2096 33.5185 54.4017 34.4455 54.4017 35.3883C54.4017 36.5222 54.4807 37.6484 54.4807 38.7744C54.4807 39.5089 54.6388 40.217 54.6388 40.9483C54.6388 41.4325 54.6615 41.9949 54.7223 42.481C54.7999 43.1019 54.8304 43.7467 54.7969 44.3826C54.7867 44.5775 54.4415 45.0834 54.3182 45.2478C54.1183 45.5144 53.7746 45.8125 53.4882 45.9637C52.7069 46.376 52.0938 47.1802 51.7139 47.94" stroke="#BBBBBB" stroke-width="8" stroke-linecap="round"/>
<path d="M52.2672 50.4696C52.141 51.0251 51.9625 51.7905 51.7139 52.2878" stroke="#BBBBBB" stroke-width="8" stroke-linecap="round"/>
<path d="M50.4493 55.8451C50.1497 57.0083 49.6214 58.2125 49.1055 59.2443" stroke="#BBBBBB" stroke-width="8" stroke-linecap="round"/>
<path d="M19.6191 51.1021C19.6191 52.4142 19.7427 53.764 20.6819 54.7033C20.9985 55.0199 21.3203 55.3226 21.6569 55.6256C21.7802 55.7366 21.8939 55.8713 22.0083 55.9857C22.1199 56.0973 22.3905 56.4393 22.5089 56.4732C22.78 56.5506 23.3915 56.9242 23.5717 57.1495C23.8273 57.469 24.628 57.4475 24.9947 57.6019C25.2134 57.694 25.4245 57.8168 25.6271 57.9181C25.7484 57.9787 25.7842 58.1107 25.9038 58.1772C26.0629 58.2656 26.2344 58.2982 26.3781 58.4099C26.7765 58.7198 27.5483 58.598 27.9986 58.7876C28.5087 59.0024 29.1414 58.9102 29.6763 59.0687C30.307 59.2556 31.1818 59.2444 31.837 59.2444C32.5357 59.2444 33.4077 59.107 34.0856 59.2619C35.0881 59.4911 36.2189 59.5606 37.2477 59.5606C39.5948 59.5606 41.932 59.6396 44.2833 59.6396C45.0715 59.6396 45.7974 59.492 46.5363 59.3278C46.8171 59.2654 47.8406 59.3097 47.8406 58.9282" stroke="#BBBBBB" stroke-width="8" stroke-linecap="round"/>
<path d="M12.8208 42.2482C13.191 43.4561 14.0926 44.1805 14.6566 45.2521C14.8251 45.5723 15.1705 45.7716 15.3505 46.0866C15.6941 46.6879 16.0369 47.3176 16.5187 47.7994C16.6333 47.914 16.7339 48.0585 16.8524 48.1771C16.968 48.2926 17.0564 48.5612 17.1686 48.6338C17.4737 48.8312 17.5402 49.246 17.8406 49.4463C18.4473 49.8508 18.9199 50.6573 19.4216 51.1854C19.716 51.4953 20.1439 52.0191 20.2517 52.4502C20.3748 52.9428 20.7274 53.3169 20.8665 53.7897C20.9753 54.1595 21.2756 54.5555 21.455 54.8965C21.6216 55.2129 21.9896 55.7014 22.0655 56.0427C22.1481 56.4146 22.4459 56.7417 22.6276 57.0748C22.7289 57.2605 22.8966 57.4871 22.935 57.6984C22.9571 57.8199 23.0844 57.8681 23.0975 57.9795C23.144 58.3747 23.7167 59.0762 24.0462 59.3234" stroke="#BBBBBB" stroke-width="8" stroke-linecap="round"/>
<path d="M29.3169 71.9612C29.5768 72.4755 31.0891 75.0266 29.7319 75.2626C29.3446 75.33 28.8046 75.3788 29.1048 74.8477C29.9194 73.4066 34.3989 73.0925 33.5314 75.5024C33.1376 76.5963 32.1256 74.9661 33.3746 74.6171C33.6015 74.5537 34.9794 74.1893 34.9608 74.654C34.9432 75.0942 34.572 75.2198 34.4628 74.7831" stroke="#BBBBBB" stroke-width="8" stroke-linecap="round"/>
<path d="M28.9854 27.3085C29.946 27.3459 31.813 27.2738 32.3329 28.3137C32.6537 28.9552 31.945 29.6235 31.4753 29.9275C30.9335 30.2781 30.3133 30.59 30.3133 29.7984" stroke="#BBBBBB" stroke-width="4" stroke-linecap="round"/>
<path d="M18.7858 4.23082C18.8527 4.11179 19.0438 3.88352 19.0494 3.73305C19.0559 3.55733 19.0307 3.38553 19.087 3.21645C19.177 2.94637 19.6242 2.7894 19.8713 2.76469C20.3183 2.71999 19.0129 3.03156 18.5767 3.13907C18.5062 3.15645 18.0699 3.31953 18.0078 3.23528C17.9613 3.17223 18.7432 2.81661 18.8068 2.78979C19.0191 2.70019 19.0387 2.66987 18.836 2.7877C18.58 2.93657 18.3467 3.11361 18.0747 3.23528C17.8558 3.33322 18.2659 3.11702 18.3048 3.10142C18.4622 3.03822 18.9542 2.90514 18.7921 2.95502C18.2354 3.12633 17.7693 3.51236 17.1482 3.46952C16.7697 3.44342 17.301 3.1608 17.3887 3.12234C17.596 3.03149 17.8123 2.97022 18.0329 2.92155C18.1865 2.88768 18.6084 2.72669 18.4972 2.83789C18.4102 2.92488 18.1826 3.01818 18.0705 3.08469C17.9147 3.17715 17.4283 3.41735 17.579 3.31684C18.4221 2.7548 19.6298 2.64621 20.6138 2.58273C21.0103 2.55715 20.3548 2.7721 20.2792 2.80025C19.4996 3.09045 18.6577 3.27376 17.8363 3.39423C17.6336 3.42395 17.4294 3.44844 17.2256 3.46952C17.1622 3.47608 17.1398 3.48 17.2089 3.44861C17.6994 3.22562 18.212 3.07872 18.7482 3.01358C18.855 3.0006 19.1058 2.93499 19.0703 3.03658C19.0382 3.12828 18.7997 3.21731 18.7315 3.25201C18.4535 3.39343 17.6025 3.7829 17.8844 3.64939C18.5101 3.353 19.1947 3.19086 19.8734 3.07214C20.395 2.9809 20.9214 2.9184 21.4504 2.89227C21.5359 2.88805 22.2576 2.79439 22.3037 2.9843C22.381 3.30266 21.4197 3.60774 21.2496 3.66194C20.9687 3.75146 20.6835 3.79471 20.39 3.81043C20.2802 3.81632 20.0596 3.84805 19.9487 3.79161C19.7395 3.68515 20.4521 3.3154 20.4883 3.29802C20.6913 3.2006 20.9024 3.12031 21.1178 3.05541C21.2022 3.03001 21.4384 2.96948 21.3814 3.03658C21.0995 3.36822 20.4763 3.54197 20.0805 3.63475C19.654 3.7347 19.2142 3.77826 18.7775 3.79998C18.5247 3.81255 18.0359 3.88487 17.7987 3.73305C17.5188 3.55393 18.596 3.03275 18.6352 3.01776C19.5117 2.68313 20.5643 2.49482 21.5069 2.54509C21.9048 2.56631 21.1194 2.97808 21.0614 3.00521C20.4599 3.28621 19.7984 3.36685 19.1414 3.39423C18.8183 3.40769 19.3475 3.03738 19.3965 3.0094C19.6835 2.84561 19.997 2.73292 20.3126 2.6392C20.6055 2.55221 21.0487 2.37218 21.3625 2.40705C21.4964 2.42192 21.1445 2.57029 21.0195 2.62038C20.6598 2.76452 20.2833 2.87701 19.9048 2.9592C19.4854 3.05028 19.0599 3.09931 18.6311 3.11397C18.5896 3.11539 17.9584 3.16846 17.9241 3.04704C17.8634 2.83165 18.993 2.52554 19.087 2.49907C19.4388 2.40008 19.7969 2.32151 20.1579 2.26483C20.1625 2.2641 20.6484 2.15566 20.549 2.30247C20.3855 2.54372 20.0158 2.65193 19.7521 2.71868C19.7395 2.72186 19.439 2.81475 19.4216 2.74169C19.4012 2.65591 19.642 2.52735 19.6831 2.50535C20.0684 2.29911 20.5492 2.2549 20.9777 2.23973C21.2353 2.23061 21.7809 2.22735 21.2747 2.48234C21.0814 2.57973 20.4622 2.7799 20.6598 2.69149C21.2113 2.44478 21.88 2.44067 22.471 2.42796C22.982 2.41697 23.7323 2.32533 24.1819 2.63711C24.3638 2.76327 24.4684 3.08033 24.3408 3.28129C24.1678 3.55381 23.0828 3.48432 23.3746 3.34613C23.643 3.21899 24.0531 3.41848 24.2885 3.52808C24.8702 3.79884 25.3403 4.19817 25.4535 4.85827C25.5005 5.13249 25.4503 5.46114 25.2109 5.6363C25.1766 5.66138 25.162 5.64572 25.2213 5.62375C25.3795 5.56518 25.5546 5.61243 25.7024 5.67813C26.2942 5.94114 27.0039 6.73325 26.8046 7.4308" stroke="#BBBBBB" stroke-linecap="round"/>
<path d="M17.393 4.30615C17.1337 4.30096 16.7572 4.12036 16.7572 3.79792C16.7572 3.72683 16.9181 3.57804 16.8534 3.60759C16.6697 3.69159 16.4822 3.76391 16.3013 3.85439" stroke="#BBBBBB" stroke-linecap="round"/>
<path d="M27.8213 7.09192C27.8215 7.07116 27.8291 6.61532 27.8819 6.69663C27.9957 6.87164 28.023 7.1167 28.0472 7.3178C28.0885 7.66134 28.0848 8.70119 28.0848 8.35517C28.0848 7.9724 28.0153 7.51513 28.1308 7.1463C28.2096 6.89483 28.2852 7.38631 28.2898 7.42028C28.3336 7.74263 28.3483 8.0678 28.3483 8.39282C28.3483 8.59587 28.3479 8.36521 28.3483 8.30916C28.3508 8.02481 28.3686 7.73981 28.4069 7.45793C28.4259 7.31787 28.433 7.29207 28.4592 7.15884C28.474 7.08383 28.4449 6.87891 28.4989 6.93296C28.5549 6.98897 28.4412 7.35448 28.4236 7.42237C28.398 7.52147 28.3599 7.73637 28.34 7.51021C28.3143 7.21911 28.3072 6.92814 28.3128 6.63597C28.3195 6.28891 28.3381 5.94105 28.3567 5.59441C28.3603 5.52823 28.4175 5.10057 28.4236 5.11755C28.5089 5.35319 28.4979 5.65744 28.5157 5.90395C28.5341 6.15927 28.5555 6.42632 28.5282 6.68198C28.4915 7.02659 28.2406 6.23589 28.2145 6.15911C28.1461 5.95798 28.1042 5.73452 28.1266 5.52121C28.128 5.50807 28.1801 5.30625 28.2354 5.3769C28.3324 5.50084 28.2751 5.85258 28.2668 5.9897C28.2419 6.40005 28.1412 6.83532 27.861 7.15048C27.4005 7.66858 27.2336 6.81754 27.1081 6.46656C26.9735 6.09021 26.8527 5.6979 26.9052 5.29324C26.9251 5.14018 26.9712 4.98741 27.0454 4.85193C27.0657 4.81475 27.1236 4.72124 27.1353 4.762C27.1837 4.93153 27.0004 5.24063 26.9282 5.3769C26.7831 5.65098 26.5753 5.86719 26.2903 5.99598C26.1616 6.05417 26.0937 6.05928 26.0937 5.90604C26.0937 5.55648 26.2372 5.26413 26.5329 5.06945C26.7211 4.94562 27.1046 4.75919 27.3361 4.87494C27.5437 4.97875 27.5215 5.38594 27.5097 5.56931C27.49 5.87392 27.3806 6.18919 27.1729 6.41846C27.1215 6.47528 26.8684 6.69613 26.7944 6.54813C26.7109 6.38112 26.7616 6.04647 26.809 5.87885C26.8928 5.58291 27.1 5.34551 27.3904 5.24095C27.8188 5.08675 28.3624 5.36101 28.1517 5.87885C28.0852 6.04238 28.0524 5.85528 28.0493 5.78474C28.0407 5.59293 28.0258 5.37632 28.0723 5.18866C28.136 4.93147 28.4453 4.86304 28.1497 4.69507C27.7739 4.48157 27.3995 4.26011 27.0746 3.97351C26.863 3.78679 26.6414 3.67735 26.374 3.59077C25.6388 3.35271 24.8693 3.2512 24.1235 3.05535C23.363 2.85561 22.554 2.91029 21.7957 2.72071C21.582 2.66729 21.105 2.62585 21.0491 2.34633C21.0233 2.21757 21.0455 2.13565 21.1578 2.07653C21.1968 2.05603 21.4075 1.95655 21.3502 1.94268C21.1712 1.89928 20.9264 1.89666 20.7437 1.89666C20.3877 1.89666 20.0486 1.97196 19.6917 1.97196C19.5957 1.97196 19.6745 1.97335 19.7231 1.97196C19.9301 1.96604 20.1273 1.90831 20.3317 1.88202C20.8184 1.81944 21.3706 1.82402 21.8564 1.89666C22.4548 1.98616 23.0678 1.97196 23.6718 1.97196C24.109 1.97196 24.5405 2.24032 24.9037 2.46137C25.2754 2.68766 25.6421 2.92448 26.0122 3.15574C26.182 3.2619 26.3369 3.42109 26.4681 3.57194C26.66 3.79258 26.9134 3.95372 27.1227 4.15547C27.2039 4.23372 27.9848 5.02053 28.0639 4.97533C28.2981 4.84152 27.6338 4.20004 27.5661 4.11782C27.3459 3.85039 26.9937 3.70612 26.7212 3.49874C26.5278 3.35164 26.3018 3.20434 26.0812 3.10136C26.0173 3.07154 25.9692 3.02342 25.9076 2.9926C25.8135 2.94557 26.1027 3.07815 26.1837 3.14528C26.5572 3.45506 26.7121 4.14039 26.6208 4.60305C26.5046 5.1917 25.8024 5.35371 25.4621 4.85821C25.135 4.38198 25.6062 4.04002 26.0435 4.01325C26.2063 4.00328 26.4558 4.00516 26.512 4.19939C26.5775 4.42558 26.4117 4.61182 26.2088 4.67625C26.0032 4.7415 25.0986 4.7423 25.3303 4.30606C25.4557 4.07006 26.263 4.00996 25.9536 4.37089C25.263 5.17662 24.0912 4.66152 23.289 4.34789C22.046 3.86184 20.8302 3.30445 19.6185 2.74581C19.5508 2.7146 19.4832 2.68322 19.4156 2.65169C19.3698 2.63033 19.2734 2.63042 19.2818 2.58058C19.2837 2.56887 19.4701 2.56613 19.4721 2.56594C19.6861 2.54523 19.8165 2.53514 19.9531 2.38607C19.9992 2.33577 20.1541 2.15114 20.0974 2.06607C19.9972 1.91566 19.4915 1.93431 19.332 1.93431C19.1234 1.93431 19.7571 1.93833 19.9531 2.0096" stroke="#BBBBBB" stroke-linecap="round"/>
<path d="M28.2812 4.7832C28.564 4.80293 28.5024 5.17986 28.5602 5.38223C28.5761 5.43774 28.6479 5.27166 28.6509 5.26242C28.6984 5.11754 28.7266 4.9646 28.7434 4.81401" stroke="#BBBBBB" stroke-linecap="round"/>
<path d="M28.4047 9.86646C28.3887 10.5688 28.1582 11.2615 28.1582 11.9613C28.1582 12.5935 28.1582 13.2256 28.1582 13.8577C28.1582 13.9873 28.1584 13.9381 28.1753 13.832C28.2104 13.6115 28.2538 13.3921 28.2746 13.1697C28.3244 12.6353 28.3337 12.0959 28.3893 11.5626C28.4136 11.3291 28.436 11.125 28.4817 10.8968C28.5044 10.7831 28.5375 10.7049 28.5827 10.599C28.6199 10.5116 28.6785 10.2371 28.6819 10.332C28.6899 10.5563 28.6359 10.7629 28.5912 10.9806C28.5224 11.316 28.5312 11.6595 28.4971 11.999C28.4373 12.5936 28.3739 13.1805 28.3739 13.779C28.3739 14.2168 28.4581 14.6689 28.5125 15.1037C28.5926 15.7445 28.6203 16.3684 28.6203 17.0137C28.6203 17.5702 28.5418 18.1161 28.5039 18.6704C28.471 19.1515 28.4518 19.6448 28.4372 20.1269C28.4194 20.7145 28.4663 21.2957 28.4663 21.8812" stroke="#BBBBBB" stroke-linecap="round"/>
<path d="M30.133 25.094C30.4029 24.5947 30.6861 24.4519 31.2617 24.3517C31.6366 24.2865 32.3916 24.1765 32.7505 24.422C32.9364 24.5492 32.7951 25.0886 32.7066 25.2345C32.4169 25.7121 31.7097 25.5659 31.3144 25.3443C30.6508 24.9722 30.0719 24.4053 30.1418 23.6008C30.1698 23.2786 30.3769 22.9883 30.704 22.8981C30.8256 22.8645 30.9874 23.0417 30.9104 23.1572C30.7014 23.4706 29.7712 23.3521 29.4918 23.3373C29.044 23.3134 28.5582 23.2394 28.1567 23.0386" stroke="#BBBBBB" stroke-linecap="round"/>
<path d="M31.2095 23.1295C30.8553 22.9193 30.4338 22.5893 30.0048 22.5648C29.9007 22.5589 29.8495 22.4838 29.7726 22.431C29.7196 22.3945 29.4351 22.3014 29.4861 22.2051C29.5435 22.0966 30.1245 22.3543 30.1951 22.3745C30.9079 22.5781 31.7315 22.7983 32.4434 22.4812C32.7826 22.33 33.0652 22.091 33.3867 21.9102C33.5603 21.8125 33.6373 21.676 33.8405 21.7157C34.2254 21.7909 34.6053 21.8405 34.995 21.8872C35.2882 21.9223 35.4008 21.9403 35.635 22.0942C35.9471 22.2993 36.1993 22.5694 36.4444 22.8513C36.8051 23.2661 37.2897 23.5128 37.7725 23.7486C37.9259 23.8235 38.0476 23.9206 38.1741 24.033C38.2592 24.1086 38.1122 23.6905 38.0904 23.6566C37.9615 23.4551 37.7372 23.3056 37.6303 23.0919C37.5358 22.9029 37.78 23.0924 37.8437 23.1379C37.8845 23.1671 38.3121 23.5255 38.3121 23.46C38.3121 23.2166 37.5827 22.9312 37.4128 22.8576C36.7399 22.566 36.1707 22.2283 35.4343 22.1131C34.7968 22.0133 34.1703 21.8739 33.5268 21.8202C32.5156 21.736 31.3732 21.6059 30.4565 22.1151C30.2655 22.2213 30.1038 22.3737 29.9504 22.5272C29.7993 22.6783 29.8139 22.6797 30.0466 22.6547C31.4501 22.5044 32.8908 22.3893 34.3007 22.5063C34.713 22.5405 35.9815 22.7583 35.2628 23.3951C34.4245 24.1379 32.9893 24.2091 31.9373 24.2694C31.5592 24.291 31.1177 24.3476 30.7389 24.2882C30.6254 24.2704 30.6594 24.2412 30.7702 24.1899C31.2845 23.9518 31.8682 23.828 32.4142 23.69C32.7172 23.6135 33.5955 23.3384 33.3344 23.5102C32.997 23.7322 32.3848 23.7292 32.0021 23.7632C31.6332 23.796 31.2581 23.8176 30.8874 23.8051C30.5866 23.7949 31.1546 23.6083 31.1718 23.6022C31.9599 23.32 34.4452 22.9096 33.6168 23.0291C33.1155 23.1015 32.6181 23.1931 32.1151 23.255C31.8611 23.2863 31.6601 23.3074 31.4102 23.3303C31.3434 23.3364 31.2765 23.3424 31.2095 23.347C31.1636 23.3502 31.0508 23.3882 31.0714 23.347C31.1269 23.236 31.7736 23.161 31.8536 23.1462C32.6944 22.9909 33.5638 22.9285 34.4178 22.912C34.5745 22.909 35.233 22.83 35.3673 22.9936C35.5082 23.1651 34.8923 23.5378 34.811 23.5813C34.4028 23.7997 33.0154 24.033 33.4599 23.9034C33.8072 23.8021 34.1666 23.728 34.5224 23.6649C34.9544 23.5884 35.5134 23.462 35.9529 23.5562C36.1501 23.5984 35.9841 23.8026 35.9007 23.8636C35.5653 24.1089 35.0985 24.1913 34.6939 24.2129C34.5666 24.2197 34.1684 24.2802 34.0581 24.1669C33.8924 23.9968 34.3774 23.7231 34.4387 23.6963C34.9624 23.4677 35.5769 23.3914 36.1433 23.37C36.4516 23.3584 36.7895 23.3861 37.028 23.6064C37.3752 23.9271 37.2554 24.4855 37.6554 24.7818C38.2873 25.2499 39.1969 25.3407 39.9435 25.4845C39.9585 25.4874 40.5533 25.6301 40.5584 25.5556C40.5684 25.4086 40.1019 25.1314 40.0021 25.0516C39.7342 24.8373 39.4551 24.6465 39.2868 24.3405C39.2111 24.2029 38.9931 24.2139 38.8601 24.1669C38.6333 24.0867 38.3072 24.0176 38.1406 23.8302C38.0551 23.7339 38.5443 23.7323 38.5966 23.7319C38.9974 23.7283 39.15 23.8638 39.4583 24.1104C39.7896 24.3755 40.1228 24.5988 40.5291 24.7316C40.9533 24.8703 41.1558 24.7346 41.441 24.4388C41.6959 24.1745 40.6479 24.381 40.5877 24.2757C40.4978 24.1184 41.5589 24.033 41.6627 24.033C42.4152 24.033 43.1171 23.8323 43.8588 23.7172C44.3123 23.6468 44.7966 23.6942 45.2559 23.6942C45.5533 23.6942 45.8436 23.7813 46.1364 23.826C46.4281 23.8705 46.683 23.9423 46.8998 24.1543C47.1967 24.4448 47.3602 24.842 47.5858 25.1834C47.8325 25.5568 48.0618 25.9582 48.2823 26.3483C48.3793 26.5201 48.5187 26.663 48.6023 26.844C48.7297 27.12 48.888 27.3762 49.0917 27.6053C49.121 27.6383 49.4134 27.9811 49.3824 27.8416C49.3421 27.6603 49.1645 27.4941 49.0477 27.3627C48.8029 27.0872 48.5377 26.8305 48.2969 26.5512C47.8168 25.9943 47.5841 25.1827 47.0127 24.7107C46.4043 24.2081 45.5308 23.9333 44.7999 23.6566C44.3803 23.4977 43.9508 23.3341 43.5199 23.209C43.2283 23.1243 42.8845 23.0208 42.5788 23.0166C42.1374 23.0104 41.7033 23.1575 41.4159 23.5248C41.2589 23.7254 41.3123 23.8601 41.3343 24.0916C41.352 24.2768 41.3499 24.4691 41.236 24.6228C41.1388 24.7541 41.0314 24.8819 40.9223 25.0035C40.8638 25.0687 40.6727 25.1913 40.8742 25.1332C41.9205 24.8314 42.9287 24.5428 44.0345 24.5852C44.1946 24.5913 44.5197 24.5931 44.5197 24.832C44.5197 25.1246 44.1856 25.3851 43.9592 25.5075C43.8341 25.5752 42.8175 25.9686 42.859 25.5431C42.9202 24.9164 43.8154 24.7528 44.2938 24.6898C44.4769 24.6656 44.885 24.5876 45.0216 24.7818C45.2333 25.0827 44.7367 25.5574 44.551 25.7083C44.0994 26.0755 43.5344 26.3242 42.9699 26.455C42.7686 26.5016 41.8684 26.7158 41.7255 26.4299C41.615 26.2089 41.974 25.9232 42.1019 25.8275C42.7269 25.36 43.4849 25.0863 44.2394 24.9156C44.6226 24.8289 45.1382 24.6912 45.5361 24.7839C45.9619 24.883 45.4224 25.4438 45.3061 25.5515C44.7926 26.0265 44.1581 26.3809 43.4948 26.5972C42.6857 26.861 41.7129 27.0441 40.8617 26.8984C40.5434 26.8439 40.3622 26.6999 40.3994 26.3609C40.4526 25.8774 40.9043 25.5554 41.2904 25.3256C41.7296 25.0642 42.2368 24.9046 42.7419 24.8362C43.0087 24.8 43.5882 24.7217 43.7835 24.9993C43.975 25.2715 43.5479 25.6774 43.3861 25.8192C42.8323 26.3045 42.1497 26.5939 41.4285 26.7101C41.3438 26.7238 40.6492 26.8769 40.5772 26.7227C40.4605 26.4725 41.0567 25.9828 41.19 25.8819C41.7189 25.4817 42.3375 25.204 42.972 25.0202C43.5072 24.8652 44.5766 24.5102 45.0948 24.8989C45.3239 25.0707 45.2737 25.4389 45.2036 25.6728C45.0341 26.2377 44.634 26.7088 44.2311 27.1243C44.2274 27.128 43.7784 27.5629 43.7667 27.5175C43.706 27.2802 44.1246 26.7701 44.2541 26.6139C44.5575 26.2478 44.9426 26.0079 45.3939 25.8631C45.7084 25.7622 46.2396 25.624 46.5275 25.8819C46.7383 26.0707 46.7249 26.4396 46.6781 26.6892C46.601 27.1001 46.3535 27.4211 45.944 27.5342C45.3098 27.7093 44.463 27.2554 44.2206 26.6495C43.8512 25.7261 45.062 25.4074 45.7202 25.4302C46.0911 25.443 46.4831 25.532 46.7241 25.8401C47.0313 26.2328 47.0533 26.7837 46.745 27.1786C46.4658 27.5363 46.006 27.7225 45.5612 27.7433C45.0865 27.7656 44.0893 27.6313 44.0805 26.9779C44.0703 26.226 45.161 25.7339 45.7097 26.2584C45.9427 26.4811 45.8851 26.8769 45.7223 27.1201C45.4414 27.5395 44.8989 27.5834 44.4402 27.5551C44.2785 27.5451 43.936 27.5404 43.8379 27.3669C43.7196 27.1578 43.8822 26.8183 44.0094 26.6579C44.1902 26.4296 44.4567 26.2967 44.7288 26.2103C44.8686 26.1659 45.2022 26.0827 45.0258 26.3504C44.7804 26.7228 44.337 26.9163 43.9382 27.0699C43.3432 27.2991 42.7108 27.4935 42.0852 27.622C41.7757 27.6856 41.8743 27.5349 42.0308 27.3627C42.4536 26.8976 42.9914 26.5517 43.5409 26.2563C44.1436 25.9322 44.754 25.6999 45.4399 25.6372C45.8289 25.6017 46.5285 25.5356 46.7241 25.9949C47.0997 26.8765 45.9113 27.5271 45.2391 27.668C45.1707 27.6824 44.7714 27.7949 44.7372 27.645C44.6725 27.3618 44.8802 26.9426 45.03 26.7227C45.4341 26.1297 46.4942 25.6166 47.1382 26.158C47.5457 26.5005 47.8211 27.6578 47.2386 27.965C46.6182 28.2922 45.9574 27.0201 45.7997 26.616C45.6618 26.2628 45.4462 25.2906 45.9105 25.0641C46.0832 24.9799 46.2043 25.144 46.2995 25.2649C46.6467 25.7058 46.9555 26.1816 47.2804 26.639C47.7648 27.3209 48.202 28.0357 48.6274 28.7556C48.805 29.0563 48.6233 28.7039 48.527 28.5883C48.2954 28.3105 47.8304 27.9625 47.7427 27.5969C47.6856 27.3593 48.2413 27.6251 48.3011 27.6555C48.6134 27.8143 48.8394 28.0476 48.9202 28.3938C48.9391 28.4747 48.9252 28.5724 48.9787 28.6259" stroke="#BBBBBB" stroke-linecap="round"/>
<path d="M15.6614 29.793C15.0504 30.0221 14.5015 30.405 13.8565 30.5418C13.5395 30.609 13.2138 30.6562 12.8944 30.7154C12.2589 30.8331 11.3038 30.87 10.7548 30.4707C10.686 30.4207 10.7297 30.175 10.7297 30.0921C10.7297 29.9575 10.8292 29.8307 10.966 29.8307C11.1895 29.8307 11.3766 29.9237 11.5747 30.0189C11.9177 30.1837 12.2652 30.3387 12.6099 30.4999C12.7122 30.5478 13.0219 30.6589 12.909 30.6589C12.76 30.6589 12.6075 30.5856 12.4677 30.5439C10.7426 30.0289 9.00269 30.0452 7.22018 29.9603C6.45837 29.9241 5.70086 29.8683 4.93837 29.8683C4.7619 29.8683 4.58408 29.8598 4.40922 29.8871C4.24302 29.9131 4.10136 29.9925 3.93654 30.0189C3.6513 30.0645 3.88039 29.9424 4.02857 29.8683C4.22332 29.7709 4.42753 29.72 4.62883 29.6445C4.79157 29.5835 4.91213 29.4733 4.97811 29.3036C5.01061 29.22 4.62992 29.3529 4.59327 29.3705C4.41057 29.4585 4.24077 29.528 4.0453 29.5755C3.33531 29.7482 2.95921 30.4403 2.78623 31.0814C2.66742 31.5217 2.5227 31.9376 2.5227 32.399C2.5227 32.5841 2.47281 32.7841 2.43067 32.9637C2.39277 33.1253 2.32049 33.2769 2.28009 33.4385C2.26314 33.5063 2.21296 33.6955 2.19225 33.6288C2.04751 33.1624 2.45895 32.6045 2.69839 32.2526C2.88911 31.9723 3.08464 31.6863 3.31537 31.4369C3.47159 31.2681 3.65347 31.1303 3.79432 30.9475C4.04406 30.6234 3.82021 31.3053 3.78596 31.3993C3.68182 31.6852 3.53321 31.9621 3.33211 32.192C3.29744 32.2316 3.02556 32.5354 2.95355 32.4994C2.90546 32.4754 2.93627 32.192 2.93681 32.1564C2.94092 31.8852 2.97927 31.6324 3.08949 31.3826C3.15829 31.2266 3.26044 31.0913 3.3342 30.9392C3.3528 30.9008 3.1616 31.0924 3.13969 31.1127C2.81358 31.415 2.41864 31.6626 2.19852 32.0539C2.08787 32.2506 1.94635 32.4421 1.82624 32.6354C1.7761 32.716 1.68404 32.9703 1.67356 32.8759C1.66322 32.7829 1.74431 32.6231 1.77186 32.5371C1.89273 32.1593 2.0259 31.8059 2.21734 31.4578C2.27473 31.3535 2.32357 31.1811 2.39303 31.0918C2.43342 31.0399 2.51028 30.8563 2.47878 30.9141C2.28552 31.2684 2.09489 31.5737 1.99774 31.9744C1.86137 32.537 1.79979 33.131 1.73212 33.7062C1.65878 34.3296 1.64005 34.9229 1.69238 35.5509C1.74726 36.2094 1.87491 36.8042 2.10859 37.4228C2.38048 38.1425 2.60486 38.8245 3.20871 39.3344C3.64636 39.704 3.99188 40.1597 4.4134 40.5391C4.92854 41.0027 5.44891 41.4226 6.00293 41.84C6.6766 42.3475 7.39429 42.8049 8.05677 43.3249C8.79608 43.9053 9.57178 44.6298 10.5038 44.8517" stroke="#BBBBBB" stroke-linecap="round"/>
<path d="M8.56836 44.4915C8.85965 45.1833 9.40072 45.7274 9.86553 46.3085C10.1847 46.7074 10.4673 47.1322 10.7873 47.5334C11.1827 48.0293 11.51 48.5057 11.8173 49.0544C11.9516 49.2942 12.0934 49.5095 12.2529 49.7355C12.4593 50.0279 12.6992 50.292 12.9003 50.5898C12.9848 50.715 13.0716 50.8389 13.1578 50.9629C13.1689 50.9788 13.2468 51.0815 13.2468 51.0808C13.2468 50.6049 12.8611 50.1031 12.65 49.6994C12.3549 49.135 12.1229 48.5456 11.8606 47.9666C11.6164 47.4274 11.388 46.9388 11.0352 46.4625C10.8525 46.216 10.6358 45.9621 10.3926 45.7742C10.2919 45.6964 10.1608 45.4593 10.0436 45.43C9.96836 45.4112 10.3277 46.3718 10.3733 46.4504C10.913 47.3801 11.7045 48.1308 12.3179 49.0063C12.8855 49.8164 13.2044 50.8501 13.6151 51.7474C14.0323 52.6592 14.676 53.4569 15.2828 54.2479C15.582 54.6378 15.885 55.0245 16.1926 55.4079C16.2671 55.5009 16.4687 55.783 16.438 55.6678C16.3713 55.4175 16.1243 55.1676 15.976 54.9651C15.0945 53.7618 14.1089 52.59 13.7017 51.1241C13.6709 51.0134 13.6841 51.0958 13.7089 51.1578C13.815 51.423 13.9766 51.6697 14.1229 51.9135C14.5307 52.5932 15.0509 53.261 15.3623 53.9928C15.4044 54.0918 15.4248 54.192 15.4561 54.2936C15.4842 54.3848 15.4618 54.1062 15.4609 54.1035C15.2142 53.3234 14.8359 52.5829 14.5897 51.798C14.5866 51.7878 14.4595 51.4349 14.5585 51.5092C14.8181 51.7039 15.027 52.0815 15.2155 52.3371C15.5622 52.8073 15.8862 53.2939 16.2262 53.769C16.3803 53.9842 16.571 54.1991 16.6931 54.4356C16.7539 54.5534 16.5313 54.2256 16.4477 54.1228C16.0603 53.6465 15.6081 53.2251 15.189 52.7775C14.9012 52.4701 14.5872 52.1594 14.3731 51.7932C14.2256 51.5407 14.1262 51.2628 14.0073 50.9966C13.9193 50.7994 13.7644 50.1728 13.7859 50.3877C13.8081 50.6095 13.9403 50.8455 14.0338 51.0423C14.2589 51.5162 14.4772 51.9903 14.686 52.4718C15.1488 53.5389 15.6373 54.5949 16.1035 55.6606C16.418 56.3794 16.7481 57.0835 17.1841 57.7375C17.6055 58.3697 18.0129 59.0039 18.4692 59.6123C19.0867 60.4356 19.8436 61.1061 20.5245 61.8721C20.6727 62.0389 21.1387 62.4416 20.9577 62.7433C20.9119 62.8196 20.8673 62.5887 20.8085 62.5219C20.6888 62.3862 20.5441 62.272 20.4162 62.1441C20.2206 61.9485 20.0372 61.7121 19.8723 61.4895C19.6771 61.2259 19.4715 60.9867 19.2129 60.7843C19.0892 60.6875 19.0516 60.656 19.0516 60.8565C19.0516 61.4319 19.4422 62.0606 19.841 62.4593C19.9613 62.5796 19.8395 61.9369 19.8362 61.9275C19.3946 60.679 18.674 59.5382 18.1708 58.3151C17.8858 57.6224 17.6773 56.9014 17.3622 56.2214C17.3144 56.1183 17.2561 56.0309 17.1937 55.9374C17.1171 55.8224 17.2487 56.2104 17.3044 56.3369C17.7157 57.2699 18.3521 58.0743 18.811 58.9793C18.8451 59.0467 19.2368 59.8918 19.0179 59.5329C18.8476 59.2535 19.0339 59.9481 19.0588 60.0046C19.1087 60.1176 19.6715 61.0368 19.48 61.1188C19.281 61.2041 19.0138 60.8714 18.9048 60.7554C18.675 60.5108 18.5292 60.18 18.3176 59.9155C18.1215 59.6704 18.2671 60.1079 18.3104 60.2019C18.5909 60.8116 19.1244 61.3215 19.5715 61.8095C19.9296 62.2005 20.263 62.6919 20.794 62.8492C21.216 62.9742 21.7095 63.0151 22.1465 63.0754C22.3395 63.102 22.5235 63.1627 22.7145 63.1958C23.0384 63.2518 22.2136 63.2487 22.1273 63.2487C21.7818 63.2487 21.4558 63.2054 21.1141 63.2054C20.8097 63.2054 20.5772 63.1385 20.486 62.7963C20.3893 62.4336 22.3849 62.4587 22.6182 62.6759C22.7942 62.8397 22.4533 63.0405 22.3728 63.1187C22.2559 63.2324 22.8233 63.2054 22.8397 63.2054C23.3587 63.2054 23.877 63.2105 24.3943 63.2583C25.7184 63.3808 27.038 63.6955 28.3725 63.6362C28.3838 63.6357 28.6335 63.5969 28.5578 63.5953C28.3118 63.59 28.0651 63.5953 27.819 63.5953C27.1314 63.5953 26.4874 63.4961 25.8191 63.3402C25.8058 63.3371 25.5096 63.2996 25.5038 63.2704C25.5003 63.2527 26.1303 63.24 26.1512 63.2391C27.0497 63.1977 29.7382 62.9574 28.8418 63.0321C27.8928 63.1112 26.9501 63.1315 25.9972 63.1163C25.9066 63.1149 25.7343 63.1152 25.6289 63.0947C25.5045 63.0705 25.6529 63.0367 25.6795 63.0321C26.1235 62.9559 26.5957 62.9819 27.044 62.9647C28.5049 62.9088 29.9651 62.8608 31.4265 62.8251C31.5171 62.8229 31.7788 62.8155 31.8934 62.8251C31.9993 62.834 32.0068 62.8692 31.903 62.9046C31.4747 63.0504 30.977 63.0517 30.5312 63.0851C29.7708 63.142 29.0137 63.1467 28.2522 63.1669C28.1074 63.1707 27.3488 63.279 27.9273 63.2295C29.4377 63.1 30.9455 63.0689 32.4614 63.0417C33.4326 63.0243 34.3963 63.0308 35.3637 63.1187C35.6217 63.1422 35.865 63.1621 36.1266 63.1621C36.4267 63.1621 37.3267 63.1621 37.0267 63.1621C36.9291 63.1621 36.1831 63.1755 36.6032 63.1597C37.8146 63.1139 39.0214 63.0198 40.2348 62.9984C41.7712 62.9714 43.3328 63.0819 44.8651 62.9455C45.7148 62.8698 46.5455 62.7775 47.4065 62.7722C47.7939 62.7698 48.1815 62.7722 48.5689 62.7722C48.6447 62.7722 48.8505 62.7329 48.9131 62.7746C48.9716 62.8136 48.7881 62.8416 48.7205 62.8612C48.381 62.96 48.0312 63.0217 47.6905 63.1187C47.262 63.2408 46.8708 63.292 46.4294 63.292C45.8219 63.292 47.637 63.1464 48.244 63.1212C48.8961 63.094 49.6284 63.2332 50.2608 63.0562C50.5461 62.9763 50.7428 62.9586 50.9009 62.6856C51.047 62.4333 51.2887 62.2282 51.4304 61.9732C51.5418 61.7727 51.7005 61.5872 51.8419 61.4076C52.0592 61.1319 52.1779 60.817 52.3016 60.4931C52.577 59.7717 52.8022 59.0418 53.1391 58.344C53.2632 58.087 53.2851 58.3819 53.3172 58.5462C53.3822 58.8789 53.3656 59.2128 53.3268 59.5473C53.3164 59.637 53.2894 59.8914 53.4062 59.6869C53.4711 59.5733 53.5295 59.4513 53.5675 59.3259C53.5913 59.2473 53.4982 59.5322 53.4953 59.5377C53.1965 60.094 52.6901 60.5207 52.2342 60.9432C51.8614 61.2886 51.572 61.7184 51.1849 62.0454C50.6012 62.5386 49.7587 62.8987 49.043 63.1428C48.0908 63.4676 47.1143 63.4356 46.1262 63.4846C46.0962 63.486 45.2782 63.5029 45.2887 63.4894C45.4683 63.2565 45.9701 63.102 46.2104 62.9551C47.0643 62.4333 47.8622 61.8202 48.6483 61.2031C49.2415 60.7374 49.8501 60.2775 50.3522 59.711C50.8414 59.159 51.0241 58.4472 51.5579 57.9252C51.7843 57.7039 51.9205 57.5436 52.2535 57.6461C52.4884 57.7184 53.1754 57.9773 53.2305 58.267C53.2486 58.3616 53.198 58.4812 53.2402 58.5702C53.2862 58.6674 53.5739 58.6135 53.6637 58.6135" stroke="#BBBBBB" stroke-linecap="round"/>
<path d="M55.1123 51.6606C56.2508 50.2932 57.5927 48.6515 58.0153 46.8719C58.021 46.8478 58.0253 46.6225 57.9988 46.6816C57.4745 47.8511 56.1519 48.4474 55.5424 49.5557C55.4447 49.7333 55.9503 49.1597 55.9807 49.1256C56.4473 48.6048 56.998 48.1574 57.5026 47.6741C57.9382 47.2569 57.5225 48.152 57.4612 48.3027C57.0472 49.3204 56.4994 50.3127 55.7698 51.1396C55.3516 51.6135 55.5135 51.2398 55.7243 50.9411C56.214 50.2474 56.7831 49.6083 57.2379 48.8899C57.7297 48.1132 58.0848 47.2578 58.5778 46.4831C58.8184 46.105 59.0293 45.8638 59.1898 45.4079C59.3389 44.9844 59.32 44.4029 59.3511 43.9523C59.441 42.6487 59.5356 41.2474 59.2808 39.9575C58.9734 38.4017 59.1184 36.7779 58.7928 35.2266C58.5511 34.0751 58.4168 32.8024 57.9575 31.7115C57.9256 31.6358 57.9827 32.3359 57.9905 32.3897C58.1968 33.8106 58.5476 35.1915 58.5116 36.6409C58.4864 37.6548 58.1782 38.5561 57.8417 39.4985C57.5474 40.3225 57.6436 39.6314 57.8665 39.2793C58.0256 39.0279 58.2831 38.8374 58.5364 39.1056C59.0479 39.6472 59.021 40.6648 59.0575 41.347C59.112 42.3694 59.0489 43.3274 58.6439 44.2748C58.4742 44.672 58.312 45.0605 58.2014 45.4782C57.9981 46.2464 57.4199 46.8187 57.4199 47.6452C57.4199 48.0055 57.1699 48.4746 57.6928 48.3523C58.369 48.1942 58.6605 47.7816 58.8672 47.1613C59.094 46.481 59.2395 45.8156 59.5413 45.1515C59.8911 44.3821 59.8221 43.4671 59.8018 42.6372C59.778 41.6585 59.4249 40.5973 59.2436 39.6349C59.1526 39.1524 59.0805 38.6853 59.0533 38.1958C59.0228 37.6466 58.9773 37.793 58.9996 38.3199C59.0756 40.116 58.983 41.8976 58.983 43.6917C58.983 44.0709 58.9398 44.4854 58.9996 44.8621C59.0589 45.236 59.5 46.796 59.5 45.5" stroke="#BBBBBB" stroke-linecap="round"/>
<path d="M49.3066 29.0318C49.3688 28.1184 50.3054 28.3829 50.7209 27.7829C50.8306 27.6243 50.9987 27.4725 51.184 27.4107C51.3612 27.3516 51.1173 27.3941 51.0434 27.3941C50.7015 27.3941 50.3376 27.3619 50.0013 27.4355C49.7837 27.4831 49.0605 27.619 49.1163 27.6175C49.8891 27.5954 50.646 27.3941 51.4322 27.3941C52.2924 27.3941 53.1409 27.536 53.992 27.6505C54.4434 27.7113 54.6473 27.7561 55.0093 27.9607C55.4651 28.2184 55.8879 28.4663 56.2871 28.8084C56.6934 29.1567 57.0893 29.4764 57.3623 29.9415C57.6175 30.3763 57.7093 30.8493 58.0116 31.2649C58.651 32.1441 58.8752 33.3511 59.1488 34.3747C59.3506 35.1297 59.5669 35.879 59.7443 36.6409C59.831 37.0135 59.9197 37.3841 59.9841 37.7616C60.0064 37.892 59.9298 38.2246 60.042 38.1544C60.3297 37.9746 59.7904 36.4165 59.7277 36.1033C59.641 35.6695 59.6142 35.1171 59.4672 34.7055C59.4274 34.5939 59.43 35.1919 59.43 35.2266C59.43 35.8221 59.43 36.4176 59.43 37.013C59.43 37.7763 59.4444 38.5412 59.4135 39.3041C59.3903 39.8749 59.3016 40.4699 59.3721 41.0409C59.489 41.9876 59.8552 40.4541 59.8766 40.2552C60.0521 38.6272 59.544 37.171 59.215 35.5987C59.0507 34.8142 58.9663 34.0158 58.9131 33.2168C58.8919 32.8995 58.8148 32.3576 58.9255 32.0589C59.0341 31.7656 59.4646 32.6424 59.4879 32.6957C59.7378 33.267 59.7815 33.8779 59.9097 34.4822C59.931 34.5826 59.9758 35.1001 59.9469 34.7096C59.89 33.9406 59.4597 33.2426 59.2067 32.5303C59.0097 31.9755 58.765 31.4244 58.4789 30.9092C58.3422 30.6632 58.3141 30.4111 58.1232 30.1855C57.626 29.5979 57.0704 29.0099 56.3698 28.6596C55.3936 28.1715 54.2522 27.6638 53.1938 27.4107C52.5646 27.2602 51.8924 27.0907 51.2461 27.0261C51.0922 27.0107 50.8187 26.9547 50.8822 27.1874C51.1192 28.0564 52.4205 28.0155 52.863 28.7175C53.0834 29.067 52.8523 29.2357 52.5074 29.1641C52.2432 29.1093 51.6456 28.5776 51.9036 28.2708C52.2244 27.8893 53.371 27.8389 53.7562 28.1385C54.0844 28.3938 53.801 28.9075 53.4337 28.643C53.0377 28.3579 52.7589 27.7412 52.892 27.2535C53.0084 26.8264 53.522 26.8212 53.7314 27.1295C54.1012 27.6739 54.4443 28.2706 54.7239 28.8663C55.0205 29.4981 55.5485 30.0504 55.7826 30.6942C55.8614 30.9109 53.6319 29.0828 54.6784 29.2675C55.4865 29.4101 56.12 30.3087 56.3615 31.0333C56.4282 31.2334 56.4924 32.5634 55.9149 32.0919C55.4865 31.7422 54.8899 30.7568 55.0713 30.1648C55.3321 29.3139 57.221 30.2313 57.5815 30.5246C57.995 30.8611 58.5754 32.0365 57.7717 32.3235C57.1388 32.5496 56.3081 31.886 55.8736 31.5213C55.2451 30.9937 54.9571 30.4301 54.9638 29.619C54.9803 27.6089 57.4347 30.8668 56.3036 30.6611C56.1769 30.638 55.6029 30.3326 56.0018 30.2682C56.9754 30.1112 58.0368 31.058 58.2969 31.9348C58.4754 32.5365 57.9811 33.0919 57.3458 32.8363C56.9433 32.6744 56.2586 31.7813 56.6924 31.3476C57.1314 30.9086 57.8856 31.6333 58.0736 32.0092C58.7404 33.3428 55.3745 33.24 54.8893 33.2747" stroke="#BBBBBB" stroke-linecap="round"/>
<path d="M38.6393 72.0307C39.3326 71.57 40.0191 71.0273 40.9079 71.1095C41.2894 71.1447 41.7639 71.3948 41.5518 71.8524C41.0533 72.9283 39.3775 73.2352 38.357 73.3037C37.4265 73.3662 35.3984 73.46 34.8353 72.4567C34.2867 71.4792 36.3085 70.9141 36.8512 70.8073C37.021 70.7739 38.7534 70.3928 38.783 70.7627C38.8499 71.5991 37.022 72.1164 36.4897 72.2388C35.2001 72.5353 33.7394 72.6449 32.4132 72.6449C32.2042 72.6449 32.3384 72.5735 32.4479 72.5261C33.0321 72.2727 33.6696 72.1114 34.2904 71.9812C34.3848 71.9614 36.3708 71.6276 36.3708 71.7137C36.3708 72.2974 33.6735 72.6776 33.3691 72.7242C32.3908 72.8739 31.4059 72.9188 30.417 72.9025C29.8102 72.8925 28.7462 72.9829 28.1881 72.635C27.9588 72.4921 28.1529 72.1978 28.2674 72.0704C28.7574 71.5247 29.6107 71.396 30.2932 71.2927C31.0366 71.1802 31.7861 71.1456 32.537 71.1392C32.5904 71.1387 33.3303 71.0716 33.4137 71.2135C33.8159 71.8971 30.6355 72.5454 30.427 72.5756C29.5228 72.7066 28.599 72.7299 27.6878 72.6796C27.1943 72.6524 26.1382 72.6714 25.7809 72.2041C25.297 71.5713 27.3339 71.265 27.5937 71.2481C28.0565 71.2181 28.4894 71.2319 28.3466 71.8029C28.1337 72.6546 27.137 73.1108 26.3653 73.3037C25.8873 73.4232 25.5332 73.5729 25.5332 72.9917C25.5332 72.5804 25.5751 72.1363 26.0533 72.0407C26.3879 71.9737 26.1871 72.5769 26.1276 72.7093C25.7107 73.6379 24.5975 74.312 23.6411 74.5172C23.4787 74.5521 21.5032 74.7582 21.6251 74.433C21.7039 74.223 22.084 74.0306 22.3037 74.1012C22.8306 74.2705 22.3945 75.8572 22.0214 76.023C21.9083 76.0733 22.0581 75.2759 22.0759 75.2206C22.1562 74.97 22.6034 74.3395 22.3929 74.4974C21.854 74.9016 20.9694 74.7766 20.7583 74.1012C20.555 73.4507 20.6295 72.7043 20.6295 72.0307" stroke="#BBBBBB" stroke-width="6" stroke-linecap="round"/>
<path d="M25.5329 77.915C25.6889 77.9518 28.2495 78.6018 28.2175 78.6976C28.1889 78.7836 27.2798 78.7144 27.212 78.7125C26.5696 78.6941 25.9711 78.5414 25.3397 78.4599C25.0759 78.4258 24.7986 78.45 24.5324 78.45C24.4255 78.45 24.2422 78.4393 24.5076 78.4549C25.241 78.4981 25.957 78.6775 26.687 78.7521C28.2827 78.9153 29.8598 78.8958 31.4619 78.8958C34.7681 78.8958 38.0849 78.8958 41.4029 78.8958" stroke="#BBBBBB" stroke-width="6" stroke-linecap="round"/>
<path d="M28.0292 78.0043C27.4649 78.2809 27.0472 78.3609 26.4194 78.3609C25.699 78.3609 24.8754 78.4588 24.1806 78.2271C23.9243 78.1417 23.7619 78.0043 23.4822 78.0043C23.0272 78.0043 22.5586 77.4515 22.3033 77.1325C22.0363 76.7988 22.1302 76.2164 21.8278 75.914C21.4593 75.5455 20.7138 75.7129 21.3424 76.1319" stroke="#BBBBBB" stroke-width="6" stroke-linecap="round"/>
<path d="M22.1453 70.3367C21.4695 69.3793 23.1723 69.3164 23.3043 69.7126" stroke="#BBBBBB" stroke-width="6" stroke-linecap="round"/>
<path d="M24.8198 69.8018C26.8228 69.61 28.786 69.7126 30.7537 69.7126C31.5298 69.7126 32.2972 69.8909 33.0768 69.8909C33.8908 69.8909 34.7047 69.8909 35.5187 69.8909C36.8533 69.8909 38.1621 70.0692 39.4912 70.0692C40.4807 70.0692 41.5014 69.9965 42.473 70.1584" stroke="#BBBBBB" stroke-width="6" stroke-linecap="round"/>
<path d="M19.1137 70.7825C19.1549 70.6771 19.483 69.5324 19.3614 69.9107C19.0397 70.9116 19.2029 72.0874 19.2029 73.1303C19.2029 73.6256 19.2029 74.1209 19.2029 74.6163C19.2029 74.7119 19.2078 75.6805 19.2722 75.1809C19.4508 73.7971 19.0246 72.4 19.0246 71.0103C19.0246 70.6254 19.1472 70.2327 19.3366 69.8959C19.3876 69.8053 19.6002 69.3537 19.6883 69.3411C19.8966 69.3114 19.6841 69.7658 19.6338 69.9702C19.4298 70.7989 19.2829 71.6078 19.1831 72.4567C18.9906 74.0927 18.5449 76.1054 19.6932 77.5089C19.9692 77.8462 20.2179 78.2047 20.5204 78.5194C21.0127 79.0313 21.2769 79.6225 21.8776 80.0945C22.4592 80.5515 21.8665 80.1021 21.6299 79.8567C21.3919 79.6099 20.9739 79.3254 20.8077 79.0345C20.6746 78.8015 20.3324 78.5988 20.139 78.4055C20.0037 78.2701 19.9035 78.1028 19.7824 77.9547C19.6936 77.8462 19.6038 77.4651 19.5595 77.5981C19.2614 78.4924 20.0393 79.4452 20.8275 79.7181C21.1935 79.8447 21.5805 80.0321 21.9668 80.0549C22.0531 80.0599 22.1782 80.1872 22.254 80.2332C22.5199 80.3946 22.8354 80.477 23.1357 80.5452C25.5124 81.0854 27.9103 80.786 30.3079 80.6839C33.0182 80.5686 35.7751 80.6209 38.4609 80.253C40.4155 79.9852 42.4668 79.8766 44.4344 79.8766C46.7388 79.8766 49.0451 79.7874 51.3441 79.7874C51.609 79.7874 51.7336 79.5256 51.9583 79.4357C52.3181 79.2918 51.2137 79.6521 50.8488 79.7824C50.0464 80.069 49.3093 80.1354 48.4663 80.144C47.2441 80.1565 46.0187 80.2332 44.7911 80.2332" stroke="#BBBBBB" stroke-width="2" stroke-linecap="round"/>
<path d="M42.8667 80.5492C43.6809 80.4716 44.5411 80.3489 45.3628 80.3489C46.4294 80.3489 47.4728 80.091 48.5338 80.0818C49.316 80.0751 50.0865 79.9817 50.8704 79.9817C50.9889 79.9817 51.1096 79.9452 50.8908 79.9984C50.6629 80.0538 50.4485 80.1418 50.2177 80.1894C50.1638 80.2005 49.6533 80.2634 49.8468 80.2413C50.3345 80.1858 50.7598 79.9875 51.2283 79.8834C51.5277 79.8169 51.8574 79.7609 52.1463 79.6479C52.4031 79.5474 52.5694 79.4177 52.7675 79.2455C52.9144 79.1177 53.2687 78.9039 53.2812 78.6799C53.2928 78.4708 53.3579 78.2962 53.4332 78.0976C53.5234 77.86 53.5757 77.6087 53.6817 77.3781C53.8998 76.9035 54.1036 76.4534 54.2084 75.9428C54.3148 75.4242 54.1506 74.8574 54.2418 74.3331C54.3324 73.8117 54.3159 73.2671 54.3159 72.7383C54.3159 72.2298 54.3587 71.7044 54.2751 71.2029C54.2342 70.9572 54.207 70.6088 54.0489 70.4055C53.9352 70.2593 53.8225 70.1155 53.7077 69.9678C53.4384 69.6216 52.948 69.3862 52.5728 69.1741C52.3238 69.0334 52.0501 68.8445 51.7791 68.7513C51.4683 68.6445 51.1526 68.5378 50.8444 68.4249C50.1745 68.1796 49.5037 68.0127 48.7823 67.9984C47.7235 67.9775 46.6716 67.888 45.6113 67.8983C45.1652 67.9026 44.7238 67.9972 44.2816 68.0299C44.154 68.0394 44.0286 68.0367 43.9089 68.0911C43.848 68.1188 44.0389 68.1246 44.1055 68.1319C44.3473 68.1584 44.5897 68.1615 44.8324 68.1727C45.8742 68.2211 46.9215 68.3725 47.959 68.4843C48.6666 68.5605 49.3713 68.7174 50.0248 68.9998C50.6199 69.2569 51.2047 69.5527 51.8087 69.7842C52.1101 69.8998 52.4708 70.132 52.6803 70.3758C53.0018 70.7499 53.2144 71.3582 53.2144 71.8426C53.2144 72.4552 53.2144 73.0678 53.2144 73.6804C53.2144 74.6261 53.1031 75.5722 52.773 76.4657C52.6822 76.7116 52.6124 76.9657 52.4912 77.2001C52.352 77.4691 52.1997 77.6241 51.9719 77.812C51.6769 78.0556 51.3056 78.2575 50.9798 78.4611C50.7209 78.6229 50.4473 78.6968 50.1694 78.8134C49.4898 79.0987 48.7236 79.0498 47.9998 79.1064C47.5372 79.1426 47.0809 79.1806 46.6164 79.1806C46.2838 79.1806 45.9512 79.1806 45.6187 79.1806C45.4171 79.1806 45.2048 79.2096 45.0178 79.1213C44.568 78.9086 44.162 78.5905 43.8051 78.2478C43.3072 77.7698 42.7878 77.3177 42.2993 76.8292C41.8784 76.4083 41.3646 76.0675 40.9678 75.6257C40.7974 75.436 40.6217 75.2415 40.4782 75.0304C40.3331 74.8168 40.3529 74.8812 40.5042 75.0415C41.0286 75.5972 41.8408 75.7756 42.2807 76.4268C42.4347 76.6547 42.6103 76.8425 42.7814 77.0517C43.1526 77.5054 43.7152 77.8896 44.2538 78.1124C44.5283 78.226 44.7572 78.3464 45.0475 78.4277C45.1703 78.4621 45.1157 78.4543 45.0364 78.3795C44.8561 78.2094 44.6386 78.0817 44.4504 77.9196C44.2696 77.7639 44.1027 77.5813 43.9516 77.3966C43.8254 77.2425 43.6203 77.1307 43.5195 76.9627C43.3601 76.6971 43.0383 76.5575 42.9335 76.2432" stroke="#BBBBBB" stroke-width="2" stroke-linecap="round"/>
<path d="M52.3108 80.2513C52.0961 80.409 51.8672 80.6273 51.5884 80.6496C51.5148 80.6555 51.4395 80.6677 51.3658 80.677C51.2526 80.6914 51.139 80.7282 51.0249 80.7282C50.8774 80.7282 50.7539 80.7031 50.6099 80.6646" stroke="#BBBBBB" stroke-width="2" stroke-linecap="round"/>
<path d="M41.6602 75.1804C41.8257 74.9822 42.0182 74.8383 42.2254 74.6876C42.3101 74.626 42.4087 74.5453 42.5115 74.5163C42.6687 74.472 42.7079 75.0294 42.7093 75.1168C42.7139 75.4075 42.7622 75.7459 42.9566 75.9752C43.0646 76.1026 43.1918 76.2107 43.2966 76.3417C43.3698 76.4332 43.4252 76.5646 43.4803 76.6676C43.6228 76.934 43.794 77.2138 44.0287 77.4094C44.1679 77.5254 44.3356 77.6349 44.442 77.7839C44.5817 77.9794 44.8547 78.0896 45.0531 78.2007C45.1879 78.2762 45.3067 78.3693 45.4364 78.4471C45.5648 78.5242 45.7364 78.5731 45.8409 78.6776" stroke="#BBBBBB" stroke-width="2" stroke-linecap="round"/>
<path d="M45.4915 69.9822C45.3551 70.0125 45.2195 70.0458 45.0835 70.0776C44.9527 70.1082 44.5922 70.2311 44.6843 70.1332C44.7898 70.0211 44.9936 69.9595 45.1303 69.9072C45.4788 69.7737 45.8386 69.6698 46.2051 69.5989C46.8073 69.4825 47.4182 69.4527 48.0296 69.4294C48.0768 69.4276 48.1749 69.3929 48.1709 69.44C48.1659 69.4986 48.0527 69.5284 48.0137 69.5407C47.6048 69.6688 47.1474 69.6799 46.7234 69.7102C46.504 69.7259 46.2842 69.7363 46.0646 69.7508C46.0279 69.7533 45.9909 69.7611 45.9542 69.757C45.9377 69.7552 45.9856 69.7452 46.0019 69.742C46.4061 69.6634 46.839 69.6668 47.2489 69.6555C47.673 69.6438 48.0898 69.6645 48.5012 69.772C48.8663 69.8675 49.2238 69.96 49.5989 70.0131C49.8834 70.0534 50.1167 70.1477 50.384 70.2401C50.729 70.3594 51.0425 70.5515 51.3793 70.6887C51.4916 70.7345 51.5982 70.8306 51.6911 70.9077C51.8332 71.0258 51.9976 71.1812 52.0885 71.3422C52.2268 71.5875 52.37 71.8297 52.485 72.0885C52.5486 72.2317 52.6571 72.3637 52.7084 72.5097C52.7424 72.6063 52.7877 72.7007 52.8427 72.787C52.9005 72.8779 52.9227 72.9988 52.9628 73.0979C53.0057 73.204 53.0442 73.5013 53.1694 73.543" stroke="#BBBBBB" stroke-width="2" stroke-linecap="round"/>
<path d="M44.6011 71.3494C44.7484 71.2687 44.8921 71.1825 45.048 71.1189C45.1868 71.0623 45.3346 71.0272 45.4719 70.9679C45.5531 70.9328 45.6356 70.8941 45.7138 70.8531C45.8614 70.7758 46.0189 70.7266 46.1678 70.6535C46.2534 70.6115 46.3111 70.5675 46.4133 70.5422C46.4966 70.5216 46.5834 70.4935 46.6667 70.4769C46.7528 70.4597 46.6123 70.5019 46.597 70.5069C46.425 70.5632 46.252 70.6197 46.0768 70.665C45.8693 70.7186 45.6552 70.7471 45.4507 70.8125C45.2222 70.8855 45.024 71.0601 44.8289 71.194C44.5308 71.3987 44.2806 71.62 44.0226 71.8722C43.9541 71.9392 43.8814 72.0154 43.8292 72.0965C43.7766 72.1785 43.7559 72.2966 43.7206 72.3871C43.6482 72.5729 43.5819 72.7739 43.4804 72.9461C43.4191 73.0501 43.3787 73.1541 43.3541 73.2738C43.3063 73.506 43.4051 73.7173 43.4468 73.9396C43.4842 74.1387 43.4528 74.2656 43.3691 74.4474C43.3356 74.5203 43.2946 74.5985 43.2737 74.6735C43.2239 74.8529 43.2706 75.0724 43.3205 75.2449C43.3474 75.3378 43.3695 75.4328 43.393 75.5266C43.4136 75.6093 43.4729 75.6717 43.393 75.5461" stroke="#BBBBBB" stroke-linecap="round"/>
<path d="M43.6313 74.9102C43.6097 74.8275 43.5603 74.5814 43.5518 74.6664C43.542 74.7644 43.5465 74.8775 43.5686 74.9729C43.6043 75.1276 43.6313 75.2687 43.6313 75.4277C43.6313 75.4977 43.6304 75.4101 43.6277 75.387C43.615 75.2776 43.5942 75.1707 43.5765 75.0621C43.5465 74.8777 43.5518 74.6917 43.5518 74.5057C43.5518 74.2532 43.5579 73.9941 43.603 73.7462C43.6518 73.4778 43.7692 73.2405 43.8538 72.9867" stroke="#BBBBBB" stroke-linecap="round"/>
<path d="M43.9491 72.6687C43.9148 72.7447 43.8729 72.8139 43.8334 72.8869C43.8273 72.8983 43.8227 72.9393 43.8379 72.9089C43.8895 72.8057 43.9409 72.7202 44.0092 72.6246C44.0859 72.5172 44.1563 72.4135 44.2273 72.3031C44.3598 72.097 44.456 71.8762 44.6521 71.715C44.783 71.6073 44.9054 71.4925 45.046 71.397C45.2169 71.2809 45.4038 71.1853 45.5706 71.0641C45.7105 70.9623 45.9131 70.905 46.0722 70.8398C46.2888 70.7509 46.5194 70.6654 46.7469 70.6093C47.147 70.5106 47.558 70.434 47.97 70.4123C48.4207 70.3886 48.8512 70.5132 49.2744 70.657C49.4538 70.7179 49.624 70.8035 49.8078 70.853C49.9349 70.8872 50.0521 70.9462 50.177 70.9873C50.267 71.0169 50.3675 71.058 50.4587 71.0782C50.548 71.0981 50.6245 71.1445 50.7139 71.1674C50.8355 71.1985 50.9576 71.2362 51.0672 71.2981C51.1631 71.3524 51.2574 71.4032 51.3409 71.4774C51.4938 71.6133 51.6639 71.7561 51.7834 71.9234C51.9756 72.1925 52.1517 72.5234 52.2912 72.8242C52.4209 73.1037 52.4766 73.395 52.5367 73.6932C52.5695 73.8559 52.6116 74.02 52.625 74.186C52.641 74.3834 52.6221 74.5833 52.6294 74.7812C52.6302 74.8024 52.6352 75.0132 52.6524 74.9137C52.6754 74.78 52.6661 74.6285 52.6365 74.4968C52.6027 74.3467 52.627 74.1923 52.5932 74.0447C52.5579 73.8903 52.4974 73.7435 52.4572 73.5907C52.4358 73.5094 52.4072 73.4083 52.3662 73.3355C52.2565 73.1403 52.1923 72.9228 52.0881 72.7253C51.9674 72.4966 51.8609 72.256 51.6589 72.0876C51.5571 72.0028 51.4606 71.9067 51.348 71.8351C51.2321 71.7613 51.0949 71.7149 50.9912 71.6196C50.9404 71.5729 50.8719 71.5391 50.8164 71.4959C50.7434 71.4392 50.6614 71.3946 50.5859 71.3414C50.5008 71.2816 50.4181 71.2186 50.3324 71.1595C50.2794 71.1229 50.2239 71.0512 50.1646 71.0314" stroke="#BBBBBB" stroke-linecap="round"/>
<path d="M45.8408 77.8192C46.1088 77.8385 46.3595 77.8871 46.6091 77.9888C46.7683 78.0536 46.9324 78.1123 47.0975 78.1601C47.495 78.2751 47.8965 78.3438 48.3127 78.3438C48.5773 78.3438 48.8408 78.3171 49.096 78.2449C49.3239 78.1804 49.5527 78.0541 49.7663 77.9534C50.0015 77.8425 50.2537 77.7226 50.4508 77.5525C50.5668 77.4524 50.6854 77.3534 50.8022 77.2549C51.0575 77.0395 51.3397 76.8571 51.5564 76.5987C51.7823 76.3294 51.9324 75.9726 52.0492 75.6449C52.2103 75.1931 52.1994 74.6694 52.1994 74.1948C52.1994 73.9427 52.2274 73.669 52.1508 73.4247C52.1168 73.3163 52.1081 73.1406 52.0404 73.0503" stroke="#BBBBBB" stroke-linecap="round"/>
<path d="M43.8062 75.2916C43.8387 75.499 43.9333 75.6699 44.0446 75.848C44.1527 76.0209 44.2037 76.2403 44.283 76.4273C44.4018 76.7072 44.5407 76.9251 44.7758 77.1277C44.8964 77.2315 45.0199 77.337 45.1573 77.4182C45.2358 77.4645 45.3392 77.5471 45.4276 77.5648" stroke="#BBBBBB" stroke-linecap="round"/>
<circle cx="48" cy="74" r="4" fill="white"/>
</svg>
