<svg width="78" height="78" viewBox="0 0 78 78" fill="none" xmlns="http://www.w3.org/2000/svg">
<g filter="url(#filter0_d)">
<circle cx="37" cy="34" r="22" fill="white"/>
<circle cx="37" cy="34" r="16" fill="#2267A0"/>
<path d="M36.8767 44H34.4661C34.2087 44 33.9602 43.906 33.7671 43.7357C33.5938 43.5828 33.4755 43.3773 33.4301 43.1507L33.127 41.6349C33.0444 41.2222 33.0925 40.7941 33.2754 40.415C34.0423 38.825 35.2046 36.6858 36.0775 35.1138C36.5107 34.3334 35.7882 33.4069 34.9277 33.6438L32.8471 34.2164C31.9518 34.4628 31.2646 33.4192 31.8447 32.6941C31.9465 32.5668 32.0792 32.4676 32.2301 32.4059L35.4847 31.0745C35.6049 31.0253 35.7335 31 35.8633 31H39.4667C40.019 31 40.4667 31.4477 40.4667 32V33.7074C40.4667 33.8985 40.4119 34.0855 40.3089 34.2465L37.4244 38.7535C37.3214 38.9145 37.2667 39.1015 37.2667 39.2926V39.8571C37.2667 40.4622 37.7997 40.9286 38.3994 40.8483L39.8673 40.6517C40.4669 40.5714 41 41.0378 41 41.6429V41.823C41 42.2319 40.751 42.5996 40.3714 42.7514L38.5 43.5L37.6281 43.8535C37.3894 43.9502 37.1342 44 36.8767 44Z" stroke="white"/>
<ellipse cx="38" cy="26.5" rx="3" ry="2.5" fill="white"/>
<path d="M38.6559 33.3849C38.3609 33.9193 37.9313 34.3588 37.5089 34.7963C37.4342 34.8736 37.184 35.0628 37.2863 35.0299C37.4725 34.97 37.6547 34.8557 37.8334 34.7766C38.1022 34.6577 38.3881 34.5642 38.6436 34.4176C38.668 34.4036 38.745 34.3352 38.7789 34.3291C38.7942 34.3263 38.782 34.3605 38.7789 34.3758C38.7684 34.4268 38.7427 34.521 38.7297 34.5651C38.6064 34.9828 38.4391 35.3843 38.2637 35.7823C38.2559 35.8 38.0478 36.2106 38.1445 36.0281C38.2621 35.8063 38.3629 35.577 38.474 35.352C38.5333 35.2318 38.6446 35.0272 38.5379 35.2905C38.4204 35.5807 38.28 35.8877 38.0289 36.0872C37.7916 36.2758 38.0124 35.7604 38.0387 35.6839C38.0892 35.5375 38.1438 35.392 38.2084 35.2512C38.2499 35.1607 38.3241 34.9123 38.3707 35.0004C38.4011 35.0578 38.3345 35.291 38.3277 35.3274C38.2607 35.6837 38.1759 36.0368 38.0461 36.3761C37.9762 36.5587 37.8922 36.7364 37.7904 36.9035C37.7608 36.952 37.6668 37.0852 37.6748 37.0289C37.7154 36.7447 37.8195 36.4769 37.8457 36.1855C37.8466 36.1763 37.8817 35.8311 37.8531 35.9827C37.7656 36.4463 37.5399 36.9172 37.2888 37.3117C37.1788 37.4844 37.0535 37.6483 36.9077 37.7924C36.8542 37.8452 36.7234 37.9812 36.7134 37.9067C36.701 37.8131 36.7415 37.6872 36.7651 37.6018C36.8532 37.2824 36.971 36.9686 37.0847 36.6576C37.1511 36.4761 37.2193 36.2943 37.2986 36.1179C37.3179 36.075 37.3719 35.9608 37.3847 36.006C37.4158 36.1157 37.3866 36.288 37.3749 36.3933C37.3372 36.73 37.2515 37.0578 37.1032 37.3633C37.0213 37.5319 36.92 37.6931 36.7946 37.8329C36.7486 37.8842 36.6433 38.0173 36.6249 37.951C36.6084 37.8915 36.658 37.7533 36.6692 37.7063C36.7185 37.4986 36.7682 37.2885 36.8524 37.0916C36.9311 36.9072 37.1169 36.6947 37.1068 36.483C37.1058 36.4617 37.0814 36.3863 37.0515 36.3896C37.0257 36.3925 37.0086 36.5098 37.0085 36.5101C36.9415 36.7948 36.8739 37.0787 36.7872 37.3584C36.7124 37.5995 36.6256 37.8356 36.5266 38.0678C36.479 38.1792 36.426 38.3711 36.3397 38.4636C36.2943 38.5122 36.3511 38.3309 36.3643 38.2657C36.4255 37.963 36.4864 37.6599 36.5733 37.3633C36.685 36.982 36.8036 36.5894 36.9482 36.2187C37.0563 35.9419 36.8081 36.7972 36.711 37.0781C36.6233 37.3316 36.5246 37.5813 36.4196 37.828C36.3807 37.9194 36.2453 38.1836 36.3003 38.101C36.3543 38.0201 36.3859 37.887 36.4134 37.7997C36.5156 37.4759 36.6053 37.148 36.7061 36.8236C36.7706 36.616 36.8337 36.408 36.8978 36.2003C36.9097 36.1618 36.9377 35.9981 36.9741 35.9618C36.9973 35.9385 36.9644 36.0269 36.9569 36.0589C36.9095 36.2611 36.8358 36.4572 36.7429 36.6429C36.6469 36.835 36.5332 37.0204 36.4061 37.1936C36.356 37.2619 36.2812 37.3735 36.1971 37.4113C36.1294 37.4416 36.2383 36.776 36.2487 36.724C36.2842 36.547 36.3233 36.3708 36.3753 36.1978C36.4039 36.1029 36.4695 35.8215 36.4811 35.92C36.4909 36.0038 36.4418 36.1404 36.4233 36.215C36.3466 36.5249 36.2541 36.8307 36.1356 37.1273C36.0367 37.3747 35.6771 38.0879 35.7692 37.8379C35.9578 37.3261 36.204 36.8211 36.4577 36.3392C36.5324 36.1973 36.6127 36.0587 36.7011 35.9249C36.7549 35.8436 36.7562 35.8692 36.738 35.9519C36.5795 36.6725 36.2785 37.3778 35.9426 38.0309C35.7825 38.3421 35.6113 38.6493 35.4004 38.9296C35.3915 38.9414 35.1519 39.2688 35.1029 39.2517C35.0637 39.238 35.6313 37.8778 35.6746 37.7875C35.8099 37.5046 35.9705 37.2387 36.1504 36.9822C36.1782 36.9425 36.3509 36.6465 36.4282 36.6355C36.4358 36.6344 36.4347 36.65 36.4343 36.6576C36.4318 36.7132 36.3989 36.8695 36.3925 36.8998C36.3226 37.2356 36.2207 37.5621 36.0975 37.8821C35.9032 38.3869 35.6613 38.8806 35.3266 39.3083C35.2998 39.3426 35.2324 39.4494 35.2406 39.4066C35.2698 39.2547 35.315 39.1015 35.3463 38.9493C35.4465 38.4623 35.5608 37.9636 35.7815 37.5145C35.9383 37.1956 35.6347 38.2148 35.4938 38.5411C35.3265 38.9286 35.1101 39.3997 34.7562 39.6574C34.6966 39.7008 34.703 39.6537 34.7132 39.607C34.7592 39.3944 34.8505 39.1889 34.9381 38.9911C35.0016 38.8477 35.067 38.6996 35.1496 38.5657C35.2123 38.464 35.23 38.5186 35.2111 38.6099C35.1295 39.0047 34.8464 39.3514 34.6222 39.6746C34.5881 39.7238 34.28 40.185 34.4783 39.9021C34.7363 39.5342 35.0108 39.0937 35.3857 38.8337C35.7012 38.6148 35.5456 39.3385 35.5283 39.4472C35.487 39.7061 35.4269 39.9614 35.3537 40.2131C35.3481 40.2322 35.1534 40.7885 35.1496 40.786C35.135 40.7763 35.1588 40.7522 35.1644 40.7356C35.204 40.6182 35.2479 40.5023 35.2885 40.3852C35.4276 39.9843 35.5528 39.5783 35.7139 39.1853C35.7327 39.1395 36.1503 38.1558 36.3225 38.337C36.3876 38.4056 36.3808 38.5993 36.3852 38.6751C36.4031 38.9858 36.4012 39.3019 36.3262 39.6058C36.2919 39.7447 36.2388 39.8854 36.17 40.0115C36.1624 40.0255 36.1307 40.0544 36.1307 40.0385C36.1307 39.9916 36.1643 39.8385 36.17 39.8123C36.2408 39.4899 36.2881 39.1115 36.438 38.814C36.481 38.7289 36.5053 38.7593 36.5192 38.8386C36.5665 39.1097 36.5765 39.403 36.5659 39.6771C36.5572 39.901 36.5258 40.1209 36.438 40.3287C36.4319 40.3432 36.3052 40.6157 36.2536 40.6016C36.1692 40.5786 36.3771 39.4974 36.3925 39.4214C36.4389 39.194 36.498 38.9711 36.5831 38.755C36.6076 38.6928 36.6748 38.5111 36.6778 38.578C36.6866 38.7774 36.6379 39.0144 36.6052 39.2074C36.5336 39.6317 36.4122 40.0563 36.1872 40.427C36.0645 40.6293 35.9041 40.7841 35.7102 40.9163C35.7027 40.9215 35.4177 41.1316 35.3869 41.0516C35.3602 40.9821 35.3866 40.844 35.3906 40.7786C35.4101 40.4598 35.4332 40.1416 35.4422 39.8222C35.4459 39.6931 35.4471 39.564 35.4471 39.4349C35.4471 39.3705 35.427 39.4507 35.4176 39.4705C35.157 40.0222 34.8808 40.5529 34.4968 41.0307C34.3438 41.221 34.1825 41.4222 33.9989 41.5851C33.7936 41.7674 33.9507 41.4455 33.9767 41.3909C34.0836 41.1671 34.2 40.9491 34.2976 40.7209C34.3774 40.5342 34.4286 40.3286 34.5214 40.1479C34.6642 39.8698 34.3698 40.7554 34.2693 41.0516C34.2038 41.2446 33.9776 41.8071 34.0112 41.606C34.0635 41.2921 34.1404 40.9812 34.198 40.668C34.2217 40.5395 34.2385 40.4044 34.2939 40.2844C34.3027 40.2654 34.3415 40.2167 34.3345 40.2365C34.2511 40.4699 34.1306 40.7032 34.0185 40.9237C33.9621 41.0347 33.9005 41.1527 33.8022 41.2335C33.752 41.2747 33.6917 41.2919 33.7136 41.2065C33.817 40.805 34.4042 39.2972 34.9873 39.9476C35.275 40.2684 35.3831 40.7698 35.4004 41.1868C35.4057 41.3156 35.3989 41.4523 35.3611 41.5765C35.3575 41.5884 35.3412 41.6196 35.3402 41.6073C35.3368 41.5684 35.3527 41.4582 35.3549 41.4425C35.3904 41.194 35.4427 40.948 35.4815 40.7C35.5576 40.2142 35.5898 39.7154 35.7299 39.2419C35.8146 38.9553 35.9393 38.6801 36.1073 38.4329C36.1787 38.3279 36.334 38.0849 36.4761 38.0493C36.5601 38.0283 36.5298 38.5823 36.529 38.6112C36.5247 38.7795 36.5195 38.9499 36.4774 39.114C36.4702 39.142 36.441 39.2298 36.4184 39.2615C36.411 39.2719 36.4062 39.2372 36.4085 39.2247C36.4642 38.9216 36.5767 38.5592 36.7429 38.2989C36.8841 38.0779 37.0082 38.0934 37.0355 38.3567C37.0913 38.8933 37.054 39.495 36.8302 39.9918C36.8119 40.0325 36.5432 40.5258 36.5585 40.2844C36.5774 39.9867 36.6338 39.6578 36.7171 39.371C36.7283 39.3325 36.7306 39.4502 36.7306 39.4902C36.7306 39.7724 36.7235 40.0553 36.6938 40.336C36.6415 40.8291 36.5142 41.3075 36.4257 41.7941C36.4181 41.8364 36.3662 42.0002 36.4122 42.0462C36.4909 42.1249 36.7569 41.9449 36.8106 41.9146C37.1487 41.7235 37.4936 41.4518 37.8789 41.3614C38.0782 41.3146 37.5009 41.5248 37.3011 41.5692C37.269 41.5763 36.8209 41.6392 36.845 41.611C37.0183 41.4071 37.4731 41.3929 37.7142 41.3786C37.7844 41.3744 37.8634 41.3678 37.9342 41.3749C37.9862 41.3801 37.8326 41.4012 37.7806 41.4056C37.4877 41.4307 37.1923 41.3986 36.9937 41.1573C36.9069 41.0519 36.833 40.8683 36.9716 40.7688C37.1633 40.6312 37.2885 40.8211 37.3232 40.9926C37.3705 41.2262 37.3212 41.5063 37.0503 41.563C36.9241 41.5894 36.8322 41.4856 36.995 41.4425C37.1514 41.4011 37.3291 41.4097 37.488 41.4204C37.9608 41.4524 38.4337 41.5377 38.8993 41.622C39.1954 41.6756 39.4895 41.7388 39.7845 41.7978C39.7849 41.7979 39.9773 41.8364 40.0181 41.8421C40.0366 41.8447 39.9852 41.824 39.9677 41.8175C39.6837 41.7125 39.3563 41.625 39.0936 41.472C39.0308 41.4355 39.1632 41.4195 39.1649 41.4192C39.3053 41.3924 39.4556 41.3882 39.5977 41.402C39.802 41.4218 40.0905 41.5179 39.9874 41.7819C39.8609 42.1055 39.3577 42.1122 39.0715 42.0941C38.9795 42.0883 38.4632 42.0544 38.5944 41.8372C38.7592 41.5646 39.3044 41.5926 39.5632 41.6319C39.754 41.6608 39.984 41.7721 39.7231 41.9392C39.5437 42.0541 39.3074 42.0571 39.1034 42.0622C38.9952 42.0649 38.856 42.0631 38.7432 42.0486C38.7292 42.0468 38.6947 42.0358 38.7063 42.0277C38.8131 41.953 38.934 42.1624 38.9387 42.2417C38.961 42.6205 38.2961 42.7631 38.0424 42.8281C37.5767 42.9474 37.0492 43.0239 36.5671 42.9646C36.5257 42.9595 36.4662 42.9345 36.5462 42.9105C36.7321 42.8547 36.9631 42.8636 37.1536 42.876C37.371 42.8903 37.8578 43.031 37.4265 43.2301C36.9965 43.4285 36.3688 43.4725 35.9094 43.3506C35.8277 43.3289 35.6812 43.2879 35.6451 43.1957C35.5902 43.0559 35.8406 42.9224 35.9229 42.8748C36.4272 42.5834 37.0125 42.395 37.5912 42.3351C37.867 42.3066 37.6555 42.3513 37.5433 42.3007C37.4696 42.2674 37.4055 42.2034 37.3503 42.1482" stroke="white" stroke-linecap="round"/>
<path d="M35.9562 42.7015C35.6183 42.8376 35.3834 42.8502 35.1767 42.5109C35.0886 42.3663 35.0179 42.1795 35.1005 42.0154C35.1598 41.8977 35.321 41.7696 35.4619 41.8175C35.6225 41.8721 35.5781 42.1841 35.5603 42.3031C35.5321 42.4917 35.4622 42.7381 35.2788 42.8342C34.9511 43.0058 34.7631 42.6195 34.8042 42.3474C34.8258 42.2044 34.9049 42.0715 35.0513 42.0302C35.2035 41.9872 35.3676 42.0645 35.3562 42.2392C35.3193 42.8069 34.4775 43.1895 33.9817 43.1465C33.4514 43.1005 33.9801 42.3347 34.1637 42.1876C34.2543 42.1149 34.4758 41.9987 34.5866 42.1027C34.6889 42.1989 34.651 42.4591 34.621 42.5736C34.5793 42.7332 34.1824 43.3998 33.9497 43.1219C33.8513 43.0043 33.8686 42.7732 33.8957 42.6351C33.9359 42.4298 34.051 42.2389 34.251 42.158C34.4409 42.0813 34.7426 42.0478 34.9357 42.1335C35.1339 42.2214 35.1628 42.4789 35.1374 42.667C35.0928 42.9966 34.6105 43.4975 34.262 43.2006C34.1578 43.1118 34.1448 42.9561 34.1784 42.8318C34.281 42.4528 34.7409 42.3779 35.071 42.3474C35.303 42.3259 35.7004 42.3239 35.9365 42.3449C36.1014 42.3596 36.3367 42.3711 36.3963 42.5601C36.4818 42.8312 36.3085 43.1117 36.0766 43.2449C35.5892 43.5249 35.1408 43.0393 35.0415 42.5883C34.9175 42.0255 35.1718 41.3482 35.7447 41.1327C35.859 41.0897 35.8423 41.2116 35.8209 41.2827C35.7389 41.5562 35.53 41.8089 35.3083 41.981C35.0976 42.1445 34.8235 42.2694 34.5522 42.2712C34.382 42.2723 34.4079 42.1495 34.4907 42.0425C34.6628 41.82 34.9485 41.6782 35.2136 41.6023C35.3254 41.5703 35.5864 41.5184 35.4951 41.7265C35.3813 41.9862 35.0481 42.1599 34.7956 42.2466C34.492 42.3508 34.1364 42.3725 33.8219 42.308C33.5621 42.2548 33.225 41.9822 33.5637 41.7597C33.7193 41.6575 34.2375 41.4552 34.0874 41.5655C33.9206 41.6882 33.8983 41.6157 33.9448 41.4229C34.0498 40.988 34.2192 40.559 34.3616 40.1356C34.6297 39.3389 34.939 38.556 35.2529 37.7764C35.7746 36.4808 36.3138 35.187 36.9508 33.943C36.9567 33.9314 37.199 33.4164 37.1536 33.6972C37.0955 34.0572 37.0215 34.4183 36.9422 34.7741C36.9061 34.9357 36.7318 35.3829 36.8438 35.261C36.9891 35.1028 37.086 34.8867 37.2114 34.7127C37.3473 34.5241 37.5188 34.3025 37.7462 34.2184C37.9257 34.1521 37.9259 34.4541 37.9294 34.5541C37.9396 34.845 37.8931 35.1406 37.7991 35.4159C37.7587 35.534 37.6479 35.8716 37.4806 35.8929C37.3991 35.9033 37.4551 35.4379 37.4573 35.4171C37.4972 35.0342 37.5971 34.6186 37.8396 34.3094C38.0214 34.0777 38.3233 33.9156 38.6216 33.9185C38.8973 33.9211 38.9604 34.2325 38.9855 34.4545C39.0238 34.7933 38.9656 35.1493 38.7568 35.4257C38.7281 35.4637 38.5411 35.7003 38.4617 35.6175C38.3852 35.5377 38.4155 35.3283 38.4224 35.2364C38.4477 34.9015 38.5308 34.5646 38.6707 34.259C38.7662 34.0503 38.9036 33.8312 39.133 33.7537C39.2669 33.7084 39.387 33.7444 39.4354 33.884C39.5402 34.1858 39.4145 34.7882 38.9818 34.7127C38.7943 34.6799 38.7521 34.4312 38.7371 34.2774C38.7076 33.9754 38.7655 33.6557 38.9056 33.3861C38.9952 33.2136 39.1198 33.075 39.3051 33.0074C39.4279 32.9627 39.5741 32.9338 39.5977 33.0972C39.6554 33.4956 39.5724 34.1332 39.0641 34.184C38.5994 34.2305 38.4576 33.3093 38.4937 32.9964C38.5224 32.7472 38.6603 32.5873 38.8834 32.4837C39.0116 32.4242 39.2847 32.2991 39.433 32.3595C39.5289 32.3987 39.468 32.5836 39.4453 32.6423C39.3527 32.882 39.1513 33.0735 38.9178 33.1746C38.5558 33.3315 37.9995 33.3328 37.9995 32.8267C37.9995 32.5403 38.168 32.3203 38.3855 32.1481C38.4459 32.1002 38.6236 31.9604 38.6302 32.121C38.6523 32.6623 37.9292 32.8834 37.5126 32.9447C37.2886 32.9777 36.0807 33.0548 36.234 32.539C36.293 32.3405 36.5278 32.2314 36.7073 32.1751C36.7655 32.1569 37.0613 32.0647 37.1143 32.1432C37.19 32.2553 36.8386 32.4509 36.7909 32.4763C36.4649 32.6505 36.0885 32.7494 35.7226 32.7898C35.5363 32.8104 34.6974 32.8915 35.0611 32.4874C35.0794 32.4671 35.1609 32.4061 35.0808 32.421C34.8319 32.4673 34.5846 32.5245 34.337 32.5771C34.039 32.6405 33.7385 32.6911 33.4408 32.7554C33.2798 32.7902 33.3115 32.7874 33.4604 32.7874C33.6708 32.7874 33.8821 32.7816 34.0924 32.7874C34.2256 32.791 34.0557 32.8806 34.0198 32.898C33.8337 32.9883 33.6206 33.0368 33.4211 33.0874C33.2989 33.1183 33.1377 33.1282 33.0264 33.1931C32.9639 33.2296 33.1702 33.1748 33.2416 33.1624C33.3373 33.1457 33.6134 33.0491 33.7039 33.1119C33.7469 33.1418 33.492 33.2547 33.4764 33.2607C33.3489 33.3096 33.212 33.3241 33.0769 33.3357C32.7543 33.3634 33.2512 33.1509 33.3277 33.1242C33.3509 33.1161 33.7028 32.9996 33.5121 33.0935C33.2868 33.2045 33.0426 33.2846 32.8015 33.3529C32.6504 33.3957 32.4917 33.4358 32.3343 33.4464C32.1819 33.4566 32.4238 33.3284 32.4449 33.3173C32.6784 33.194 33.4405 32.9652 33.1924 33.0554C32.9183 33.1551 32.6091 33.2551 32.3122 33.2042C32.2448 33.1926 32.6591 33.0272 32.6785 33.021C33.1174 32.8796 33.5683 32.7816 34.026 32.7259C34.3611 32.6851 34.7103 32.6458 35.0488 32.6595C35.28 32.6689 35.0639 32.8188 34.9751 32.871C34.7737 32.9892 34.5423 33.059 34.3198 33.1255C34.1852 33.1657 34.147 33.1681 34.3087 33.1267C34.6212 33.0467 34.9303 32.9977 35.2529 32.9792C35.3591 32.9731 35.8109 32.894 35.8972 33.0136C35.9633 33.1053 35.4892 33.2329 35.4251 33.2521" stroke="white" stroke-linecap="round"/>
<path d="M36.5756 33.9824C36.5644 33.7175 36.7347 33.5617 36.9543 33.4341C37.0359 33.3866 37.3908 33.1991 37.4903 33.289C37.5779 33.3681 37.4336 33.5974 37.376 33.6468C37.1637 33.8287 36.8278 33.7931 36.5854 33.7021C36.4074 33.6352 36.0624 33.4508 36.0666 33.2189C36.071 32.9799 36.4755 32.9122 36.6445 32.8759C36.9786 32.8041 37.366 32.7921 37.6784 32.6448C37.8202 32.5779 37.7309 32.5013 37.6354 32.4456C37.4429 32.3333 37.1654 32.3466 36.9518 32.3448C36.6285 32.342 36.3051 32.3448 35.9818 32.3448C35.6614 32.3448 35.3424 32.3669 35.0216 32.3669C34.9312 32.3669 34.9147 32.3244 34.9528 32.2341C35.0274 32.0575 35.2693 31.9733 35.4335 31.9157C35.7387 31.8087 36.0269 31.7815 36.3445 31.7424C37.1569 31.6422 37.9741 31.5417 38.796 31.5973C38.8949 31.604 39.2109 31.6443 39.2705 31.7473C39.3192 31.8314 39.3747 31.9551 39.4082 32.0473C39.4457 32.1503 39.4781 32.2553 39.5189 32.3571C39.56 32.46 39.595 32.618 39.6615 32.4186C39.7168 32.2525 39.718 32.0751 39.718 31.9022C39.718 31.7964 39.5586 31.7008 39.4746 31.6588" stroke="white" stroke-linecap="round"/>
</g>
<defs>
<filter id="filter0_d" x="0" y="0" width="78" height="78" filterUnits="userSpaceOnUse" color-interpolation-filters="sRGB">
<feFlood flood-opacity="0" result="BackgroundImageFix"/>
<feColorMatrix in="SourceAlpha" type="matrix" values="0 0 0 0 0 0 0 0 0 0 0 0 0 0 0 0 0 0 127 0" result="hardAlpha"/>
<feOffset dx="2" dy="5"/>
<feGaussianBlur stdDeviation="8.5"/>
<feComposite in2="hardAlpha" operator="out"/>
<feColorMatrix type="matrix" values="0 0 0 0 0 0 0 0 0 0 0 0 0 0 0 0 0 0 0.25 0"/>
<feBlend mode="normal" in2="BackgroundImageFix" result="effect1_dropShadow"/>
<feBlend mode="normal" in="SourceGraphic" in2="effect1_dropShadow" result="shape"/>
</filter>
</defs>
</svg>
