<svg width="46" height="37" viewBox="0 0 46 37" fill="none" xmlns="http://www.w3.org/2000/svg">
<path d="M23 11.5H25.25C27.8734 11.5 30 9.37335 30 6.75V6.75C30 4.12665 27.8734 2 25.25 2H20.75C18.1266 2 16 4.12665 16 6.75V6.75C16 9.37335 18.1266 11.5 20.75 11.5H23ZM23 11.5V14.75V16.375V16.375C23 17.2725 23.7275 18 24.625 18H36.5M46 18H36.5M0 18H10M10 18V25M10 18H36.5M10 25H11C13.7614 25 16 27.2386 16 30V30C16 32.7614 13.7614 35 11 35H9.5C6.73858 35 4.5 32.7614 4.5 30V30C4.5 27.2386 6.73858 25 9.5 25H10ZM36.5 18V25M36.5 25H35C32.2386 25 30 27.2386 30 30V30C30 32.7614 32.2386 35 35 35H37.5C40.2614 35 42.5 32.7614 42.5 30V30C42.5 27.2386 40.2614 25 37.5 25H36.5Z" stroke="#4F4F4F" stroke-width="3"/>
</svg>
