<svg width="46" height="34" viewBox="0 0 46 34" fill="none" xmlns="http://www.w3.org/2000/svg">
<circle cx="16.5" cy="9.5" r="9.5" fill="#565656"/>
<path d="M4.06967 21.3003C4.99003 20.4636 6.1892 20 7.43303 20H11.1148C11.3693 20 11.6214 20.0486 11.8576 20.143L13.106 20.6424C13.6966 20.8786 14.3268 21 14.9629 21H18.3197C19.0959 21 19.8615 20.8193 20.5557 20.4721L21.0777 20.2111C21.3554 20.0723 21.6616 20 21.9721 20H24.7994C25.9021 20 26.9739 20.3645 27.8479 21.0369L31.0486 23.4989C32.279 24.4454 33 25.9097 33 27.462V34H0V27.2118C0 25.8031 0.594264 24.4598 1.63664 23.5121L4.06967 21.3003Z" fill="#565656"/>
<path d="M29.8562 12.6589C30.1788 12.0781 30.9676 11.9676 31.4374 12.4374L34.2929 15.2929C34.6834 15.6834 35.3166 15.6834 35.7071 15.2929L42.2929 8.70711C42.6834 8.31658 43.3166 8.31658 43.7071 8.70711L45.3243 10.3243C45.7023 10.7023 45.7162 11.3109 45.3557 11.7057L35.7974 22.1743C35.6079 22.3818 35.3399 22.5 35.0589 22.5H34.5H33.9638C33.6696 22.5 33.3904 22.3705 33.2004 22.1459L28.4464 16.5275C28.1777 16.2101 28.1336 15.7595 28.3356 15.3959L29.8562 12.6589Z" fill="#565656"/>
</svg>
